<?xml version="1.0" encoding="utf-8"?>
<!-- Generator: Adobe Illustrator 27.5.0, SVG Export Plug-In . SVG Version: 6.00 Build 0)  -->
<svg version="1.1" xmlns="http://www.w3.org/2000/svg" xmlns:xlink="http://www.w3.org/1999/xlink" x="0px" y="0px"
	 viewBox="0 0 800 800" style="enable-background:new 0 0 800 800;" xml:space="preserve">
<g id="Background">
	<radialGradient id="SVGID_1_" cx="400" cy="400" r="666" gradientUnits="userSpaceOnUse">
		<stop  offset="0" style="stop-color:#FFFFFF;stop-opacity:0"/>
		<stop  offset="0.1577" style="stop-color:#FCFCFC;stop-opacity:0.0473"/>
		<stop  offset="0.2933" style="stop-color:#F1F1F1;stop-opacity:0.088"/>
		<stop  offset="0.4207" style="stop-color:#DFE0DF;stop-opacity:0.1262"/>
		<stop  offset="0.5432" style="stop-color:#C7C7C6;stop-opacity:0.163"/>
		<stop  offset="0.6622" style="stop-color:#A6A7A6;stop-opacity:0.1986"/>
		<stop  offset="0.7785" style="stop-color:#7F807F;stop-opacity:0.2335"/>
		<stop  offset="0.8905" style="stop-color:#515251;stop-opacity:0.2671"/>
		<stop  offset="1" style="stop-color:#1D1E1C;stop-opacity:0.3"/>
	</radialGradient>
	<rect style="fill:url(#SVGID_1_);" width="800" height="800"/>
	<g>
		<g>
			<path style="fill:#3D3D3C;" d="M397.954,771.646h0.745v-0.936c0-0.987,0.123-1.761,0.373-2.342
				c0.245-0.58,0.67-0.998,1.262-1.263c0.589-0.261,1.407-0.393,2.437-0.393c1.831,0,2.743,0.444,2.743,1.347
				c0,0.286-0.099,0.535-0.289,0.741c-0.189,0.203-0.414,0.31-0.673,0.31c-0.122,0-0.336-0.023-0.639-0.072
				c-0.286-0.041-0.548-0.068-0.752-0.068c-0.563,0-0.927,0.169-1.09,0.501c-0.158,0.332-0.24,0.81-0.24,1.431v0.745h0.767
				c1.194,0,1.789,0.361,1.789,1.082c0,0.506-0.155,0.831-0.476,0.97c-0.317,0.139-0.756,0.207-1.313,0.207h-0.767v8.299
				c0,0.615-0.144,1.088-0.444,1.41c-0.294,0.33-0.669,0.49-1.142,0.49c-0.439,0-0.809-0.16-1.106-0.49
				c-0.292-0.322-0.439-0.795-0.439-1.41v-8.299h-0.862c-0.467,0-0.826-0.1-1.079-0.315c-0.25-0.207-0.38-0.481-0.38-0.816
				C396.377,772.019,396.905,771.646,397.954,771.646z"/>
			<path style="fill:#3D3D3C;" d="M408.204,779.586v2.618c0,0.632-0.157,1.111-0.453,1.424c-0.299,0.321-0.674,0.477-1.131,0.477
				c-0.459,0-0.83-0.157-1.116-0.483c-0.293-0.318-0.438-0.794-0.438-1.417v-8.726c0-1.407,0.509-2.11,1.524-2.11
				c0.523,0,0.897,0.166,1.13,0.494c0.228,0.332,0.354,0.815,0.38,1.464c0.372-0.648,0.754-1.132,1.147-1.464
				c0.397-0.328,0.919-0.494,1.578-0.494c0.663,0,1.298,0.166,1.917,0.494c0.618,0.332,0.931,0.766,0.931,1.308
				c0,0.384-0.132,0.704-0.396,0.949c-0.266,0.25-0.543,0.371-0.853,0.371c-0.119,0-0.396-0.068-0.834-0.214
				c-0.443-0.139-0.83-0.208-1.165-0.208c-0.457,0-0.832,0.124-1.121,0.358c-0.291,0.245-0.52,0.6-0.679,1.07
				c-0.16,0.476-0.272,1.043-0.33,1.695C408.231,777.851,408.204,778.646,408.204,779.586z"/>
			<path style="fill:#3D3D3C;" d="M422.599,778.51h-6.128c0.009,0.706,0.151,1.339,0.432,1.878c0.277,0.544,0.648,0.952,1.112,1.229
				c0.469,0.273,0.975,0.412,1.532,0.412c0.376,0,0.716-0.043,1.025-0.138c0.311-0.082,0.613-0.22,0.901-0.408
				c0.292-0.185,0.557-0.386,0.804-0.602c0.244-0.216,0.562-0.507,0.953-0.873c0.163-0.135,0.392-0.207,0.686-0.207
				c0.321,0,0.58,0.088,0.783,0.264c0.2,0.182,0.296,0.426,0.296,0.745c0,0.287-0.108,0.614-0.326,0.993
				c-0.226,0.384-0.56,0.744-1.012,1.093c-0.444,0.345-1.01,0.641-1.686,0.863c-0.676,0.232-1.455,0.345-2.333,0.345
				c-2.013,0-3.575-0.567-4.688-1.718c-1.121-1.149-1.681-2.708-1.681-4.669c0-0.929,0.14-1.789,0.417-2.579
				c0.272-0.796,0.676-1.469,1.206-2.034c0.526-0.568,1.176-1.005,1.946-1.304c0.772-0.301,1.625-0.452,2.567-0.452
				c1.228,0,2.276,0.256,3.15,0.778c0.876,0.512,1.538,1.18,1.97,1.997c0.435,0.822,0.654,1.654,0.654,2.505
				c0,0.782-0.228,1.296-0.679,1.529C424.054,778.392,423.416,778.51,422.599,778.51z M416.471,776.729h5.68
				c-0.076-1.069-0.365-1.871-0.864-2.401c-0.5-0.531-1.16-0.796-1.98-0.796c-0.777,0-1.422,0.265-1.924,0.81
				C416.884,774.878,416.578,775.675,416.471,776.729z"/>
			<path style="fill:#3D3D3C;" d="M435.623,778.51h-6.126c0.008,0.706,0.152,1.339,0.431,1.878c0.277,0.544,0.65,0.952,1.112,1.229
				c0.46,0.273,0.975,0.412,1.532,0.412c0.371,0,0.718-0.043,1.023-0.138c0.313-0.082,0.61-0.22,0.905-0.408
				c0.288-0.185,0.556-0.386,0.803-0.602c0.24-0.216,0.561-0.507,0.949-0.873c0.163-0.135,0.394-0.207,0.687-0.207
				c0.324,0,0.586,0.088,0.786,0.264c0.198,0.182,0.291,0.426,0.291,0.745c0,0.287-0.106,0.614-0.332,0.993
				c-0.215,0.384-0.551,0.744-1.003,1.093c-0.444,0.345-1.012,0.641-1.686,0.863c-0.675,0.232-1.455,0.345-2.336,0.345
				c-2.007,0-3.572-0.567-4.689-1.718c-1.118-1.149-1.677-2.708-1.677-4.669c0-0.929,0.139-1.789,0.416-2.579
				c0.278-0.796,0.676-1.469,1.202-2.034c0.53-0.568,1.179-1.005,1.951-1.304c0.774-0.301,1.631-0.452,2.57-0.452
				c1.221,0,2.272,0.256,3.154,0.778c0.872,0.512,1.53,1.18,1.963,1.997c0.435,0.822,0.653,1.654,0.653,2.505
				c0,0.782-0.228,1.296-0.675,1.529C437.075,778.392,436.438,778.51,435.623,778.51z M429.497,776.729h5.68
				c-0.075-1.069-0.37-1.871-0.866-2.401c-0.503-0.531-1.161-0.796-1.982-0.796c-0.78,0-1.418,0.265-1.92,0.81
				C429.905,774.878,429.603,775.675,429.497,776.729z"/>
			<path style="fill:#3D3D3C;" d="M442.481,773.131v0.375c0.587-0.725,1.205-1.262,1.841-1.598c0.631-0.343,1.352-0.516,2.152-0.516
				c0.963,0,1.854,0.251,2.664,0.746c0.814,0.5,1.452,1.226,1.92,2.184c0.473,0.955,0.71,2.087,0.71,3.395
				c0,0.961-0.136,1.849-0.408,2.654c-0.268,0.809-0.646,1.482-1.117,2.032c-0.476,0.539-1.039,0.966-1.681,1.262
				c-0.65,0.29-1.344,0.438-2.088,0.438c-0.892,0-1.645-0.18-2.254-0.538c-0.607-0.354-1.185-0.89-1.739-1.58v4.703
				c0,1.373-0.502,2.065-1.5,2.065c-0.592,0-0.978-0.178-1.172-0.531c-0.186-0.361-0.284-0.875-0.284-1.56v-13.515
				c0-0.597,0.13-1.037,0.386-1.339c0.263-0.289,0.622-0.441,1.07-0.441c0.443,0,0.807,0.152,1.082,0.453
				C442.346,772.127,442.481,772.559,442.481,773.131z M448.62,777.683c0-0.828-0.124-1.537-0.378-2.129
				c-0.25-0.595-0.601-1.047-1.045-1.361c-0.446-0.318-0.946-0.479-1.489-0.479c-0.862,0-1.594,0.341-2.184,1.018
				c-0.596,0.686-0.89,1.684-0.89,3.01c0,1.242,0.292,2.215,0.882,2.906c0.59,0.693,1.314,1.037,2.191,1.037
				c0.519,0,1.005-0.151,1.446-0.449c0.444-0.303,0.802-0.755,1.068-1.36C448.491,779.268,448.62,778.536,448.62,777.683z"/>
			<path style="fill:#3D3D3C;" d="M454.921,769.911c-0.438,0-0.806-0.138-1.114-0.402c-0.311-0.271-0.47-0.644-0.47-1.129
				c0-0.445,0.161-0.813,0.478-1.101c0.317-0.282,0.686-0.429,1.106-0.429c0.408,0,0.765,0.131,1.082,0.384
				c0.311,0.264,0.472,0.645,0.472,1.146c0,0.478-0.156,0.856-0.462,1.126C455.707,769.773,455.344,769.911,454.921,769.911z
				 M456.475,773.148v9.056c0,0.623-0.153,1.099-0.449,1.417c-0.302,0.326-0.679,0.483-1.141,0.483c-0.457,0-0.827-0.16-1.113-0.49
				c-0.289-0.335-0.435-0.802-0.435-1.41v-8.966c0-0.619,0.146-1.086,0.435-1.396c0.286-0.318,0.656-0.474,1.113-0.474
				c0.462,0,0.839,0.155,1.141,0.474C456.321,772.152,456.475,772.593,456.475,773.148z"/>
			<path style="fill:#3D3D3C;" d="M466.568,782.677l-2.761-4.55l-1.702,1.604v2.495c0,0.6-0.16,1.065-0.478,1.388
				c-0.311,0.33-0.681,0.49-1.093,0.49c-0.482,0-0.862-0.157-1.135-0.483c-0.276-0.318-0.416-0.794-0.416-1.417v-13.36
				c0-0.69,0.134-1.223,0.4-1.589c0.268-0.365,0.655-0.542,1.15-0.542c0.482,0,0.862,0.163,1.143,0.496
				c0.289,0.325,0.428,0.812,0.428,1.449v7.602l3.523-3.7c0.439-0.453,0.765-0.771,0.999-0.94c0.227-0.164,0.508-0.252,0.834-0.252
				c0.393,0,0.716,0.125,0.983,0.375c0.253,0.248,0.384,0.559,0.384,0.934c0,0.456-0.426,1.072-1.274,1.837l-1.66,1.523l3.214,5.051
				c0.23,0.378,0.405,0.655,0.507,0.851c0.107,0.195,0.157,0.391,0.157,0.56c0,0.5-0.135,0.887-0.408,1.18
				c-0.271,0.284-0.631,0.426-1.068,0.426c-0.389,0-0.682-0.096-0.893-0.31C467.201,783.585,466.918,783.212,466.568,782.677z"/>
			<path style="fill:#3D3D3C;" d="M473.371,784.104c-0.472,0-0.882-0.155-1.226-0.461c-0.344-0.301-0.518-0.731-0.518-1.283
				c0-0.469,0.169-0.87,0.494-1.204c0.332-0.335,0.737-0.504,1.218-0.504c0.482,0,0.889,0.169,1.236,0.497
				c0.337,0.334,0.512,0.741,0.512,1.211c0,0.545-0.175,0.974-0.512,1.281C474.228,783.949,473.828,784.104,473.371,784.104z"/>
			<path style="fill:#3D3D3C;" d="M488.943,780.227c0,0.388-0.115,0.807-0.35,1.252c-0.234,0.444-0.588,0.867-1.066,1.269
				c-0.479,0.399-1.076,0.725-1.808,0.967c-0.729,0.246-1.545,0.371-2.452,0.371c-1.938,0-3.448-0.566-4.539-1.691
				c-1.081-1.128-1.622-2.646-1.622-4.541c0-1.289,0.244-2.418,0.743-3.409c0.494-0.984,1.215-1.746,2.156-2.288
				c0.939-0.538,2.069-0.807,3.37-0.807c0.813,0,1.558,0.117,2.237,0.357c0.679,0.233,1.249,0.545,1.722,0.914
				c0.465,0.38,0.825,0.776,1.074,1.199c0.25,0.426,0.373,0.821,0.373,1.192c0,0.373-0.138,0.69-0.419,0.947
				c-0.28,0.265-0.618,0.394-1.014,0.394c-0.263,0-0.478-0.067-0.647-0.201c-0.176-0.135-0.367-0.351-0.58-0.653
				c-0.382-0.577-0.782-1.015-1.201-1.301c-0.416-0.295-0.947-0.44-1.591-0.44c-0.918,0-1.664,0.362-2.235,1.083
				c-0.566,0.722-0.849,1.714-0.849,2.964c0,0.591,0.076,1.136,0.22,1.628c0.143,0.489,0.35,0.912,0.629,1.259
				c0.279,0.35,0.607,0.61,0.997,0.793c0.394,0.184,0.821,0.271,1.284,0.271c0.633,0,1.165-0.146,1.613-0.436
				c0.457-0.289,0.85-0.734,1.191-1.334c0.192-0.348,0.397-0.62,0.614-0.82c0.224-0.2,0.499-0.303,0.818-0.303
				c0.387,0,0.701,0.148,0.953,0.438C488.819,779.59,488.943,779.901,488.943,780.227z"/>
			<path style="fill:#3D3D3C;" d="M502.461,777.74c0,0.931-0.148,1.792-0.431,2.582c-0.298,0.789-0.715,1.464-1.27,2.026
				c-0.545,0.567-1.208,1.001-1.97,1.304c-0.771,0.297-1.627,0.452-2.582,0.452c-0.949,0-1.801-0.155-2.56-0.461
				c-0.754-0.301-1.417-0.741-1.965-1.305c-0.556-0.577-0.979-1.25-1.271-2.029c-0.276-0.775-0.426-1.631-0.426-2.569
				c0-0.951,0.153-1.818,0.439-2.607c0.29-0.79,0.708-1.463,1.254-2.017c0.544-0.56,1.199-0.989,1.969-1.295
				c0.775-0.301,1.628-0.453,2.56-0.453c0.951,0,1.81,0.152,2.582,0.462c0.771,0.303,1.431,0.741,1.985,1.304
				c0.552,0.567,0.968,1.241,1.256,2.018C502.314,775.938,502.461,776.796,502.461,777.74z M499.317,777.74
				c0-1.279-0.285-2.269-0.845-2.984c-0.56-0.716-1.314-1.07-2.265-1.07c-0.614,0-1.151,0.162-1.621,0.478
				c-0.465,0.316-0.822,0.783-1.075,1.404c-0.251,0.623-0.383,1.344-0.383,2.173c0,0.818,0.124,1.531,0.373,2.139
				c0.253,0.619,0.607,1.086,1.072,1.409c0.465,0.321,1.009,0.49,1.634,0.49c0.951,0,1.705-0.361,2.265-1.077
				C499.032,779.985,499.317,778.997,499.317,777.74z"/>
			<path style="fill:#3D3D3C;" d="M514.405,777.972v4.16c0,0.661-0.147,1.148-0.447,1.483c-0.3,0.33-0.693,0.49-1.184,0.49
				c-0.472,0-0.862-0.16-1.147-0.49c-0.297-0.335-0.449-0.821-0.449-1.483v-4.988c0-0.789-0.025-1.401-0.075-1.84
				c-0.058-0.429-0.204-0.794-0.439-1.07c-0.233-0.278-0.611-0.421-1.123-0.421c-1.026,0-1.698,0.351-2.025,1.063
				c-0.323,0.696-0.488,1.707-0.488,3.026v4.23c0,0.651-0.149,1.142-0.441,1.477c-0.296,0.33-0.683,0.496-1.166,0.496
				c-0.475,0-0.861-0.166-1.162-0.496c-0.303-0.335-0.458-0.825-0.458-1.477v-8.962c0-0.586,0.138-1.037,0.409-1.34
				c0.274-0.31,0.631-0.462,1.073-0.462c0.432,0,0.786,0.149,1.076,0.433c0.285,0.288,0.427,0.679,0.427,1.189v0.294
				c0.549-0.645,1.126-1.125,1.748-1.429c0.619-0.309,1.303-0.462,2.063-0.462c0.789,0,1.467,0.157,2.031,0.47
				c0.567,0.315,1.031,0.789,1.401,1.421c0.525-0.638,1.094-1.115,1.696-1.429c0.609-0.309,1.273-0.462,2.009-0.462
				c0.856,0,1.598,0.173,2.216,0.504c0.62,0.339,1.078,0.823,1.382,1.445c0.271,0.57,0.403,1.459,0.403,2.679v6.111
				c0,0.661-0.15,1.148-0.443,1.483c-0.299,0.33-0.691,0.49-1.184,0.49c-0.473,0-0.863-0.166-1.165-0.496
				c-0.303-0.335-0.45-0.825-0.45-1.477v-5.268c0-0.673-0.03-1.209-0.089-1.614c-0.053-0.405-0.212-0.746-0.463-1.022
				c-0.256-0.272-0.638-0.414-1.149-0.414c-0.413,0-0.803,0.125-1.175,0.37c-0.37,0.242-0.659,0.573-0.869,0.982
				C514.521,775.69,514.405,776.629,514.405,777.972z"/>
			<g>
				<path style="fill-rule:evenodd;clip-rule:evenodd;fill:#3D3D3C;" d="M376.265,785.201c0,0-1.712-0.272-3.377-2.097
					c-1.68-1.839-1.963-3.789-1.963-3.789s2.13,0.504,3.662,0.67c2.695,0.307,5.124,0.137,6.27,0.014
					c2.48-0.273,3.799-0.731,4.333-0.864c3.169-0.757,6.213-2.809,6.213-2.809s0.384,2.38-1.407,5.02
					c-0.697,1.03-2.086,2.215-3.687,3.03C380.828,786.711,376.265,785.201,376.265,785.201z"/>
				<path style="fill-rule:evenodd;clip-rule:evenodd;fill:#3D3D3C;" d="M389.214,771.679c-0.592-0.714-2.553-4.078-6.523-4.56
					c-1.018-0.121-6.384,0.085-9.603,3.068c-0.321,0.299-1.956,1.736-2.5,4.408c-0.421,2.065,0.272,4.395,0.272,4.395
					s3.57,0.742,6.262,0.675c4.268-0.107,6.414-0.483,8.647-1.158c3.287-0.999,5.611-2.663,5.611-2.663
					S389.806,772.398,389.214,771.679z M376.897,776.796c-1.805,0.12-3.359-1.242-3.471-3.039c-0.114-1.79,1.26-3.345,3.064-3.455
					c1.807-0.125,3.362,1.244,3.47,3.035C380.078,775.133,378.702,776.683,376.897,776.796z M386.117,774.479
					c-1.137,0.067-2.116-0.786-2.187-1.919c-0.068-1.124,0.796-2.1,1.931-2.174c1.133-0.074,2.117,0.79,2.183,1.913
					C388.119,773.432,387.25,774.408,386.117,774.479z"/>
				<path style="fill-rule:evenodd;clip-rule:evenodd;fill:#3D3D3C;" d="M387.668,769.356l1.037-1.249c0,0,1.432,0.705,2.352,2.035
					c0.918,1.32,1.513,2.531,1.513,2.531l-1.71,1.041c0,0-0.531-1.276-1.326-2.302C388.743,770.394,387.668,769.356,387.668,769.356
					z"/>
				<path style="fill-rule:evenodd;clip-rule:evenodd;fill:#3D3D3C;" d="M390.925,770.219c0.267-0.161,0.72-0.183,0.692-0.567
					c-0.017-0.374-0.272-1.122,0.469-1.375c0.754-0.256,0.332,0.221,0.073,0.551c-0.259,0.328-0.175,0.529-0.142,1.016
					c0.027,0.476-0.311,0.637-0.82,0.872C390.691,770.959,390.658,770.378,390.925,770.219z"/>
				<path style="fill-rule:evenodd;clip-rule:evenodd;fill:#3D3D3C;" d="M371.899,770.982c0,0-1.2,1.396-1.506,2.655
					c-0.303,1.267-0.241,2.787-0.241,2.787l-1.781-0.612c0,0-0.1-1.747,0.706-3.161c0.904-1.566,2.054-2.273,2.054-2.273
					L371.899,770.982z"/>
				<path style="fill-rule:evenodd;clip-rule:evenodd;fill:#3D3D3C;" d="M369.284,772.571c-0.29-0.19-0.317-0.641-0.545-0.936
					c-0.228-0.299-0.285-0.118-0.806-0.118c-0.523-0.005-0.537-0.247-0.687-0.372c-0.147-0.13-0.216,0.391-0.216,0.391
					s0.097,0.445,0.656,0.477c0.555,0.037,0.541-0.238,0.781,0.263c0.239,0.506,0.716,0.89,0.716,0.89
					S369.576,772.759,369.284,772.571z"/>
				<path style="fill-rule:evenodd;clip-rule:evenodd;fill:#3D3D3C;" d="M378.719,765.948c2.916-0.73,4.741,0.112,4.741,0.112
					l-0.154,0.838c0,0-2.134-0.142-3.823,0.11c-1.688,0.241-2.456,0.773-2.456,0.773l-0.367-0.838
					C376.66,766.944,377.459,766.265,378.719,765.948z"/>
				<path style="fill-rule:evenodd;clip-rule:evenodd;fill:#3D3D3C;" d="M379.594,764.751l0.409-0.153l0.542,1.457l-0.408,0.151
					L379.594,764.751z"/>
				<path style="fill-rule:evenodd;clip-rule:evenodd;fill:#3D3D3C;" d="M392.44,767.451c0.414-0.023,0.764,0.289,0.79,0.702
					c0.027,0.409-0.286,0.761-0.698,0.785c-0.412,0.031-0.762-0.286-0.79-0.694C391.717,767.835,392.028,767.487,392.44,767.451z"/>
				<path style="fill-rule:evenodd;clip-rule:evenodd;fill:#3D3D3C;" d="M366.826,770.271c0.414-0.023,0.768,0.286,0.792,0.694
					c0.023,0.41-0.286,0.759-0.699,0.787c-0.412,0.029-0.763-0.283-0.794-0.692C366.103,770.651,366.417,770.302,366.826,770.271z"
					/>
				<path style="fill-rule:evenodd;clip-rule:evenodd;fill:#3D3D3C;" d="M379.95,762.894c0.655-0.041,1.22,0.45,1.259,1.105
					c0.042,0.649-0.457,1.211-1.113,1.254c-0.656,0.046-1.217-0.452-1.261-1.107C378.793,763.496,379.294,762.932,379.95,762.894z"
					/>
			</g>
		</g>
		<g>
			<path style="fill:#3D3D3C;" d="M286.781,782.381c0,0.735-0.462,1.218-1.102,1.218c-0.603,0-0.956-0.333-1.089-0.916
				c-0.414,0.672-1.26,1.004-2.006,1.004c-2.206,0-3.602-2.047-3.602-4.116c0-2.133,1.169-4.335,3.525-4.335
				c0.759,0,1.505,0.262,2.083,0.765v-2.984c0-0.724,0.453-1.21,1.089-1.21c0.639,0,1.102,0.486,1.102,1.21V782.381z
				 M282.871,777.244c-1.14,0-1.701,1.197-1.701,2.235c0,1.018,0.561,2.204,1.701,2.204c1.199,0,1.719-1.218,1.719-2.281
				C284.59,778.336,284.042,777.244,282.871,777.244z"/>
			<path style="fill:#3D3D3C;" d="M289.784,780.19c0.156,1.08,1.05,1.584,2.071,1.584c1.123,0,1.897-0.883,2.477-0.883
				c0.471,0,0.893,0.47,0.893,0.946c0,0.942-1.944,1.85-3.568,1.85c-2.463,0-4.105-1.795-4.105-4.207
				c0-2.219,1.612-4.244,3.921-4.244c2.369,0,3.939,2.164,3.939,3.984c0,0.654-0.29,0.97-0.96,0.97H289.784z M293.223,778.732
				c-0.122-0.961-0.73-1.667-1.75-1.667c-0.972,0-1.628,0.738-1.732,1.667H293.223z"/>
			<path style="fill:#3D3D3C;" d="M300.792,777.792c-0.412,0-1.249-0.639-1.963-0.639c-0.392,0-0.745,0.181-0.745,0.607
				c0,1.017,3.801,0.868,3.801,3.364c0,1.455-1.23,2.563-3.117,2.563c-1.23,0-3.053-0.697-3.053-1.684
				c0-0.336,0.334-0.973,0.942-0.973c0.849,0,1.23,0.743,2.264,0.743c0.669,0,0.868-0.212,0.868-0.624
				c0-1.004-3.803-0.85-3.803-3.357c0-1.519,1.233-2.557,2.962-2.557c1.082,0,2.739,0.507,2.739,1.586
				C301.686,777.319,301.306,777.792,300.792,777.792z"/>
			<path style="fill:#3D3D3C;" d="M304.954,773.245c0,0.689-0.545,1.262-1.232,1.262c-0.653,0-1.229-0.592-1.229-1.262
				c0-0.623,0.576-1.195,1.229-1.195C304.375,772.05,304.954,772.606,304.954,773.245z M302.629,776.547
				c0-0.731,0.455-1.218,1.093-1.218s1.095,0.486,1.095,1.218v5.834c0,0.735-0.457,1.218-1.095,1.218s-1.093-0.482-1.093-1.218
				V776.547z"/>
			<path style="fill:#3D3D3C;" d="M313.511,782.871c0,2.625-1.718,3.954-4.211,3.954c-0.896,0-3.451-0.444-3.451-1.648
				c0-0.409,0.456-0.957,0.884-0.957c0.699,0,1.473,0.681,2.733,0.681c1.064,0,1.855-0.616,1.855-1.731v-0.514h-0.031
				c-0.454,0.667-1.199,1.029-2.202,1.029c-2.295,0-3.378-2.02-3.378-4.19c0-2.207,1.4-4.261,3.605-4.261
				c0.745,0,1.594,0.336,2.005,1.003c0.138-0.576,0.485-0.909,1.094-0.909c0.638,0,1.094,0.486,1.094,1.218V782.871z
				 M309.602,777.244c-1.137,0-1.699,1.186-1.699,2.207c0,1.166,0.562,2.232,1.699,2.232c1.171,0,1.72-1.092,1.72-2.166
				C311.322,778.462,310.804,777.244,309.602,777.244z"/>
			<path style="fill:#3D3D3C;" d="M314.755,776.547c0-0.731,0.455-1.218,1.094-1.218c0.566,0,0.929,0.303,1.002,0.809
				c0.432-0.597,1.082-0.902,2.113-0.902c1.719,0,2.995,1.096,2.995,2.949v4.196c0,0.735-0.452,1.218-1.092,1.218
				c-0.638,0-1.097-0.482-1.097-1.218v-3.816c0-1.015-0.637-1.499-1.429-1.499c-0.892,0-1.396,0.652-1.396,1.499v3.816
				c0,0.735-0.459,1.218-1.097,1.218c-0.64,0-1.094-0.482-1.094-1.218V776.547z"/>
			<path style="fill:#3D3D3C;" d="M324.969,780.19c0.153,1.08,1.05,1.584,2.067,1.584c1.125,0,1.899-0.883,2.478-0.883
				c0.47,0,0.898,0.47,0.898,0.946c0,0.942-1.948,1.85-3.573,1.85c-2.465,0-4.104-1.795-4.104-4.207
				c0-2.219,1.611-4.244,3.923-4.244c2.37,0,3.933,2.164,3.933,3.984c0,0.654-0.288,0.97-0.956,0.97H324.969z M328.404,778.732
				c-0.122-0.961-0.728-1.667-1.746-1.667c-0.976,0-1.63,0.738-1.734,1.667H328.404z"/>
			<path style="fill:#3D3D3C;" d="M338.845,782.381c0,0.735-0.454,1.218-1.096,1.218c-0.605,0-0.956-0.333-1.091-0.916
				c-0.413,0.672-1.261,1.004-2.009,1.004c-2.203,0-3.598-2.047-3.598-4.116c0-2.133,1.168-4.335,3.525-4.335
				c0.758,0,1.502,0.262,2.082,0.765v-2.984c0-0.724,0.455-1.21,1.091-1.21c0.642,0,1.096,0.486,1.096,1.21V782.381z
				 M334.941,777.244c-1.14,0-1.702,1.197-1.702,2.235c0,1.018,0.562,2.204,1.702,2.204c1.198,0,1.717-1.218,1.717-2.281
				C336.658,778.336,336.112,777.244,334.941,777.244z"/>
			<path style="fill:#3D3D3C;" d="M344.164,773.016c0-0.724,0.459-1.21,1.099-1.21c0.635,0,1.09,0.486,1.09,1.21V776
				c0.581-0.503,1.323-0.765,2.082-0.765c2.358,0,3.527,2.202,3.527,4.335c0,2.069-1.397,4.116-3.603,4.116
				c-0.744,0-1.595-0.332-2.006-1.004c-0.137,0.583-0.484,0.916-1.09,0.916c-0.64,0-1.099-0.482-1.099-1.218V773.016z
				 M348.071,781.684c1.138,0,1.703-1.186,1.703-2.204c0-1.038-0.564-2.235-1.703-2.235c-1.17,0-1.718,1.092-1.718,2.158
				C346.352,780.466,346.872,781.684,348.071,781.684z"/>
			<path style="fill:#3D3D3C;" d="M352.341,776.832c-0.061-0.164-0.107-0.337-0.107-0.559c0-0.55,0.578-0.944,1.033-0.944
				c0.531,0,0.914,0.293,1.097,0.775l1.502,4.119l1.61-4.119c0.182-0.482,0.563-0.775,1.096-0.775c0.459,0,1.033,0.394,1.033,0.944
				c0,0.222-0.031,0.395-0.103,0.559l-3.664,9.123c-0.184,0.453-0.519,0.87-1.034,0.87c-0.742,0-1.142-0.479-1.142-0.945
				c0-0.217,0.062-0.444,0.136-0.641l0.961-2.368L352.341,776.832z"/>
		</g>
	</g>
</g>
<g id="Objects">
	<g>
		<g>
			<g>
				<g>
					<g>
						<path style="fill:#666666;" d="M440.088,355.065c0,2.153-1.748,3.899-3.902,3.899l0,0c-2.152,0-3.9-1.746-3.9-3.899V235.999
							c0-2.153,1.748-3.899,3.9-3.899l0,0c2.154,0,3.902,1.746,3.902,3.899V355.065z"/>
					</g>
				</g>
				<g>
					<g>
						<path style="fill:#666666;" d="M420.117,342.998c-2.154,0-3.9-1.745-3.9-3.899l0,0c0-2.155,1.746-3.9,3.9-3.9h134.76
							c2.15,0,3.898,1.745,3.898,3.9l0,0c0,2.154-1.748,3.899-3.898,3.899H420.117z"/>
					</g>
				</g>
			</g>
			<g>
				<g>
					<path style="fill:#666666;" d="M458.467,291.39c3.939,0,7.145,3.205,7.145,7.145c0,3.94-3.205,7.146-7.145,7.146
						c-3.94,0-7.147-3.206-7.147-7.146C451.32,294.595,454.526,291.39,458.467,291.39 M458.467,288.047
						c-5.793,0-10.49,4.695-10.49,10.488c0,5.792,4.697,10.489,10.49,10.489c5.791,0,10.488-4.697,10.488-10.489
						C468.955,292.742,464.258,288.047,458.467,288.047L458.467,288.047z"/>
				</g>
			</g>
			<g>
				<g>
					<path style="fill:#666666;" d="M484.299,260.642c3.939,0,7.145,3.205,7.145,7.145c0,3.941-3.205,7.147-7.145,7.147
						c-3.939,0-7.145-3.206-7.145-7.147C477.154,263.847,480.359,260.642,484.299,260.642 M484.299,257.299
						c-5.793,0-10.488,4.696-10.488,10.488c0,5.794,4.695,10.49,10.488,10.49c5.791,0,10.488-4.696,10.488-10.49
						C494.787,261.995,490.09,257.299,484.299,257.299L484.299,257.299z"/>
				</g>
			</g>
			<g>
				<g>
					<path style="fill:#666666;" d="M512.113,298.123c3.939,0,7.145,3.205,7.145,7.145c0,3.94-3.205,7.146-7.145,7.146
						c-3.939,0-7.145-3.206-7.145-7.146C504.969,301.328,508.174,298.123,512.113,298.123 M512.113,294.779
						c-5.793,0-10.488,4.695-10.488,10.488c0,5.792,4.695,10.489,10.488,10.489c5.793,0,10.488-4.697,10.488-10.489
						C522.602,299.475,517.906,294.779,512.113,294.779L512.113,294.779z"/>
				</g>
			</g>
			<g>
				<g>
					<path style="fill:#666666;" d="M537.924,257.461c3.94,0,7.147,3.206,7.147,7.146c0,3.94-3.206,7.145-7.147,7.145
						c-3.94,0-7.146-3.205-7.146-7.145C530.777,260.667,533.983,257.461,537.924,257.461 M537.924,254.118
						c-5.793,0-10.49,4.697-10.49,10.489c0,5.794,4.697,10.488,10.49,10.488c5.793,0,10.49-4.694,10.49-10.488
						C548.414,258.815,543.717,254.118,537.924,254.118L537.924,254.118z"/>
				</g>
			</g>
			<g>
				<g>
					
						<rect x="460.367" y="281.491" transform="matrix(0.68 -0.7332 0.7332 0.68 -56.7826 436.2153)" style="fill:#666666;" width="22.006" height="3.343"/>
				</g>
			</g>
			<g>
				<g>
					
						<rect x="496.628" y="272.322" transform="matrix(0.8471 -0.5314 0.5314 0.8471 -76.0726 308.6303)" style="fill:#666666;" width="3.343" height="28.383"/>
				</g>
			</g>
			<g>
				<g>
					
						<rect x="511.298" y="284.547" transform="matrix(0.4519 -0.8921 0.8921 0.4519 33.1444 626.3804)" style="fill:#666666;" width="29.99" height="3.343"/>
				</g>
			</g>
		</g>
		<g>
			<g>
				<g>
					<g>
						<path style="fill:#666666;" d="M73.323,355.065c0,2.153-1.745,3.899-3.9,3.899l0,0c-2.155,0-3.9-1.746-3.9-3.899V235.999
							c0-2.153,1.745-3.899,3.9-3.899l0,0c2.155,0,3.9,1.746,3.9,3.899V355.065z"/>
					</g>
				</g>
				<g>
					<g>
						<path style="fill:#666666;" d="M53.354,342.998c-2.153,0-3.9-1.745-3.9-3.899l0,0c0-2.155,1.747-3.9,3.9-3.9h134.758
							c2.153,0,3.9,1.745,3.9,3.9l0,0c0,2.154-1.747,3.899-3.9,3.899H53.354z"/>
					</g>
				</g>
			</g>
			<g>
				<g>
					<g>
						<polygon style="fill:#666666;" points="87.191,324.363 82.021,320.122 108.01,288.445 118.458,301.182 126.6,294.203 
							139.511,303.151 162.928,262.054 168.737,265.365 141.705,312.808 127.033,302.639 117.622,310.705 108.01,298.988 						"/>
					</g>
				</g>
				<g>
					<g>
						<g>
							<polygon style="fill:#666666;" points="171.626,269.706 171.534,253.705 157.722,261.783 							"/>
						</g>
					</g>
				</g>
			</g>
			<g>
				<g>
					<g>
						<path style="fill:#666666;" d="M95.891,337.288h-1.672v-0.418h1.672V337.288z M95.891,331.855h-1.672v-5.015h1.672V331.855z
							 M95.891,321.825h-1.672v-5.015h1.672V321.825z M95.891,311.795h-1.672v-5.015h1.672V311.795z M95.891,301.765h-1.672v-5.015
							h1.672V301.765z M95.891,291.735h-1.672v-5.015h1.672V291.735z M95.891,281.705h-1.672v-5.015h1.672V281.705z M95.891,271.675
							h-1.672v-5.015h1.672V271.675z M95.891,261.645h-1.672v-5.015h1.672V261.645z M95.891,251.614h-1.672V246.6h1.672V251.614z
							 M95.891,241.585h-1.672v-5.015h1.672V241.585z"/>
					</g>
				</g>
				<g>
					<g>
						<path style="fill:#666666;" d="M119.712,337.288h-1.672v-0.418h1.672V337.288z M119.712,331.855h-1.672v-5.015h1.672V331.855z
							 M119.712,321.825h-1.672v-5.015h1.672V321.825z M119.712,311.795h-1.672v-5.015h1.672V311.795z M119.712,301.765h-1.672
							v-5.015h1.672V301.765z M119.712,291.735h-1.672v-5.015h1.672V291.735z M119.712,281.705h-1.672v-5.015h1.672V281.705z
							 M119.712,271.675h-1.672v-5.015h1.672V271.675z M119.712,261.645h-1.672v-5.015h1.672V261.645z M119.712,251.614h-1.672
							V246.6h1.672V251.614z M119.712,241.585h-1.672v-5.015h1.672V241.585z"/>
					</g>
				</g>
				<g>
					<g>
						<path style="fill:#666666;" d="M143.533,337.288h-1.672v-0.418h1.672V337.288z M143.533,331.855h-1.672v-5.015h1.672V331.855z
							 M143.533,321.825h-1.672v-5.015h1.672V321.825z M143.533,311.795h-1.672v-5.015h1.672V311.795z M143.533,301.765h-1.672
							v-5.015h1.672V301.765z M143.533,291.735h-1.672v-5.015h1.672V291.735z M143.533,281.705h-1.672v-5.015h1.672V281.705z
							 M143.533,271.675h-1.672v-5.015h1.672V271.675z M143.533,261.645h-1.672v-5.015h1.672V261.645z M143.533,251.614h-1.672
							V246.6h1.672V251.614z M143.533,241.585h-1.672v-5.015h1.672V241.585z"/>
					</g>
				</g>
				<g>
					<g>
						<path style="fill:#666666;" d="M167.355,337.288h-1.672v-0.418h1.672V337.288z M167.355,331.855h-1.672v-5.015h1.672V331.855z
							 M167.355,321.825h-1.672v-5.015h1.672V321.825z M167.355,311.795h-1.672v-5.015h1.672V311.795z M167.355,301.765h-1.672
							v-5.015h1.672V301.765z M167.355,291.735h-1.672v-5.015h1.672V291.735z M167.355,281.705h-1.672v-5.015h1.672V281.705z
							 M167.355,271.675h-1.672v-5.015h1.672V271.675z M167.355,261.645h-1.672v-5.015h1.672V261.645z M167.355,251.614h-1.672
							V246.6h1.672V251.614z M167.355,241.585h-1.672v-5.015h1.672V241.585z"/>
					</g>
				</g>
			</g>
			<g>
				<g>
					<g>
						<path style="fill:#666666;" d="M181.54,261.344h-5.269v-1.672h5.269V261.344z M171.002,261.344h-5.269v-1.672h5.269V261.344z
							 M160.465,261.344h-5.269v-1.672h5.269V261.344z M149.927,261.344h-5.269v-1.672h5.269V261.344z M139.39,261.344h-5.269
							v-1.672h5.269V261.344z M128.852,261.344h-5.269v-1.672h5.269V261.344z M118.315,261.344h-5.269v-1.672h5.269V261.344z
							 M107.777,261.344h-5.269v-1.672h5.269V261.344z M97.24,261.344h-5.269v-1.672h5.269V261.344z M86.702,261.344h-5.269v-1.672
							h5.269V261.344z M76.165,261.344h-5.269v-1.672h5.269V261.344z"/>
					</g>
				</g>
				<g>
					<g>
						<path style="fill:#666666;" d="M181.54,285.165h-5.269v-1.672h5.269V285.165z M171.002,285.165h-5.269v-1.672h5.269V285.165z
							 M160.465,285.165h-5.269v-1.672h5.269V285.165z M149.927,285.165h-5.269v-1.672h5.269V285.165z M139.39,285.165h-5.269
							v-1.672h5.269V285.165z M128.852,285.165h-5.269v-1.672h5.269V285.165z M118.315,285.165h-5.269v-1.672h5.269V285.165z
							 M107.777,285.165h-5.269v-1.672h5.269V285.165z M97.24,285.165h-5.269v-1.672h5.269V285.165z M86.702,285.165h-5.269v-1.672
							h5.269V285.165z M76.165,285.165h-5.269v-1.672h5.269V285.165z"/>
					</g>
				</g>
				<g>
					<g>
						<path style="fill:#666666;" d="M181.54,308.987h-5.269v-1.672h5.269V308.987z M171.002,308.987h-5.269v-1.672h5.269V308.987z
							 M160.465,308.987h-5.269v-1.672h5.269V308.987z M149.927,308.987h-5.269v-1.672h5.269V308.987z M139.39,308.987h-5.269
							v-1.672h5.269V308.987z M128.852,308.987h-5.269v-1.672h5.269V308.987z M118.315,308.987h-5.269v-1.672h5.269V308.987z
							 M107.777,308.987h-5.269v-1.672h5.269V308.987z M97.24,308.987h-5.269v-1.672h5.269V308.987z M86.702,308.987h-5.269v-1.672
							h5.269V308.987z M76.165,308.987h-5.269v-1.672h5.269V308.987z"/>
					</g>
				</g>
				<g>
					<g>
						<path style="fill:#666666;" d="M181.54,332.809h-5.269v-1.672h5.269V332.809z M171.002,332.809h-5.269v-1.672h5.269V332.809z
							 M160.465,332.809h-5.269v-1.672h5.269V332.809z M149.927,332.809h-5.269v-1.672h5.269V332.809z M139.39,332.809h-5.269
							v-1.672h5.269V332.809z M128.852,332.809h-5.269v-1.672h5.269V332.809z M118.315,332.809h-5.269v-1.672h5.269V332.809z
							 M107.777,332.809h-5.269v-1.672h5.269V332.809z M97.24,332.809h-5.269v-1.672h5.269V332.809z M86.702,332.809h-5.269v-1.672
							h5.269V332.809z M76.165,332.809h-5.269v-1.672h5.269V332.809z"/>
					</g>
				</g>
			</g>
		</g>
		<g>
			<g>
				<g>
					<g>
						<path style="fill:#666666;" d="M256.705,355.065c0,2.153-1.745,3.899-3.9,3.899l0,0c-2.155,0-3.9-1.746-3.9-3.899V235.999
							c0-2.153,1.745-3.899,3.9-3.899l0,0c2.155,0,3.9,1.746,3.9,3.899V355.065z"/>
					</g>
				</g>
				<g>
					<g>
						<path style="fill:#666666;" d="M236.736,342.998c-2.153,0-3.9-1.745-3.9-3.899l0,0c0-2.155,1.747-3.9,3.9-3.9h134.758
							c2.153,0,3.9,1.745,3.9,3.9l0,0c0,2.154-1.747,3.899-3.9,3.899H236.736z"/>
					</g>
				</g>
			</g>
			<g>
				<g>
					<g>
						<polygon style="fill:#666666;" points="268.46,325.895 263.29,321.654 289.278,289.977 299.726,302.713 307.868,295.734 
							320.779,304.683 344.196,263.585 350.005,266.896 322.972,314.339 308.301,304.17 298.89,312.236 289.278,300.52 						"/>
					</g>
				</g>
				<g>
					<g>
						<g>
							<polygon style="fill:#666666;" points="352.894,271.237 352.802,255.236 338.989,263.314 							"/>
						</g>
					</g>
				</g>
			</g>
			<g>
				<g>
					<g>
						<polygon style="fill:#666666;" points="345.939,301.512 315.41,287.607 304.998,265.919 291.678,278.339 263.895,257.93 
							267.854,252.541 291.171,269.669 307.089,254.827 320.388,282.527 348.711,295.427 						"/>
					</g>
				</g>
				<g>
					<g>
						<g>
							<polygon style="fill:#666666;" points="341.877,304.782 357.805,303.244 348.511,290.218 							"/>
						</g>
					</g>
				</g>
			</g>
			<g>
				<g>
					<g>
						<path style="fill:#666666;" d="M364.398,317.505h-5.269v-1.672h5.269V317.505z M353.861,317.505h-5.268v-1.672h5.268V317.505z
							 M343.323,317.505h-5.268v-1.672h5.268V317.505z M332.786,317.505h-5.269v-1.672h5.269V317.505z M322.249,317.505h-5.269
							v-1.672h5.269V317.505z M311.711,317.505h-5.269v-1.672h5.269V317.505z M301.173,317.505h-5.268v-1.672h5.268V317.505z
							 M290.636,317.505h-5.269v-1.672h5.269V317.505z M280.099,317.505h-5.269v-1.672h5.269V317.505z M269.561,317.505h-5.269
							v-1.672h5.269V317.505z M259.023,317.505h-5.269v-1.672h5.269V317.505z"/>
					</g>
				</g>
				<g>
					<g>
						<path style="fill:#666666;" d="M364.398,293.684h-5.269v-1.672h5.269V293.684z M353.861,293.684h-5.268v-1.672h5.268V293.684z
							 M343.323,293.684h-5.268v-1.672h5.268V293.684z M332.786,293.684h-5.269v-1.672h5.269V293.684z M322.249,293.684h-5.269
							v-1.672h5.269V293.684z M311.711,293.684h-5.269v-1.672h5.269V293.684z M301.173,293.684h-5.268v-1.672h5.268V293.684z
							 M290.636,293.684h-5.269v-1.672h5.269V293.684z M280.099,293.684h-5.269v-1.672h5.269V293.684z M269.561,293.684h-5.269
							v-1.672h5.269V293.684z M259.023,293.684h-5.269v-1.672h5.269V293.684z"/>
					</g>
				</g>
				<g>
					<g>
						<path style="fill:#666666;" d="M364.398,269.862h-5.269v-1.672h5.269V269.862z M353.861,269.862h-5.268v-1.672h5.268V269.862z
							 M343.323,269.862h-5.268v-1.672h5.268V269.862z M332.786,269.862h-5.269v-1.672h5.269V269.862z M322.249,269.862h-5.269
							v-1.672h5.269V269.862z M311.711,269.862h-5.269v-1.672h5.269V269.862z M301.173,269.862h-5.268v-1.672h5.268V269.862z
							 M290.636,269.862h-5.269v-1.672h5.269V269.862z M280.099,269.862h-5.269v-1.672h5.269V269.862z M269.561,269.862h-5.269
							v-1.672h5.269V269.862z M259.023,269.862h-5.269v-1.672h5.269V269.862z"/>
					</g>
				</g>
				<g>
					<g>
						<path style="fill:#666666;" d="M364.398,246.041h-5.269v-1.672h5.269V246.041z M353.861,246.041h-5.268v-1.672h5.268V246.041z
							 M343.323,246.041h-5.268v-1.672h5.268V246.041z M332.786,246.041h-5.269v-1.672h5.269V246.041z M322.249,246.041h-5.269
							v-1.672h5.269V246.041z M311.711,246.041h-5.269v-1.672h5.269V246.041z M301.173,246.041h-5.268v-1.672h5.268V246.041z
							 M290.636,246.041h-5.269v-1.672h5.269V246.041z M280.099,246.041h-5.269v-1.672h5.269V246.041z M269.561,246.041h-5.269
							v-1.672h5.269V246.041z M259.023,246.041h-5.269v-1.672h5.269V246.041z"/>
					</g>
				</g>
			</g>
		</g>
		<g>
			<g>
				<g>
					<g>
						<path style="fill:#666666;" d="M623.469,355.065c0,2.153-1.748,3.899-3.902,3.899l0,0c-2.152,0-3.898-1.746-3.898-3.899
							V235.999c0-2.153,1.746-3.899,3.898-3.899l0,0c2.154,0,3.902,1.746,3.902,3.899V355.065z"/>
					</g>
				</g>
				<g>
					<g>
						<path style="fill:#666666;" d="M603.5,342.998c-2.154,0-3.902-1.745-3.902-3.899l0,0c0-2.155,1.748-3.9,3.902-3.9h134.758
							c2.152,0,3.9,1.745,3.9,3.9l0,0c0,2.154-1.748,3.899-3.9,3.899H603.5z"/>
					</g>
				</g>
			</g>
			<g>
				<g>
					<g>
						<path style="fill:#666666;" d="M709.902,337.265h-1.672v-5.015h1.672V337.265z M709.902,327.234h-1.672v-5.015h1.672V327.234z
							 M709.902,317.205h-1.672v-5.015h1.672V317.205z M709.902,307.174h-1.672v-5.015h1.672V307.174z M709.902,297.145h-1.672
							v-5.015h1.672V297.145z M709.902,287.114h-1.672v-5.015h1.672V287.114z M709.902,277.084h-1.672v-5.015h1.672V277.084z
							 M709.902,267.054h-1.672v-5.015h1.672V267.054z M709.902,257.024h-1.672v-5.015h1.672V257.024z M709.902,246.994h-1.672
							v-5.015h1.672V246.994z M709.902,236.964h-1.672v-0.418h1.672V236.964z"/>
					</g>
				</g>
				<g>
					<g>
						<path style="fill:#666666;" d="M686.082,337.265h-1.672v-5.015h1.672V337.265z M686.082,327.234h-1.672v-5.015h1.672V327.234z
							 M686.082,317.205h-1.672v-5.015h1.672V317.205z M686.082,307.174h-1.672v-5.015h1.672V307.174z M686.082,297.145h-1.672
							v-5.015h1.672V297.145z M686.082,287.114h-1.672v-5.015h1.672V287.114z M686.082,277.084h-1.672v-5.015h1.672V277.084z
							 M686.082,267.054h-1.672v-5.015h1.672V267.054z M686.082,257.024h-1.672v-5.015h1.672V257.024z M686.082,246.994h-1.672
							v-5.015h1.672V246.994z M686.082,236.964h-1.672v-0.418h1.672V236.964z"/>
					</g>
				</g>
				<g>
					<g>
						<path style="fill:#666666;" d="M662.26,337.265h-1.672v-5.015h1.672V337.265z M662.26,327.234h-1.672v-5.015h1.672V327.234z
							 M662.26,317.205h-1.672v-5.015h1.672V317.205z M662.26,307.174h-1.672v-5.015h1.672V307.174z M662.26,297.145h-1.672v-5.015
							h1.672V297.145z M662.26,287.114h-1.672v-5.015h1.672V287.114z M662.26,277.084h-1.672v-5.015h1.672V277.084z M662.26,267.054
							h-1.672v-5.015h1.672V267.054z M662.26,257.024h-1.672v-5.015h1.672V257.024z M662.26,246.994h-1.672v-5.015h1.672V246.994z
							 M662.26,236.964h-1.672v-0.418h1.672V236.964z"/>
					</g>
				</g>
				<g>
					<g>
						<path style="fill:#666666;" d="M638.44,337.265h-1.672v-5.015h1.672V337.265z M638.44,327.234h-1.672v-5.015h1.672V327.234z
							 M638.44,317.205h-1.672v-5.015h1.672V317.205z M638.44,307.174h-1.672v-5.015h1.672V307.174z M638.44,297.145h-1.672v-5.015
							h1.672V297.145z M638.44,287.114h-1.672v-5.015h1.672V287.114z M638.44,277.084h-1.672v-5.015h1.672V277.084z M638.44,267.054
							h-1.672v-5.015h1.672V267.054z M638.44,257.024h-1.672v-5.015h1.672V257.024z M638.44,246.994h-1.672v-5.015h1.672V246.994z
							 M638.44,236.964h-1.672v-0.418h1.672V236.964z"/>
					</g>
				</g>
			</g>
			<g>
				<g>
					<g>
						<path style="fill:#666666;" d="M733.226,314.162h-5.269v-1.672h5.269V314.162z M722.688,314.162h-5.27v-1.672h5.27V314.162z
							 M712.15,314.162h-5.269v-1.672h5.269V314.162z M701.613,314.162h-5.269v-1.672h5.269V314.162z M691.075,314.162h-5.269
							v-1.672h5.269V314.162z M680.538,314.162h-5.269v-1.672h5.269V314.162z M670.001,314.162h-5.27v-1.672h5.27V314.162z
							 M659.463,314.162h-5.269v-1.672h5.269V314.162z M648.926,314.162h-5.269v-1.672h5.269V314.162z M638.389,314.162h-5.27
							v-1.672h5.27V314.162z M627.851,314.162h-5.269v-1.672h5.269V314.162z"/>
					</g>
				</g>
				<g>
					<g>
						<path style="fill:#666666;" d="M733.226,290.341h-5.269v-1.672h5.269V290.341z M722.688,290.341h-5.27v-1.672h5.27V290.341z
							 M712.15,290.341h-5.269v-1.672h5.269V290.341z M701.613,290.341h-5.269v-1.672h5.269V290.341z M691.075,290.341h-5.269
							v-1.672h5.269V290.341z M680.538,290.341h-5.269v-1.672h5.269V290.341z M670.001,290.341h-5.27v-1.672h5.27V290.341z
							 M659.463,290.341h-5.269v-1.672h5.269V290.341z M648.926,290.341h-5.269v-1.672h5.269V290.341z M638.389,290.341h-5.27
							v-1.672h5.27V290.341z M627.851,290.341h-5.269v-1.672h5.269V290.341z"/>
					</g>
				</g>
				<g>
					<g>
						<path style="fill:#666666;" d="M733.226,266.519h-5.269v-1.672h5.269V266.519z M722.688,266.519h-5.27v-1.672h5.27V266.519z
							 M712.15,266.519h-5.269v-1.672h5.269V266.519z M701.613,266.519h-5.269v-1.672h5.269V266.519z M691.075,266.519h-5.269
							v-1.672h5.269V266.519z M680.538,266.519h-5.269v-1.672h5.269V266.519z M670.001,266.519h-5.27v-1.672h5.27V266.519z
							 M659.463,266.519h-5.269v-1.672h5.269V266.519z M648.926,266.519h-5.269v-1.672h5.269V266.519z M638.389,266.519h-5.27
							v-1.672h5.27V266.519z M627.851,266.519h-5.269v-1.672h5.269V266.519z"/>
					</g>
				</g>
				<g>
					<g>
						<path style="fill:#666666;" d="M733.226,242.697h-5.269v-1.672h5.269V242.697z M722.688,242.697h-5.27v-1.672h5.27V242.697z
							 M712.15,242.697h-5.269v-1.672h5.269V242.697z M701.613,242.697h-5.269v-1.672h5.269V242.697z M691.075,242.697h-5.269
							v-1.672h5.269V242.697z M680.538,242.697h-5.269v-1.672h5.269V242.697z M670.001,242.697h-5.27v-1.672h5.27V242.697z
							 M659.463,242.697h-5.269v-1.672h5.269V242.697z M648.926,242.697h-5.269v-1.672h5.269V242.697z M638.389,242.697h-5.27
							v-1.672h5.27V242.697z M627.851,242.697h-5.269v-1.672h5.269V242.697z"/>
					</g>
				</g>
			</g>
			<g>
				<g>
					<g>
						<path style="fill:#666666;" d="M644.445,326.891c-8.41,0-14.111-0.788-14.747-0.881l0.957-6.618
							c0.417,0.059,41.915,5.741,69.115-15.222c13.196-10.17,21.01-25.072,23.225-44.292l6.643,0.766
							c-2.431,21.097-11.117,37.531-25.816,48.846C684.708,324.203,659.967,326.891,644.445,326.891z"/>
					</g>
				</g>
				<g>
					<g>
						<g>
							<polygon style="fill:#666666;" points="734.649,263.359 727.005,247.801 717.352,262.2 							"/>
						</g>
					</g>
				</g>
			</g>
		</g>
		
			<radialGradient id="SVGID_00000088117254881544294610000011011887436501094584_" cx="120.7329" cy="374.8682" r="58.8804" gradientTransform="matrix(1 0 0 0.0696 0 348.7874)" gradientUnits="userSpaceOnUse">
			<stop  offset="0" style="stop-color:#000100"/>
			<stop  offset="1" style="stop-color:#000100;stop-opacity:0"/>
		</radialGradient>
		<path style="opacity:0.1;fill:url(#SVGID_00000088117254881544294610000011011887436501094584_);" d="M180.318,374.868
			c0,2.16-26.678,3.911-59.585,3.911c-32.909,0-59.586-1.751-59.586-3.911c0-2.16,26.677-3.911,59.586-3.911
			C153.641,370.957,180.318,372.708,180.318,374.868z"/>
		
			<radialGradient id="SVGID_00000148630968902280424610000010001597403707706760_" cx="305.7867" cy="374.8682" r="58.8804" gradientTransform="matrix(1 0 0 0.0696 0 348.7874)" gradientUnits="userSpaceOnUse">
			<stop  offset="0" style="stop-color:#000100"/>
			<stop  offset="1" style="stop-color:#000100;stop-opacity:0"/>
		</radialGradient>
		<path style="opacity:0.1;fill:url(#SVGID_00000148630968902280424610000010001597403707706760_);" d="M365.372,374.868
			c0,2.16-26.678,3.911-59.585,3.911c-32.909,0-59.586-1.751-59.586-3.911c0-2.16,26.677-3.911,59.586-3.911
			C338.694,370.957,365.372,372.708,365.372,374.868z"/>
		
			<radialGradient id="SVGID_00000167377164318818016180000001471345775428428218_" cx="490.8403" cy="374.8682" r="58.8804" gradientTransform="matrix(1 0 0 0.0696 0 348.7874)" gradientUnits="userSpaceOnUse">
			<stop  offset="0" style="stop-color:#000100"/>
			<stop  offset="1" style="stop-color:#000100;stop-opacity:0"/>
		</radialGradient>
		<path style="opacity:0.1;fill:url(#SVGID_00000167377164318818016180000001471345775428428218_);" d="M550.426,374.868
			c0,2.16-26.678,3.911-59.585,3.911c-32.909,0-59.586-1.751-59.586-3.911c0-2.16,26.677-3.911,59.586-3.911
			C523.748,370.957,550.426,372.708,550.426,374.868z"/>
		
			<radialGradient id="SVGID_00000087382519338604292440000015877791508215785861_" cx="675.894" cy="374.8682" r="58.8804" gradientTransform="matrix(1 0 0 0.0696 0 348.7874)" gradientUnits="userSpaceOnUse">
			<stop  offset="0" style="stop-color:#000100"/>
			<stop  offset="1" style="stop-color:#000100;stop-opacity:0"/>
		</radialGradient>
		<path style="opacity:0.1;fill:url(#SVGID_00000087382519338604292440000015877791508215785861_);" d="M735.479,374.868
			c0,2.16-26.678,3.911-59.585,3.911c-32.909,0-59.586-1.751-59.586-3.911c0-2.16,26.677-3.911,59.586-3.911
			C708.802,370.957,735.479,372.708,735.479,374.868z"/>
	</g>
	<g>
		<g>
			<g>
				<g>
					<g>
						<path style="fill:#666666;" d="M73.323,532.366c0,2.153-1.745,3.9-3.9,3.9l0,0c-2.155,0-3.9-1.747-3.9-3.9V413.302
							c0-2.153,1.745-3.9,3.9-3.9l0,0c2.155,0,3.9,1.747,3.9,3.9V532.366z"/>
					</g>
				</g>
				<g>
					<g>
						<path style="fill:#666666;" d="M53.354,520.301c-2.153,0-3.9-1.745-3.9-3.9l0,0c0-2.155,1.747-3.9,3.9-3.9h134.758
							c2.153,0,3.9,1.745,3.9,3.9l0,0c0,2.155-1.747,3.9-3.9,3.9H53.354z"/>
					</g>
				</g>
			</g>
			<g>
				<g>
					<path style="fill:#666666;" d="M91.923,418.628v83.236h-5.159v-83.236H91.923 M95.267,415.284H83.421v89.924h11.845V415.284
						L95.267,415.284z"/>
				</g>
			</g>
			<g>
				<g>
					<path style="fill:#666666;" d="M109.101,431.664v70.458h-5.672v-70.458H109.101 M112.188,428.578h-11.845v76.63h11.845V428.578
						L112.188,428.578z"/>
				</g>
			</g>
			<g>
				<g>
					<path style="fill:#666666;" d="M126.395,448.695v53.8h-6.418v-53.8H126.395 M129.108,445.982h-11.845v59.226h11.845V445.982
						L129.108,445.982z"/>
				</g>
			</g>
			<g>
				<g>
					<path style="fill:#666666;" d="M143.627,461.197v41.608h-7.042v-41.608H143.627 M146.029,458.795h-11.845v46.413h11.845
						V458.795L146.029,458.795z"/>
				</g>
			</g>
			<g>
				<g>
					<path style="fill:#666666;" d="M160.024,439.24v63.041h-5.993V439.24H160.024 M162.95,436.314h-11.845v68.895h11.845V436.314
						L162.95,436.314z"/>
				</g>
			</g>
			<g>
				<g>
					<path style="fill:#666666;" d="M177.158,448.695v53.8h-6.418v-53.8H177.158 M179.871,445.982h-11.845v59.226h11.845V445.982
						L179.871,445.982z"/>
				</g>
			</g>
		</g>
		<g>
			<g>
				<g>
					<g>
						<path style="fill:#666666;" d="M440.086,532.366c0,2.153-1.746,3.9-3.9,3.9l0,0c-2.154,0-3.9-1.747-3.9-3.9V413.302
							c0-2.153,1.746-3.9,3.9-3.9l0,0c2.154,0,3.9,1.747,3.9,3.9V532.366z"/>
					</g>
				</g>
				<g>
					<g>
						<path style="fill:#666666;" d="M420.115,520.301c-2.152,0-3.898-1.745-3.898-3.9l0,0c0-2.155,1.746-3.9,3.898-3.9h134.76
							c2.154,0,3.9,1.745,3.9,3.9l0,0c0,2.155-1.746,3.9-3.9,3.9H420.115z"/>
					</g>
				</g>
			</g>
			<g>
				<g>
					<rect x="452.346" y="486.362" style="fill:#666666;" width="10.682" height="17.646"/>
				</g>
			</g>
			<g>
				<g>
					<path style="fill:#666666;" d="M492.486,489.706v10.958H468.06v-10.958H492.486 M495.83,486.362h-31.113v17.646h31.113V486.362
						L495.83,486.362z"/>
				</g>
			</g>
			<g>
				<g>
					<rect x="497.891" y="486.362" style="fill:#666666;" width="57.166" height="17.646"/>
				</g>
			</g>
			<g>
				<g>
					<rect x="452.346" y="463.504" style="fill:#666666;" width="31.863" height="17.646"/>
				</g>
			</g>
			<g>
				<g>
					<path style="fill:#666666;" d="M510.666,466.848v10.959h-21.428v-10.959H510.666 M514.01,463.504h-28.115v17.646h28.115
						V463.504L514.01,463.504z"/>
				</g>
			</g>
			<g>
				<g>
					<rect x="516.07" y="463.504" style="fill:#666666;" width="38.986" height="17.646"/>
				</g>
			</g>
			<g>
				<g>
					<path style="fill:#666666;" d="M551.713,443.991v10.958h-1.936v-10.958H551.713 M555.057,440.647h-8.623v17.646h8.623V440.647
						L555.057,440.647z"/>
				</g>
			</g>
			<g>
				<g>
					<rect x="491.707" y="440.647" style="fill:#666666;" width="52.853" height="17.646"/>
				</g>
			</g>
			<g>
				<g>
					<rect x="452.346" y="440.647" style="fill:#666666;" width="37.672" height="17.646"/>
				</g>
			</g>
			<g>
				<g>
					<path style="fill:#666666;" d="M505.98,421.133v10.959H477.43v-10.959H505.98 M509.324,417.789h-35.238v17.646h35.238V417.789
						L509.324,417.789z"/>
				</g>
			</g>
			<g>
				<g>
					<rect x="511.76" y="417.789" style="fill:#666666;" width="43.297" height="17.646"/>
				</g>
			</g>
			<g>
				<g>
					<rect x="452.346" y="417.789" style="fill:#666666;" width="19.117" height="17.646"/>
				</g>
			</g>
		</g>
		<g>
			<g>
				<g>
					<g>
						<path style="fill:#666666;" d="M623.467,532.366c0,2.153-1.744,3.9-3.898,3.9l0,0c-2.154,0-3.902-1.747-3.902-3.9V413.302
							c0-2.153,1.748-3.9,3.902-3.9l0,0c2.154,0,3.898,1.747,3.898,3.9V532.366z"/>
					</g>
				</g>
				<g>
					<g>
						<path style="fill:#666666;" d="M603.498,520.301c-2.152,0-3.898-1.745-3.898-3.9l0,0c0-2.155,1.746-3.9,3.898-3.9h134.76
							c2.152,0,3.899,1.745,3.899,3.9l0,0c0,2.155-1.746,3.9-3.899,3.9H603.498z"/>
					</g>
				</g>
			</g>
			<g>
				<g>
					<path style="fill:#666666;" d="M645.861,417.784v24.427H634.9v-24.427H645.861 M649.205,414.44h-17.648v31.114h17.648V414.44
						L649.205,414.44z"/>
				</g>
			</g>
			<g>
				<g>
					<rect x="631.557" y="447.617" style="fill:#666666;" width="17.649" height="57.166"/>
				</g>
			</g>
			<g>
				<g>
					<path style="fill:#666666;" d="M668.719,438.965v21.428H657.76v-21.428H668.719 M672.063,435.621h-17.646v28.115h17.646
						V435.621L672.063,435.621z"/>
				</g>
			</g>
			<g>
				<g>
					<rect x="654.416" y="465.798" style="fill:#666666;" width="17.646" height="38.985"/>
				</g>
			</g>
			<g>
				<g>
					<path style="fill:#666666;" d="M691.574,444.775v1.935h-10.957v-1.935H691.574 M694.918,441.432h-17.645v8.622h17.645V441.432
						L694.918,441.432z"/>
				</g>
			</g>
			<g>
				<g>
					<rect x="677.273" y="451.928" style="fill:#666666;" width="17.645" height="52.855"/>
				</g>
			</g>
			<g>
				<g>
					<path style="fill:#666666;" d="M714.432,427.157v28.55h-10.955v-28.55H714.432 M717.775,423.814h-17.643v35.237h17.643V423.814
						L717.775,423.814z"/>
				</g>
			</g>
			<g>
				<g>
					<rect x="700.133" y="461.486" style="fill:#666666;" width="17.643" height="43.297"/>
				</g>
			</g>
		</g>
		<g>
			<g>
				<g>
					<path style="fill:#666666;" d="M256.705,532.366c0,2.153-1.745,3.9-3.9,3.9l0,0c-2.155,0-3.9-1.747-3.9-3.9V413.302
						c0-2.153,1.745-3.9,3.9-3.9l0,0c2.155,0,3.9,1.747,3.9,3.9V532.366z"/>
				</g>
				<g>
					<path style="fill:#666666;" d="M236.736,520.301c-2.153,0-3.9-1.745-3.9-3.9l0,0c0-2.155,1.747-3.9,3.9-3.9h134.758
						c2.153,0,3.9,1.745,3.9,3.9l0,0c0,2.155-1.747,3.9-3.9,3.9H236.736z"/>
				</g>
			</g>
			<g>
				<rect x="266.108" y="425.4" style="fill:#666666;" width="10.007" height="79.1"/>
			</g>
			<g>
				<rect x="279.772" y="449.264" style="fill:#666666;" width="10.009" height="55.236"/>
			</g>
			<g>
				<rect x="293.438" y="458.31" style="fill:#666666;" width="10.007" height="46.19"/>
			</g>
			<g>
				<rect x="320.767" y="469.665" style="fill:#666666;" width="10.007" height="34.835"/>
			</g>
			<g>
				<rect x="334.431" y="417.894" style="fill:#666666;" width="10.009" height="86.606"/>
			</g>
			<g>
				<rect x="348.097" y="439.835" style="fill:#666666;" width="10.007" height="64.665"/>
			</g>
		</g>
		
			<radialGradient id="SVGID_00000070812757909189521310000014542952109201989295_" cx="120.7329" cy="552.7109" r="58.8804" gradientTransform="matrix(1 0 0 0.0696 0 514.2572)" gradientUnits="userSpaceOnUse">
			<stop  offset="0" style="stop-color:#000100"/>
			<stop  offset="1" style="stop-color:#000100;stop-opacity:0"/>
		</radialGradient>
		<path style="opacity:0.1;fill:url(#SVGID_00000070812757909189521310000014542952109201989295_);" d="M180.318,552.711
			c0,2.16-26.678,3.911-59.585,3.911c-32.909,0-59.586-1.751-59.586-3.911c0-2.16,26.677-3.911,59.586-3.911
			C153.641,548.8,180.318,550.551,180.318,552.711z"/>
		
			<radialGradient id="SVGID_00000046341923899582824560000015258257969631947440_" cx="305.7867" cy="552.7109" r="58.8804" gradientTransform="matrix(1 0 0 0.0696 0 514.2572)" gradientUnits="userSpaceOnUse">
			<stop  offset="0" style="stop-color:#000100"/>
			<stop  offset="1" style="stop-color:#000100;stop-opacity:0"/>
		</radialGradient>
		<path style="opacity:0.1;fill:url(#SVGID_00000046341923899582824560000015258257969631947440_);" d="M365.372,552.711
			c0,2.16-26.678,3.911-59.585,3.911c-32.909,0-59.586-1.751-59.586-3.911c0-2.16,26.677-3.911,59.586-3.911
			C338.694,548.8,365.372,550.551,365.372,552.711z"/>
		
			<radialGradient id="SVGID_00000160892864212987293030000017656934043967985294_" cx="490.8403" cy="552.7109" r="58.8804" gradientTransform="matrix(1 0 0 0.0696 0 514.2572)" gradientUnits="userSpaceOnUse">
			<stop  offset="0" style="stop-color:#000100"/>
			<stop  offset="1" style="stop-color:#000100;stop-opacity:0"/>
		</radialGradient>
		<path style="opacity:0.1;fill:url(#SVGID_00000160892864212987293030000017656934043967985294_);" d="M550.426,552.711
			c0,2.16-26.678,3.911-59.585,3.911c-32.909,0-59.586-1.751-59.586-3.911c0-2.16,26.677-3.911,59.586-3.911
			C523.748,548.8,550.426,550.551,550.426,552.711z"/>
		
			<radialGradient id="SVGID_00000181769672206730112150000015320542654087861425_" cx="675.894" cy="552.7109" r="58.8804" gradientTransform="matrix(1 0 0 0.0696 0 514.2572)" gradientUnits="userSpaceOnUse">
			<stop  offset="0" style="stop-color:#000100"/>
			<stop  offset="1" style="stop-color:#000100;stop-opacity:0"/>
		</radialGradient>
		<path style="opacity:0.1;fill:url(#SVGID_00000181769672206730112150000015320542654087861425_);" d="M735.479,552.711
			c0,2.16-26.678,3.911-59.585,3.911c-32.909,0-59.586-1.751-59.586-3.911c0-2.16,26.677-3.911,59.586-3.911
			C708.802,548.8,735.479,550.551,735.479,552.711z"/>
	</g>
	<g>
		<g>
			<g>
				<g>
					<polygon style="fill:#666666;" points="706.092,668.408 706.092,677.08 710.23,671.451 					"/>
				</g>
				<g>
					<polygon style="fill:#666666;" points="609.715,709.776 627.959,709.776 627.959,611.846 609.715,598.372 					"/>
				</g>
				<g>
					<polygon style="fill:#666666;" points="642.385,622.496 635.76,617.602 635.76,709.776 654.004,709.776 654.004,671.968 
						653.639,672.346 					"/>
				</g>
				<g>
					<polygon style="fill:#666666;" points="661.803,663.87 661.803,709.776 680.049,709.776 680.049,649.246 677.611,647.454 					
						"/>
				</g>
				<g>
					<polygon style="fill:#666666;" points="706.092,668.408 687.846,654.982 687.846,709.776 706.092,709.776 					"/>
				</g>
			</g>
			<g>
				<polygon style="fill:#666666;" points="733.66,679.352 724.299,657.977 719.859,664.007 676.293,631.955 660.271,648.59 
					652.838,615.669 613.059,586.296 608.096,593.019 645.371,620.544 655.533,665.558 677.234,643.026 714.906,670.739 
					710.467,676.773 				"/>
			</g>
		</g>
		<g>
			<g>
				<g>
					<polygon style="fill:#666666;" points="437.332,658.127 437.332,709.776 455.578,709.776 455.578,647.545 451.916,643.157 
											"/>
				</g>
				<g>
					<polygon style="fill:#666666;" points="463.375,709.776 481.623,709.776 481.623,678.742 463.375,656.887 					"/>
				</g>
				<g>
					<polygon style="fill:#666666;" points="489.42,663.476 489.42,709.776 507.666,709.776 507.666,633.97 494.836,640.056 					
						"/>
				</g>
				<g>
					<polygon style="fill:#666666;" points="515.463,709.776 533.709,709.776 533.709,621.621 515.463,630.273 					"/>
				</g>
			</g>
			<g>
				<polygon style="fill:#666666;" points="532.102,609.433 484.711,631.905 478.865,657.181 452.586,625.702 422.84,656.887 
					428.826,662.718 452.107,638.171 483.221,675.441 491.943,637.727 535.682,616.984 538.893,623.753 552.152,604.551 
					528.893,602.665 				"/>
			</g>
		</g>
		<g>
			<g>
				<g>
					<path style="fill:#666666;" d="M73.323,705.874c0,2.155-1.745,3.902-3.9,3.902l0,0c-2.155,0-3.9-1.747-3.9-3.902V586.81
						c0-2.153,1.745-3.9,3.9-3.9l0,0c2.155,0,3.9,1.747,3.9,3.9V705.874z"/>
				</g>
				<g>
					<path style="fill:#666666;" d="M53.354,693.81c-2.153,0-3.9-1.747-3.9-3.902l0,0c0-2.154,1.747-3.898,3.9-3.898h134.758
						c2.153,0,3.9,1.744,3.9,3.898l0,0c0,2.155-1.747,3.902-3.9,3.902H53.354z"/>
				</g>
			</g>
			<g>
				<g>
					<polygon style="fill:#666666;" points="148.832,623.019 139.116,623.019 138.569,624.735 152.282,624.735 					"/>
				</g>
				<g>
					<polygon style="fill:#666666;" points="86.698,663.857 89.155,661.826 80.38,661.826 80.38,678.654 185.593,678.654 
						185.593,661.826 99.655,661.826 90.956,669.013 					"/>
				</g>
				<g>
					<polygon style="fill:#666666;" points="80.38,643.281 80.38,660.108 91.234,660.108 111.613,643.281 					"/>
				</g>
				<g>
					<polygon style="fill:#666666;" points="125.647,643.281 115.394,643.281 124.203,647.822 					"/>
				</g>
				<g>
					<polygon style="fill:#666666;" points="113.923,650.046 101.735,660.108 185.593,660.108 185.593,643.281 132.664,643.281 
						128.175,657.39 					"/>
				</g>
				<g>
					<polygon style="fill:#666666;" points="152.282,624.735 138.569,624.735 133.211,641.563 185.593,641.563 185.593,624.735 
						166.672,624.735 163.357,630.251 					"/>
				</g>
				<g>
					<polygon style="fill:#666666;" points="80.38,624.735 80.38,641.563 126.194,641.563 131.551,624.735 					"/>
				</g>
				<g>
					<polygon style="fill:#666666;" points="174.703,611.382 167.706,623.019 185.593,623.019 185.593,606.19 179.119,606.19 
						178.981,613.955 					"/>
				</g>
				<g>
					<polygon style="fill:#666666;" points="160.808,621.514 168.973,607.938 166.068,606.19 80.38,606.19 80.38,623.019 
						132.098,623.019 136.44,609.377 					"/>
				</g>
				<g>
					<polygon style="fill:#666666;" points="140.444,618.843 139.116,623.019 148.832,623.019 					"/>
				</g>
				<g>
					<polygon style="fill:#666666;" points="179.149,604.473 185.593,604.473 185.593,587.644 80.38,587.644 80.38,604.473 
						166.303,604.473 179.277,597.289 					"/>
				</g>
			</g>
		</g>
		<g>
			<g>
				<g>
					<g>
						<polygon style="fill:#666666;" points="252.638,671.302 330.841,671.302 313.953,642.05 269.526,642.05 						"/>
					</g>
				</g>
				<g>
					<g>
						<path style="fill:#666666;" d="M291.74,610.263l14.576,25.244h-29.15L291.74,610.263 M291.74,603.576l-20.365,35.274h40.732
							L291.74,603.576L291.74,603.576z"/>
					</g>
				</g>
				<g>
					<g>
						<path style="fill:#666666;" d="M330.759,677.845l16.505,28.588H236.217l16.505-28.588H330.759 M332.689,674.501h-81.898
							l-20.365,35.275h122.628L332.689,674.501L332.689,674.501z"/>
					</g>
				</g>
			</g>
			<g>
				
					<text transform="matrix(1 0 0 1 315.9653 605.9814)" style="fill:#666666; font-family:'AutourOne-Regular'; font-size:14.4892px;">%</text>
				<g>
					<path style="fill:#666666;" d="M306.525,621.693c-0.428,0-0.855-0.163-1.182-0.489c-0.653-0.653-0.653-1.712,0-2.364
						l9.516-9.518h19.419c0.923,0,1.672,0.749,1.672,1.672c0,0.923-0.748,1.672-1.672,1.672h-18.034l-8.536,8.538
						C307.381,621.53,306.953,621.693,306.525,621.693z"/>
				</g>
			</g>
			<g>
				
					<text transform="matrix(1 0 0 1 340.2822 641.9946)" style="fill:#666666; font-family:'AutourOne-Regular'; font-size:14.4892px;">%</text>
				<g>
					<path style="fill:#666666;" d="M330.841,657.706c-0.428,0-0.855-0.163-1.182-0.49c-0.653-0.652-0.653-1.711,0-2.363
						l9.518-9.517h19.417c0.923,0,1.672,0.749,1.672,1.672c0,0.923-0.749,1.672-1.672,1.672h-18.032l-8.538,8.537
						C331.697,657.543,331.269,657.706,330.841,657.706z"/>
				</g>
			</g>
			<g>
				
					<text transform="matrix(1 0 0 1 359.4922 678.0981)" style="fill:#666666; font-family:'AutourOne-Regular'; font-size:14.4892px;">%</text>
				<g>
					<path style="fill:#666666;" d="M350.051,693.81c-0.428,0-0.855-0.163-1.182-0.49c-0.653-0.652-0.653-1.711,0-2.363l9.518-9.518
						h19.417c0.923,0,1.672,0.749,1.672,1.672c0,0.923-0.749,1.672-1.672,1.672h-18.032l-8.538,8.538
						C350.906,693.648,350.478,693.81,350.051,693.81z"/>
				</g>
			</g>
		</g>
		
			<radialGradient id="SVGID_00000017474155081483768460000017281278660474169277_" cx="120.7329" cy="734.3467" r="58.8804" gradientTransform="matrix(1 0 0 0.0696 0 683.2559)" gradientUnits="userSpaceOnUse">
			<stop  offset="0" style="stop-color:#000100"/>
			<stop  offset="1" style="stop-color:#000100;stop-opacity:0"/>
		</radialGradient>
		<path style="opacity:0.1;fill:url(#SVGID_00000017474155081483768460000017281278660474169277_);" d="M180.318,734.347
			c0,2.16-26.678,3.911-59.585,3.911c-32.909,0-59.586-1.751-59.586-3.911c0-2.16,26.677-3.911,59.586-3.911
			C153.641,730.435,180.318,732.187,180.318,734.347z"/>
		
			<radialGradient id="SVGID_00000134947597088915521790000002989706436919992481_" cx="297.9507" cy="734.3467" r="58.8804" gradientTransform="matrix(1 0 0 0.0696 0 683.2559)" gradientUnits="userSpaceOnUse">
			<stop  offset="0" style="stop-color:#000100"/>
			<stop  offset="1" style="stop-color:#000100;stop-opacity:0"/>
		</radialGradient>
		<path style="opacity:0.1;fill:url(#SVGID_00000134947597088915521790000002989706436919992481_);" d="M357.536,734.347
			c0,2.16-26.678,3.911-59.585,3.911c-32.909,0-59.586-1.751-59.586-3.911c0-2.16,26.677-3.911,59.586-3.911
			C330.858,730.435,357.536,732.187,357.536,734.347z"/>
		
			<radialGradient id="SVGID_00000155863619114369166290000003675458637745657498_" cx="490.8403" cy="734.3467" r="58.8804" gradientTransform="matrix(1 0 0 0.0696 0 683.2559)" gradientUnits="userSpaceOnUse">
			<stop  offset="0" style="stop-color:#000100"/>
			<stop  offset="1" style="stop-color:#000100;stop-opacity:0"/>
		</radialGradient>
		<path style="opacity:0.1;fill:url(#SVGID_00000155863619114369166290000003675458637745657498_);" d="M550.426,734.347
			c0,2.16-26.678,3.911-59.585,3.911c-32.909,0-59.586-1.751-59.586-3.911c0-2.16,26.677-3.911,59.586-3.911
			C523.748,730.435,550.426,732.187,550.426,734.347z"/>
		
			<radialGradient id="SVGID_00000007406673426754427300000012092156804596674692_" cx="665.894" cy="734.3467" r="58.8804" gradientTransform="matrix(1 0 0 0.0696 0 683.2559)" gradientUnits="userSpaceOnUse">
			<stop  offset="0" style="stop-color:#000100"/>
			<stop  offset="1" style="stop-color:#000100;stop-opacity:0"/>
		</radialGradient>
		<path style="opacity:0.1;fill:url(#SVGID_00000007406673426754427300000012092156804596674692_);" d="M725.479,734.347
			c0,2.16-26.678,3.911-59.585,3.911c-32.909,0-59.586-1.751-59.586-3.911c0-2.16,26.677-3.911,59.586-3.911
			C698.802,730.435,725.479,732.187,725.479,734.347z"/>
	</g>
	<g>
		<g>
			<g>
				<g>
					<path style="fill:#666666;" d="M309.13,70.081c12.799,1.274,24.471,7.39,32.822,17.195l-16.541,11.443
						c-4.39-4.481-10.099-7.471-16.281-8.525V70.081 M305.787,66.515v26.651c7.735,0.484,14.562,4.271,19.085,9.992l21.919-15.164
						C337.431,75.356,322.593,67.036,305.787,66.515L305.787,66.515z"/>
				</g>
			</g>
			<g>
				<g>
					<path style="fill:#666666;" d="M285.617,100.635c4.398-4.302,10.291-7.06,16.826-7.469V66.515
						c-14.382,0.446-27.315,6.607-36.614,16.296L285.617,100.635z"/>
				</g>
			</g>
			<g>
				<g>
					<path style="fill:#666666;" d="M326.768,105.91c2.405,3.987,3.815,8.642,3.815,13.639c0,14.617-11.85,26.468-26.468,26.468
						c-5.313,0-10.249-1.581-14.395-4.276l-15.882,21.393c8.589,5.977,19.02,9.491,30.276,9.491
						c29.314,0,53.076-23.763,53.076-53.075c0-10.621-3.132-20.505-8.504-28.803L326.768,105.91z"/>
				</g>
			</g>
			<g>
				<g>
					<path style="fill:#666666;" d="M264.002,90.165l14.931,13.45c-3.038,4.765-4.629,10.215-4.629,15.934
						c0,7.72,2.983,15.068,8.276,20.595l-11.978,16.133c-10.35-9.427-16.219-22.628-16.219-36.729
						C254.382,108.966,257.777,98.658,264.002,90.165 M263.588,85.292c-7.823,9.245-12.549,21.196-12.549,34.257
						c0,16.855,7.867,31.864,20.119,41.588l15.878-21.386c-5.737-4.856-9.389-12.099-9.389-20.202c0-6.21,2.155-11.909,5.737-16.425
						L263.588,85.292L263.588,85.292z"/>
				</g>
			</g>
		</g>
		<g>
			<g>
				<g>
					<g>
						<path style="fill:#666666;" d="M117.752,130.249l40.951-15.245c-6.718-16.493-22.9-28.123-41.808-28.123
							c-4.351,0-8.552,0.628-12.532,1.775L117.752,130.249z"/>
					</g>
				</g>
				<g>
					<g>
						<path style="fill:#666666;" d="M164.449,144.491c0.606-2.95,0.926-6.003,0.926-9.132c0-5.063-0.846-9.926-2.383-14.469
							l-38.096,14.183L164.449,144.491z"/>
					</g>
				</g>
				<g>
					<g>
						<path style="fill:#666666;" d="M115.28,136.767l-42.592,13.698c6.214,17.497,22.908,30.029,42.537,30.029
							c20.855,0,38.397-14.146,43.575-33.366L115.28,136.767z"/>
					</g>
				</g>
				<g>
					<g>
						<path style="fill:#666666;" d="M96.353,95.595l11.285,35.059l-35.055,11.274c-0.546-2.715-0.823-5.474-0.823-8.24
							C71.76,117.201,81.512,102.302,96.353,95.595 M98.436,91.154c-17.491,6.219-30.019,22.909-30.019,42.533
							c0,4.346,0.627,8.545,1.774,12.521l41.654-13.396L98.436,91.154L98.436,91.154z"/>
					</g>
				</g>
			</g>
			<g>
				
					<text transform="matrix(1 0 0 1 45.3276 84.1338)" style="fill:#666666; font-family:'AutourOne-Regular'; font-size:14.4892px;">%</text>
				<g>
					<path style="fill:#666666;" d="M74.826,99.846c-0.428,0-0.855-0.164-1.182-0.49l-8.537-8.538H47.074
						c-0.923,0-1.672-0.749-1.672-1.672c0-0.923,0.748-1.672,1.672-1.672h19.418l9.517,9.517c0.653,0.653,0.653,1.711,0,2.364
						C75.682,99.682,75.254,99.846,74.826,99.846z"/>
				</g>
			</g>
			<g>
				
					<text transform="matrix(1 0 0 1 177.8271 105.4165)" style="fill:#666666; font-family:'AutourOne-Regular'; font-size:14.4892px;">%</text>
				<g>
					<path style="fill:#666666;" d="M168.387,121.129c-0.428,0-0.855-0.164-1.182-0.49c-0.653-0.653-0.653-1.712,0-2.364
						l9.517-9.517h19.418c0.923,0,1.672,0.749,1.672,1.672c0,0.923-0.748,1.672-1.672,1.672h-18.033l-8.537,8.538
						C169.243,120.965,168.815,121.129,168.387,121.129z"/>
				</g>
			</g>
			<g>
				
					<text transform="matrix(1 0 0 1 146.3921 71.4116)" style="fill:#666666; font-family:'AutourOne-Regular'; font-size:14.4892px;">%</text>
				<g>
					<path style="fill:#666666;" d="M136.952,87.124c-0.428,0-0.855-0.164-1.182-0.49c-0.653-0.653-0.653-1.711,0-2.364l9.517-9.517
						h19.418c0.923,0,1.672,0.749,1.672,1.672c0,0.923-0.749,1.672-1.672,1.672h-18.033l-8.537,8.538
						C137.807,86.96,137.379,87.124,136.952,87.124z"/>
				</g>
			</g>
		</g>
		<g>
			<g>
				<g>
					<g>
						<path style="fill:#666666;" d="M486.357,120.505l42.463-15.811c-6.965-17.1-23.746-29.16-43.35-29.16
							c-4.512,0-8.867,0.651-12.996,1.842L486.357,120.505z"/>
					</g>
				</g>
				<g>
					<g>
						<path style="fill:#666666;" d="M528.047,130.581c0.508-2.467,0.773-5.017,0.773-7.632c0-4.233-0.707-8.298-1.992-12.096
							l-31.842,11.855L528.047,130.581z"/>
					</g>
				</g>
				<g>
					<g>
						<path style="fill:#666666;" d="M484.701,126.495l-60.375,19.417c8.809,24.802,32.473,42.568,60.297,42.568
							c29.563,0,54.43-20.055,61.77-47.298L484.701,126.495z"/>
					</g>
				</g>
				<g>
					<g>
						<path style="fill:#666666;" d="M481.727,120.838l-14.996-46.59c-19.563,6.955-33.572,25.621-33.572,47.569
							c0,4.86,0.701,9.557,1.982,14.004L481.727,120.838z"/>
					</g>
				</g>
			</g>
			
				<text transform="matrix(1 0 0 1 414.7231 70.4453)" style="fill:#666666; font-family:'AutourOne-Regular'; font-size:14.4892px;">%</text>
			<g>
				<path style="fill:#666666;" d="M444.223,86.157c-0.428,0-0.855-0.164-1.182-0.49l-8.538-8.538h-18.032
					c-0.923,0-1.672-0.749-1.672-1.672s0.749-1.672,1.672-1.672h19.417l9.517,9.517c0.653,0.653,0.653,1.711,0,2.364
					C445.078,85.994,444.65,86.157,444.223,86.157z"/>
			</g>
			
				<text transform="matrix(1 0 0 1 520.5728 63.4253)" style="fill:#666666; font-family:'AutourOne-Regular'; font-size:14.4892px;">%</text>
			<g>
				<path style="fill:#666666;" d="M511.133,79.138c-0.428,0-0.855-0.164-1.182-0.49c-0.653-0.653-0.653-1.711-0.001-2.364
					l9.516-9.517h19.419c0.923,0,1.672,0.748,1.672,1.672c0,0.923-0.749,1.672-1.672,1.672h-18.034l-8.535,8.538
					C511.988,78.974,511.56,79.138,511.133,79.138z"/>
			</g>
			
				<text transform="matrix(1 0 0 1 541.9575 103.833)" style="fill:#666666; font-family:'AutourOne-Regular'; font-size:14.4892px;">%</text>
			<g>
				<path style="fill:#666666;" d="M532.518,119.545c-0.428,0-0.855-0.164-1.182-0.49c-0.653-0.653-0.653-1.711-0.001-2.364
					l9.516-9.517h19.419c0.923,0,1.672,0.749,1.672,1.672c0,0.923-0.749,1.672-1.672,1.672h-18.034l-8.535,8.538
					C533.373,119.381,532.945,119.545,532.518,119.545z"/>
			</g>
		</g>
		<g>
			<g>
				<g>
					<g>
						<path style="fill:#666666;" d="M673.59,132.788l17.969,48.263c19.438-7.916,33.144-26.989,33.144-49.271
							c0-5.128-0.742-10.079-2.094-14.771L673.59,132.788z"/>
					</g>
				</g>
				<g>
					<g>
						<path style="fill:#666666;" d="M668.609,152.682l11.635,31.25c-4.137,1.089-8.387,1.64-12.678,1.64
							c-2.235,0-4.473-0.15-6.683-0.446L668.609,152.682 M667.904,141.207l-11.1,46.616c3.477,0.715,7.074,1.092,10.762,1.092
							c5.967,0,11.699-0.997,17.055-2.809L667.904,141.207L667.904,141.207z"/>
					</g>
				</g>
				<g>
					<g>
						<path style="fill:#666666;" d="M665.908,129.874l-16.143-50.197c-20.623,7.323-35.393,26.998-35.393,50.132
							c0,24.579,16.674,45.255,39.324,51.356L665.908,129.874z"/>
					</g>
				</g>
				<g>
					<g>
						<path style="fill:#666666;" d="M669.537,78.584c19.431,0,36.99,11.493,44.894,28.983l-41.317,13.299l-13.288-41.313
							C663.027,78.909,666.279,78.584,669.537,78.584 M669.537,74.644c-5.121,0-10.07,0.739-14.758,2.089l15.789,49.093
							l49.096-15.803C712.336,89.407,692.666,74.644,669.537,74.644L669.537,74.644z"/>
					</g>
				</g>
			</g>
			<g>
				
					<text transform="matrix(1 0 0 1 587.0854 85.3062)" style="fill:#666666; font-family:'AutourOne-Regular'; font-size:14.4892px;">%</text>
				<g>
					<path style="fill:#666666;" d="M616.584,101.019c-0.428,0-0.856-0.164-1.182-0.49l-8.538-8.539h-18.032
						c-0.923,0-1.672-0.748-1.672-1.672c0-0.923,0.749-1.672,1.672-1.672h19.417l9.517,9.518c0.653,0.653,0.653,1.711,0,2.364
						C617.44,100.855,617.012,101.019,616.584,101.019z"/>
				</g>
			</g>
			<g>
				
					<text transform="matrix(1 0 0 1 709.6147 62.9907)" style="fill:#666666; font-family:'AutourOne-Regular'; font-size:14.4892px;">%</text>
				<g>
					<path style="fill:#666666;" d="M700.174,78.703c-0.428,0-0.855-0.164-1.183-0.49c-0.652-0.653-0.652-1.711,0.001-2.364
						l9.518-9.517h19.417c0.923,0,1.672,0.749,1.672,1.672s-0.749,1.672-1.672,1.672h-18.032l-8.54,8.538
						C701.029,78.54,700.602,78.703,700.174,78.703z"/>
				</g>
			</g>
			
				<text transform="matrix(1 0 0 1 736.3599 162.6206)" style="fill:#666666; font-family:'AutourOne-Regular'; font-size:14.4892px;">%</text>
			<g>
				<path style="fill:#666666;" d="M754.672,168.806h-19.419l-9.516-9.517c-0.652-0.653-0.652-1.712,0.001-2.364
					c0.652-0.652,1.71-0.652,2.364,0l8.535,8.538h18.034c0.923,0,1.672,0.749,1.672,1.672
					C756.344,168.057,755.595,168.806,754.672,168.806z"/>
			</g>
		</g>
		
			<radialGradient id="SVGID_00000071531030496439587220000011893275003093996453_" cx="116.8759" cy="201.5996" r="58.8804" gradientTransform="matrix(1 0 0 0.0696 0 187.5737)" gradientUnits="userSpaceOnUse">
			<stop  offset="0" style="stop-color:#000100"/>
			<stop  offset="1" style="stop-color:#000100;stop-opacity:0"/>
		</radialGradient>
		<path style="opacity:0.1;fill:url(#SVGID_00000071531030496439587220000011893275003093996453_);" d="M176.461,201.6
			c0,2.16-26.678,3.911-59.585,3.911c-32.909,0-59.586-1.751-59.586-3.911c0-2.16,26.677-3.911,59.586-3.911
			C149.784,197.689,176.461,199.439,176.461,201.6z"/>
		
			<radialGradient id="SVGID_00000111189351037764176910000008793051583968917419_" cx="305.7867" cy="201.5996" r="58.8804" gradientTransform="matrix(1 0 0 0.0696 0 187.5737)" gradientUnits="userSpaceOnUse">
			<stop  offset="0" style="stop-color:#000100"/>
			<stop  offset="1" style="stop-color:#000100;stop-opacity:0"/>
		</radialGradient>
		
			<ellipse style="opacity:0.1;fill:url(#SVGID_00000111189351037764176910000008793051583968917419_);" cx="305.787" cy="201.6" rx="59.586" ry="3.911"/>
		
			<radialGradient id="SVGID_00000008141606951638368060000011950552225945250459_" cx="489.3422" cy="201.5996" r="58.8804" gradientTransform="matrix(1 0 0 0.0696 0 187.5737)" gradientUnits="userSpaceOnUse">
			<stop  offset="0" style="stop-color:#000100"/>
			<stop  offset="1" style="stop-color:#000100;stop-opacity:0"/>
		</radialGradient>
		<path style="opacity:0.1;fill:url(#SVGID_00000008141606951638368060000011950552225945250459_);" d="M548.928,201.6
			c0,2.16-26.678,3.911-59.585,3.911c-32.909,0-59.586-1.751-59.586-3.911c0-2.16,26.677-3.911,59.586-3.911
			C522.25,197.689,548.928,199.439,548.928,201.6z"/>
		
			<radialGradient id="SVGID_00000031904603121734478960000002214236350125081229_" cx="672.062" cy="201.5996" r="58.8804" gradientTransform="matrix(1 0 0 0.0696 0 187.5737)" gradientUnits="userSpaceOnUse">
			<stop  offset="0" style="stop-color:#000100"/>
			<stop  offset="1" style="stop-color:#000100;stop-opacity:0"/>
		</radialGradient>
		
			<ellipse style="opacity:0.1;fill:url(#SVGID_00000031904603121734478960000002214236350125081229_);" cx="672.062" cy="201.6" rx="59.586" ry="3.911"/>
	</g>
</g>
</svg>
