<?xml version="1.0" encoding="utf-8"?>
<!-- Generator: Adobe Illustrator 27.5.0, SVG Export Plug-In . SVG Version: 6.00 Build 0)  -->
<svg version="1.1" xmlns="http://www.w3.org/2000/svg" xmlns:xlink="http://www.w3.org/1999/xlink" x="0px" y="0px"
	 viewBox="0 0 500 500.001" style="enable-background:new 0 0 500 500.001;" xml:space="preserve">
<g id="BACKGROUND">
	<rect style="fill:#FFF7B9;" width="500" height="500"/>
	<g>
		<g>
			<path style="fill:#FFFBD8;" d="M74.551,438.556c-17-60-63-130-43-195c6-20,24-43,43-52c16-9,33-4,50-8c40-10,60-53,78-86
				c18-35,56-67,95.999-38c31,22,30,62,48,94c15,27,33.04,35.719,62,40c133,19.663,22,242,11,257L74.551,438.556z"/>
		</g>
		<path style="fill:#F4D63F;" d="M439.829,442.465c0,16.675-84.854,30.194-189.529,30.194S60.77,459.14,60.77,442.465
			c0-16.677,84.855-30.196,189.53-30.196S439.829,425.788,439.829,442.465z"/>
	</g>
</g>
<g id="OBJECTS">
	<g>
		<g>
			<g>
				<path style="fill:#A6E4FF;" d="M171.499,429.321c-0.507,2.693,1.864,5.658,8.216,7.262c6.349,1.604,10.965-3.104,10.965-3.104
					s13.45-62.623,17.507-83.519c4.556-23.48,16.95-93.988,16.95-93.988s-2.518-6.089-9.007-6.979
					c-6.489-0.89-9.598,1.022-10.336,3.662C193.666,296.072,179.749,385.89,171.499,429.321z"/>
				<path style="fill:#A6E4FF;" d="M198.517,352.857c-6.646,27.116-12.662,55.653-24.523,81.29c1.334,0.959,3.214,1.807,5.721,2.436
					c6.349,1.604,10.965-3.104,10.965-3.104s13.45-62.623,17.507-83.519c4.556-23.48,16.95-93.988,16.95-93.988
					s-1.464-3.52-5.019-5.599C213.935,284.75,206.743,318.915,198.517,352.857z"/>
				<g>
					<path style="fill:#935844;" d="M221.334,277.496c2.229-12.575,3.803-21.524,3.803-21.524s-2.518-6.089-9.007-6.979
						c-6.489-0.89-9.598,1.022-10.336,3.662c-1.7,6.097-3.438,13.108-5.194,20.778C207.54,273.529,215.16,274.674,221.334,277.496z"
						/>
					<path style="fill:#935844;" d="M190.68,433.479c0,0,0.446-2.084,1.2-5.608c-6.76,0.323-13.124-1.775-19.192-4.894
						c-0.407,2.208-0.802,4.325-1.189,6.345c-0.507,2.693,1.864,5.658,8.216,7.262C186.064,438.188,190.68,433.479,190.68,433.479z"
						/>
					<g>
						<path style="fill:#723C2B;" d="M221.847,274.595c1.815-10.24,3.097-17.519,3.27-18.504c0.011-0.07,0.02-0.119,0.02-0.119
							s-0.01-0.023-0.019-0.045c-0.009-0.014-0.021-0.04-0.031-0.064c-0.011-0.022-0.022-0.049-0.036-0.074
							c-0.018-0.04-0.038-0.082-0.064-0.134c-0.01-0.02-0.023-0.044-0.034-0.064c-0.105-0.209-0.255-0.488-0.458-0.821
							c-0.005-0.009-0.01-0.021-0.018-0.031c-0.37-0.605-0.902-1.367-1.619-2.141c-0.005-0.003-0.006-0.007-0.007-0.01
							c-0.415-0.449-0.899-0.904-1.443-1.329c-0.027-0.023-0.053-0.043-0.079-0.063c-0.163-0.128-0.334-0.251-0.507-0.372
							c-0.054-0.037-0.11-0.073-0.165-0.108c-0.178-0.116-0.355-0.231-0.54-0.341c-1.504,8.358-3.069,16.701-4.691,25.033
							c2.059,0.563,4.054,1.242,5.908,2.09C221.509,276.509,221.681,275.538,221.847,274.595z"/>
						<path style="fill:#723C2B;" d="M174.473,434.47c0.036,0.021,0.075,0.046,0.112,0.068c0.158,0.101,0.321,0.196,0.491,0.29
							c0.046,0.028,0.094,0.051,0.138,0.075c0.282,0.151,0.58,0.301,0.896,0.443c0.115,0.053,0.22,0.103,0.337,0.156
							c0.129,0.053,0.264,0.105,0.397,0.16c0.161,0.063,0.323,0.127,0.492,0.19c0.126,0.046,0.252,0.09,0.385,0.137
							c0.201,0.07,0.407,0.138,0.622,0.205c0.111,0.033,0.22,0.069,0.332,0.104c0.336,0.1,0.678,0.194,1.04,0.285
							c6.349,1.604,10.965-3.104,10.965-3.104s0.446-2.084,1.2-5.608c-4.884,0.233-9.561-0.801-14.072-2.566
							c-1.203,2.979-2.465,5.932-3.814,8.843c0.003,0.002,0.003,0.002,0.005,0.004C174.148,434.256,174.307,434.364,174.473,434.47z
							"/>
					</g>
				</g>
				<g>
					<path style="fill:#935844;stroke:#723C2B;stroke-linecap:round;stroke-linejoin:round;stroke-miterlimit:10;" d="
						M195.808,409.467c0.112-0.533,0.227-1.07,0.341-1.616c-4.109-0.726-8.201-1.347-12.208-2.836
						c-2.604-0.965-4.99-2.349-7.372-3.738c-0.22,1.278-0.446,2.538-0.664,3.787C181.892,408.169,188.919,409.054,195.808,409.467z"
						/>
					<path style="fill:#935844;stroke:#723C2B;stroke-linecap:round;stroke-linejoin:round;stroke-miterlimit:10;" d="
						M185.404,414.998c3.035,0.473,6.103,0.585,9.148,0.364c0.118-0.548,0.236-1.106,0.356-1.672
						c-3.03-0.178-6.042-0.645-8.996-1.311c-2.722-0.612-5.28-1.64-7.833-2.732c-0.954-0.406-1.831-0.964-2.729-1.453
						c-0.231,1.303-0.457,2.584-0.684,3.851C177.909,413.852,182.49,414.542,185.404,414.998z"/>
					<path style="fill:#935844;stroke:#723C2B;stroke-linecap:round;stroke-linejoin:round;stroke-miterlimit:10;" d="
						M219.2,289.498c0.135-0.747,0.267-1.492,0.398-2.229c-2.331-1.391-4.956-2.372-7.524-3.094
						c-4.16-1.176-8.702-2.458-13.217-2.922c-0.379,1.752-0.764,3.528-1.144,5.333c3.461,0.42,7.006,0.537,10.382,0.925
						C211.721,287.928,215.691,288.229,219.2,289.498z"/>
				</g>
				<path style="fill:none;stroke:#723C2B;stroke-linecap:round;stroke-linejoin:round;stroke-miterlimit:10;" d="M171.499,429.321
					c-0.507,2.693,1.864,5.658,8.216,7.262c6.349,1.604,10.965-3.104,10.965-3.104s13.45-62.623,17.507-83.519
					c4.556-23.48,16.95-93.988,16.95-93.988s-2.518-6.089-9.007-6.979c-6.489-0.89-9.598,1.022-10.336,3.662
					C193.666,296.072,179.749,385.89,171.499,429.321z"/>
			</g>
			<g>
				<path style="fill:#EF5557;" d="M191.552,430.012c-0.579,2.849,1.895,6.024,8.602,7.81c6.705,1.789,11.663-3.137,11.663-3.137
					s15.121-66.165,19.714-88.255c5.155-24.814,19.269-99.354,19.269-99.354s-2.583-6.49-9.446-7.521
					c-6.863-1.035-10.182,0.948-11,3.736C216.896,289.126,200.895,384.105,191.552,430.012z"/>
				<path style="opacity:0.3;fill:#EF5557;" d="M221.244,349.364c-7.42,28.641-14.193,58.795-27.118,85.797
					c1.401,1.032,3.378,1.957,6.027,2.661c6.705,1.789,11.663-3.137,11.663-3.137s15.121-66.165,19.714-88.255
					c5.155-24.814,19.269-99.354,19.269-99.354s-1.503-3.752-5.24-6.002C238.528,277.412,230.432,313.512,221.244,349.364z"/>
				<path style="fill:#FEFFFB;" d="M213.628,374.508c4.281,0.974,11.343-14.058,15.772-33.57c4.43-19.515,4.55-36.119,0.27-37.092
					c-4.28-0.974-11.343,14.06-15.774,33.571C209.466,356.931,209.346,373.535,213.628,374.508z"/>
				<g>
					<path style="fill:#935844;" d="M230.145,271.698c-2.318-0.319-4.63-0.566-6.955-0.718c0.347-1.482,0.694-2.939,1.04-4.378
						c1.889,0.168,3.744,0.449,5.422,0.651c5.73,0.689,11.275,1.771,16.607,3.688c-0.274,1.435-0.556,2.909-0.845,4.421
						C240.522,273.48,235.435,272.417,230.145,271.698z"/>
					<path style="fill:#935844;" d="M231.573,265.404c-2.295-0.313-4.582-0.56-6.882-0.71c0.36-1.482,0.72-2.939,1.078-4.371
						c1.852,0.17,3.666,0.441,5.312,0.639c5.653,0.681,11.125,1.745,16.392,3.613c-0.268,1.416-0.55,2.89-0.842,4.42
						C241.804,267.163,236.787,266.115,231.573,265.404z"/>
					<path style="fill:#935844;" d="M197.813,407.507c-0.563-0.189-1.147-0.381-1.743-0.575c0.27-1.425,0.546-2.867,0.822-4.33
						c1.088,0.383,2.179,0.757,3.281,1.111c5.904,1.9,11.764,3.261,17.904,3.422c-0.341,1.507-0.675,2.985-0.999,4.419
						C210.478,411.218,204.144,409.654,197.813,407.507z"/>
					<path style="fill:#935844;" d="M196.383,413.8c-0.495-0.169-1.008-0.337-1.533-0.51c0.272-1.414,0.55-2.86,0.829-4.322
						c1.016,0.357,2.037,0.707,3.066,1.037c5.905,1.899,11.765,3.261,17.907,3.421c-0.347,1.528-0.682,3.004-1.002,4.419
						C209.05,417.51,202.717,415.943,196.383,413.8z"/>
				</g>
				<path style="fill:#FFFBD8;" d="M214.822,374.394c2.196-8.394,4.285-16.776,6.422-25.029c3.671-14.327,7.161-28.69,10.486-43.096
					c1.991,5.416,1.201,19.115-2.329,34.669C225.361,358.728,219.134,372.786,214.822,374.394z"/>
				<g>
					<path style="fill:#723C2B;" d="M239.922,269.056c2.146,0.52,4.257,1.137,6.336,1.886c-0.273,1.435-0.555,2.909-0.844,4.421
						c-2.099-0.809-4.237-1.457-6.408-2C239.31,271.927,239.621,270.493,239.922,269.056z"/>
					<path style="fill:#723C2B;" d="M240.339,267.05c0.299-1.436,0.589-2.877,0.885-4.313c2.113,0.507,4.197,1.11,6.248,1.839
						c-0.05,0.263-0.099,0.522-0.149,0.79c-0.223,1.175-0.453,2.378-0.693,3.63C244.569,268.214,242.471,267.58,240.339,267.05z"/>
					<path style="fill:#723C2B;" d="M204.488,409.522c0.477-1.39,0.936-2.778,1.394-4.169c4.004,1.003,8.035,1.67,12.195,1.782
						c-0.153,0.677-0.304,1.343-0.454,2.008c-0.063,0.276-0.125,0.551-0.188,0.827c-0.12,0.532-0.241,1.062-0.358,1.584
						C212.793,411.336,208.621,410.596,204.488,409.522z"/>
					<path style="fill:#723C2B;" d="M202.316,415.609c0.506-1.374,0.999-2.753,1.483-4.132c4.222,1.099,8.465,1.833,12.853,1.948
						c-0.309,1.36-0.606,2.669-0.893,3.939c-0.038,0.161-0.073,0.317-0.11,0.479C211.108,417.615,206.694,416.791,202.316,415.609z"
						/>
				</g>
				<path style="fill:none;stroke:#723C2B;stroke-linecap:round;stroke-linejoin:round;stroke-miterlimit:10;" d="M191.552,430.012
					c-0.579,2.849,1.895,6.024,8.602,7.81c6.705,1.789,11.663-3.137,11.663-3.137s15.121-66.165,19.714-88.255
					c5.155-24.814,19.269-99.354,19.269-99.354s-2.583-6.49-9.446-7.521c-6.863-1.035-10.182,0.948-11,3.736
					C216.896,289.126,200.895,384.105,191.552,430.012z"/>
				<path style="fill:none;stroke:#723C2B;stroke-linecap:round;stroke-linejoin:round;stroke-miterlimit:10;" d="M213.628,374.508
					c4.281,0.974,11.343-14.058,15.772-33.57c4.43-19.515,4.55-36.119,0.27-37.092c-4.28-0.974-11.343,14.06-15.774,33.571
					C209.466,356.931,209.346,373.535,213.628,374.508z"/>
			</g>
			<g>
				<path style="fill:#FEFFFB;" d="M262.192,401.559l170.577,0.562c0,0-3.473,5.862-3.637,14.224l-57.698,1.34l57.738,0.945
					c0.069,1.301,0.228,2.655,0.492,4.045l-37.504,2.357l37.828-0.878c0.672,2.746,1.776,5.621,3.488,8.542l-174.774,1.23
					l-6.19-22.992L262.192,401.559z"/>
				<path style="fill:#FFFBD8;" d="M394.775,409.943c-20.039,0.465-40.182,2.09-60.16,5.251
					c-18.698,2.882-36.977,7.287-54.948,13.745c-4.289,1.543-8.668,3.122-12.957,4.93l-8.007,0.057l-6.19-22.992l9.68-9.375
					l170.577,0.562c0,0-1.774,3.01-2.844,7.778c-2.541-0.103-5.085-0.208-7.65-0.208
					C413.145,409.517,404.025,409.728,394.775,409.943z"/>
				<path style="fill:none;stroke:#723C2B;stroke-linecap:round;stroke-linejoin:round;stroke-miterlimit:10;" d="M262.192,401.559
					l170.577,0.562c0,0-3.473,5.862-3.637,14.224l-57.698,1.34l57.738,0.945c0.069,1.301,0.228,2.655,0.492,4.045l-37.504,2.357
					l37.828-0.878c0.672,2.746,1.776,5.621,3.488,8.542l-174.774,1.23l-6.19-22.992L262.192,401.559z"/>
				<path style="fill:#A6E4FF;" d="M263.014,431.383c-7.958-5.084-8.684-19.72-1.75-25.535c1.06-0.893,165.159,0.021,174.158-0.148
					c2.191-0.051,3.926-1.866,3.875-4.059l0,0c-0.051-2.189-1.907-3.8-4.097-3.914c-5.737-0.305-177.218-0.496-178.705,0.741
					c-6.978,5.828-8.136,14.228-7.645,20.777c0.932,12.446,8.522,18.237,8.522,18.237c5.7,0.74,176.851-0.159,178.78-0.28
					c2.666-0.165,3.93-1.759,3.88-3.95l0,0c-0.052-2.191-1.869-3.925-4.06-3.874C429.414,429.448,266.364,432.192,263.014,431.383z"
					/>
				<path style="fill:none;stroke:#723C2B;stroke-linecap:round;stroke-linejoin:round;stroke-miterlimit:10;" d="M263.014,431.383
					c-7.958-5.084-8.684-19.72-1.75-25.535c1.06-0.893,165.159,0.021,174.158-0.148c2.191-0.051,3.926-1.866,3.875-4.059l0,0
					c-0.051-2.189-1.907-3.8-4.097-3.914c-5.737-0.305-177.218-0.496-178.705,0.741c-6.978,5.828-8.136,14.228-7.645,20.777
					c0.932,12.446,8.522,18.237,8.522,18.237c5.7,0.74,176.851-0.159,178.78-0.28c2.666-0.165,3.93-1.759,3.88-3.95l0,0
					c-0.052-2.191-1.869-3.925-4.06-3.874C429.414,429.448,266.364,432.192,263.014,431.383z"/>
			</g>
			<g>
				<path style="fill:#EF5557;" d="M429.714,352.775c9.061-0.463,17.668,34.453,0.39,44.7c-2.205,1.308-45.144,1.204-74.014,1.455
					c-28.869,0.254-73.284-0.244-81.307-0.701c-4.386-0.249-18.926-29.517,0.482-44.102c1.416-1.063,62.195-0.425,82.381-0.721
					C377.833,353.113,426.893,352.921,429.714,352.775z"/>
				<path style="opacity:0.3;fill:#EF5557;" d="M275.266,354.128c1.416-1.063,62.195-0.425,82.381-0.721
					c20.187-0.294,69.246-0.486,72.067-0.632c2.807-0.143,5.568,3.109,7.533,7.975c-8.821,0.435-17.801,0.146-26.306,0.683
					c-24.659,1.502-49.316,3.259-73.98,4.245c-23.686,0.885-47.375,1.969-71.053,3.598
					C266.927,363.705,269.698,358.314,275.266,354.128z"/>
				<path style="fill:none;stroke:#723C2B;stroke-linecap:round;stroke-linejoin:round;stroke-miterlimit:10;" d="M429.714,352.775
					c9.061-0.463,17.668,34.453,0.39,44.7c-2.205,1.308-45.144,1.204-74.014,1.455c-28.869,0.254-73.284-0.244-81.307-0.701
					c-4.386-0.249-18.926-29.517,0.482-44.102c1.416-1.063,62.195-0.425,82.381-0.721
					C377.833,353.113,426.893,352.921,429.714,352.775z"/>
				<g>
					
						<rect x="402.091" y="360.344" transform="matrix(0.9999 -0.0164 0.0164 0.9999 -6.1415 6.856)" style="fill:#FFFFFF;stroke:#FFFFFF;stroke-width:0.5;stroke-linecap:round;stroke-linejoin:round;stroke-miterlimit:10;" width="24.17" height="33.701"/>
					
						<path style="fill:#EF5557;stroke:#FFFFFF;stroke-width:0.5;stroke-linecap:round;stroke-linejoin:round;stroke-miterlimit:10;" d="
						M402.369,394.241l9.733-13.113l0.212,12.95l4.346-0.071l-0.472-11.404l8.752,11.268l1.595-0.025l-0.025-1.666l-10.133-12.867
						l9.913-0.447l-0.064-3.856l-10.162-0.038l9.954-12.751l-0.036-2.071l-1.556,0.027l-7.924,11.499l-0.679-11.359l-3.901,0.064
						c0,0,0.124,12.548,0.045,12.669c-0.078,0.124-9.582-12.511-9.582-12.511l-0.57,0.009l0.027,1.682c0,0,9.022,12.746,8.9,12.749
						s-8.689,0.002-8.689,0.002l0.072,4.425l8.895-0.004l-8.703,11.697L402.369,394.241z"/>
					
						<polygon style="fill:#EF5557;stroke:#FFFFFF;stroke-width:0.5;stroke-linecap:round;stroke-linejoin:round;stroke-miterlimit:10;" points="
						417.474,393.995 423.919,393.888 417.161,384.982 					"/>
					
						<polygon style="fill:#EF5557;stroke:#FFFFFF;stroke-width:0.5;stroke-linecap:round;stroke-linejoin:round;stroke-miterlimit:10;" points="
						426.49,390.922 417.808,379.898 426.306,379.759 					"/>
					
						<polygon style="fill:#EF5557;stroke:#FFFFFF;stroke-width:0.5;stroke-linecap:round;stroke-linejoin:round;stroke-miterlimit:10;" points="
						426.208,373.953 426.029,362.991 417.713,374.091 					"/>
					
						<polygon style="fill:#EF5557;stroke:#FFFFFF;stroke-width:0.5;stroke-linecap:round;stroke-linejoin:round;stroke-miterlimit:10;" points="
						416.91,369.84 416.754,360.302 423.779,360.185 					"/>
					
						<polygon style="fill:#EF5557;stroke:#FFFFFF;stroke-width:0.5;stroke-linecap:round;stroke-linejoin:round;stroke-miterlimit:10;" points="
						411.581,371.594 411.397,360.387 403.439,360.519 					"/>
					
						<polygon style="fill:#EF5557;stroke:#FFFFFF;stroke-width:0.5;stroke-linecap:round;stroke-linejoin:round;stroke-miterlimit:10;" points="
						409.347,374.065 402.037,373.984 401.859,363.389 					"/>
					
						<polygon style="fill:#EF5557;stroke:#FFFFFF;stroke-width:0.5;stroke-linecap:round;stroke-linejoin:round;stroke-miterlimit:10;" points="
						402.142,380.316 409.779,380.191 402.306,390.182 					"/>
					
						<polygon style="fill:#EF5557;stroke:#FFFFFF;stroke-width:0.5;stroke-linecap:round;stroke-linejoin:round;stroke-miterlimit:10;" points="
						403.145,394.229 411.447,383.129 411.624,394.09 					"/>
				</g>
				<path style="fill:none;stroke:#723C2B;stroke-linecap:round;stroke-linejoin:round;stroke-miterlimit:10;" d="M301.932,378.889
					c0.134,5.769,4.918,10.335,10.685,10.2l65.702-1.525c5.77-0.134,10.337-4.918,10.203-10.686l0,0
					c-0.135-5.769-4.919-10.335-10.686-10.202l-65.703,1.526C306.365,368.335,301.797,373.12,301.932,378.889L301.932,378.889z"/>
				<path style="fill:#723C2B;" d="M304.625,378.825c0.101,4.429,3.775,7.937,8.206,7.833l65.165-1.512
					c4.43-0.104,7.936-3.778,7.833-8.207l0,0c-0.103-4.43-3.777-7.938-8.206-7.836l-65.165,1.515
					C308.029,370.722,304.521,374.396,304.625,378.825L304.625,378.825z"/>
			</g>
			<g>
				<path style="fill:#F4D63F;" d="M419.719,318.405c0,0,7.577,6.621,7.696,17.311c0.064,5.754-1.738,12.848-6.895,17.194
					c-1.298,1.094-157.401,4.639-162.409,4.104c0,0-6.931-5.215-7.049-15.906c-0.064-5.754-0.481-13.014,5.52-18.252
					C257.855,321.74,414.712,317.87,419.719,318.405z"/>
				<path style="fill:#FEC214;" d="M256.582,322.858c1.273-1.117,158.13-4.987,163.137-4.452c0,0,7.577,6.621,7.696,17.311
					c0,0.029-0.001,0.062-0.001,0.091c-12.018-0.778-23.961-0.264-35.995,0.556c-22.244,1.445-44.14,1.954-66.423,1.73
					c-20.429-0.269-40.864-0.908-61.298-1.361c-4.219-0.178-8.438-0.31-12.634-0.419
					C251.226,331.673,252.161,326.718,256.582,322.858z"/>
				<g>
					<path style="fill:#FFF4D7;" d="M298.234,338.718c-0.078-3.404,2.62-6.229,6.02-6.309l-0.083-3.666l68.296-1.587l0.084,3.668
						c3.405-0.078,6.229,2.617,6.308,6.02c0.079,3.405-2.616,6.228-6.021,6.308l0.086,3.669l-68.298,1.585l-0.084-3.667
						C301.139,344.817,298.313,342.121,298.234,338.718z"/>
					<path style="fill:#FEFFFB;" d="M378.853,337.073c-0.042,3.301-2.686,6.003-6.014,6.078l0.086,3.669l-68.298,1.585l-0.084-3.667
						c-3.404,0.079-6.23-2.617-6.309-6.021c-0.009-0.392,0.025-0.772,0.085-1.146c8.893,0.212,17.785,0.404,26.677,0.522
						C343.071,338.275,360.896,337.965,378.853,337.073z"/>
					<path style="fill:none;stroke:#723C2B;stroke-linecap:round;stroke-linejoin:round;stroke-miterlimit:10;" d="M298.234,338.718
						c-0.078-3.404,2.62-6.229,6.02-6.309l-0.083-3.666l68.296-1.587l0.084,3.668c3.405-0.078,6.229,2.617,6.308,6.02
						c0.079,3.405-2.616,6.228-6.021,6.308l0.086,3.669l-68.298,1.585l-0.084-3.667
						C301.139,344.817,298.313,342.121,298.234,338.718z"/>
				</g>
				<g>
					<path style="fill:#723C2B;" d="M413.419,333.293c-0.136-5.047-0.632-10.169-2.209-14.893c0.503-0.007,0.979-0.012,1.44-0.017
						c1.41,4.031,1.946,8.457,2.195,12.685c0.415,7.01,0.861,15.189-1.104,22.338c-0.559,0.026-1.15,0.054-1.771,0.081
						c0.61-2.219,1.077-4.462,1.312-6.881C413.712,342.193,413.54,337.719,413.419,333.293z"/>
					<path style="fill:#723C2B;" d="M410.166,336.135c0.102-5.783,0.014-12.05-1.72-17.7c0.294-0.003,0.58-0.008,0.865-0.012
						c1.712,4.876,2.093,10.217,2.189,15.43c0.126,6.704-0.257,13.253-1.611,19.719c-0.56,0.024-1.141,0.046-1.737,0.069
						c0.421-1.68,0.868-3.35,1.206-5.016C410.189,344.537,410.096,340.289,410.166,336.135z"/>
					<path style="fill:#723C2B;" d="M406.581,336.35c0.156-5.832,0.225-12.144-1.415-17.864c0.248-0.004,0.488-0.008,0.729-0.011
						c1.685,4.918,2.016,10.275,2.056,15.49c0.033,4.188-0.109,8.392-0.234,12.577c-0.071,2.402-0.44,4.779-0.878,7.15
						c-0.53,0.018-1.07,0.037-1.623,0.058c0.421-2.377,0.822-4.763,1.027-7.172C406.529,343.197,406.491,339.737,406.581,336.35z"/>
				</g>
				<path style="fill:none;stroke:#723C2B;stroke-linecap:round;stroke-linejoin:round;stroke-miterlimit:10;" d="M419.719,318.405
					c0,0,7.577,6.621,7.696,17.311c0.064,5.754-1.738,12.848-6.895,17.194c-1.298,1.094-157.401,4.639-162.409,4.104
					c0,0-6.931-5.215-7.049-15.906c-0.064-5.754-0.481-13.014,5.52-18.252C257.855,321.74,414.712,317.87,419.719,318.405z"/>
			</g>
			<g>
				<g>
					<path style="fill:#FEFFFB;" d="M256.163,309.032c0.228-2.02,0.355-4.155,0.306-6.289c-0.211-9.113-3.629-16.043-3.629-16.043
						l172.009-3.996c0,0-2.865,6.587-2.884,15.228l-50.259,2.122l50.295-0.188c0.418,8.776,3.647,17.189,3.647,17.189l-172.01,3.996
						c0,0,1.554-4.693,2.363-10.696l51.211-1.189L256.163,309.032z"/>
					<path style="fill:#FFFBD8;" d="M252.84,286.7l172.009-3.996c0,0-1.226,2.829-2.077,7.199
						c-32.78,1.238-128.459,5.305-166.345,11.899C256.014,293.16,252.84,286.7,252.84,286.7z"/>
					<path style="fill:none;stroke:#723C2B;stroke-linecap:round;stroke-linejoin:round;stroke-miterlimit:10;" d="M256.163,309.032
						c0.228-2.02,0.355-4.155,0.306-6.289c-0.211-9.113-3.629-16.043-3.629-16.043l172.009-3.996c0,0-2.865,6.587-2.884,15.228
						l-50.259,2.122l50.295-0.188c0.418,8.776,3.647,17.189,3.647,17.189l-172.01,3.996c0,0,1.554-4.693,2.363-10.696l51.211-1.189
						L256.163,309.032z"/>
				</g>
				<g>
					<g>
						<path style="fill:#F99269;" d="M427.866,287.372c2.332-0.055,2.168-8.522-0.175-8.48l-177.107,3.124
							c-0.008,0-0.017,0-0.025,0.001c-2.33,0.053-2.169,8.518,0.174,8.477l177.108-3.121
							C427.85,287.372,427.855,287.372,427.866,287.372z"/>
					</g>
					<path style="fill:#E57649;" d="M427.842,287.372l-177.108,3.121c-2.343,0.041-2.504-8.424-0.174-8.477
						c0,0,38.29,3.166,97.637,3.397C407.65,285.645,427.842,287.372,427.842,287.372z"/>
					<g>
						<path style="fill:none;stroke:#723C2B;stroke-linecap:round;stroke-linejoin:round;stroke-miterlimit:10;" d="
							M427.866,287.372c2.332-0.055,2.168-8.522-0.175-8.48l-177.107,3.124c-0.008,0-0.017,0-0.025,0.001
							c-2.33,0.053-2.169,8.518,0.174,8.477l177.108-3.121C427.85,287.372,427.855,287.372,427.866,287.372z"/>
					</g>
				</g>
				<g>
					<g>
						<path style="fill:#F99269;" d="M428.682,322.513c2.331-0.054,2.17-8.518-0.174-8.478l-177.106,3.122
							c-0.009,0.001-0.018,0.001-0.026,0.001c-2.331,0.054-2.167,8.52,0.175,8.478l177.108-3.121
							C428.666,322.513,428.674,322.514,428.682,322.513z"/>
					</g>
					<path style="fill:#E57649;" d="M428.658,322.514l-177.108,3.121c-2.341,0.042-2.505-8.424-0.175-8.478
						c0,0,38.291,3.168,97.638,3.399C408.466,320.789,428.658,322.514,428.658,322.514z"/>
					<g>
						<path style="fill:none;stroke:#723C2B;stroke-linecap:round;stroke-linejoin:round;stroke-miterlimit:10;" d="
							M428.682,322.513c2.331-0.054,2.17-8.518-0.174-8.478l-177.106,3.122c-0.009,0.001-0.018,0.001-0.026,0.001
							c-2.331,0.054-2.167,8.52,0.175,8.478l177.108-3.121C428.666,322.513,428.674,322.514,428.682,322.513z"/>
					</g>
				</g>
			</g>
			<g>
				<path style="fill:#3879AF;" d="M406.557,279.066c9.07,0.297,16.887-37.43-0.618-48.059c-2.234-1.356-45.161-0.285-74.029,0.088
					c-28.869,0.373-65.552,1.801-73.563,2.471c-4.379,0.366-18.253,32.148,1.483,47.396c1.436,1.11,54.478-0.833,74.669-0.966
					C354.683,279.864,403.736,278.973,406.557,279.066z"/>
				<path style="fill:#355F91;" d="M415.592,246.574c-1.295-6.484-4.28-12.303-9.653-15.566c-2.234-1.356-45.161-0.285-74.029,0.088
					c-28.869,0.373-65.552,1.801-73.563,2.471c-2.961,0.248-10.257,14.853-8.58,29.001c0.019-0.007,0.038-0.011,0.054-0.018
					C271.849,253.581,312.586,247.844,415.592,246.574z"/>
				<g>
					<path style="fill:#EF5557;" d="M395.685,255.398c-0.695,7.213-1.877,14.451-3.671,21.472c-0.194,0.759-0.397,1.554-0.617,2.363
						c1.487-0.021,2.895-0.04,4.217-0.061c2.593-6.04,4.136-12.408,5.138-18.925c1.279-8.347,1.424-16.388,0.15-24.74
						c-0.26-1.691-0.584-3.374-0.944-5.052c-1.368-0.041-2.941-0.07-4.683-0.089c0.177,1.078,0.338,2.159,0.468,3.247
						C396.609,240.842,396.382,248.168,395.685,255.398z"/>
					<path style="fill:#EF5557;" d="M270.59,253.758c-0.175,9.38,1.871,18.557,4.621,27.478c0.697-0.01,1.408-0.019,2.139-0.032
						c-1.201-8.699-1.813-17.472-1.761-26.257c0.029-5.197,0.768-10.26,1.854-15.33c0.52-2.419,1.267-4.78,2.099-7.108
						c-1.924,0.076-3.759,0.151-5.503,0.226c-0.5,1.518-0.929,3.012-1.323,4.365C271.148,242.463,270.694,248.195,270.59,253.758z"
						/>
					<g>
						<path style="fill:#B12B2C;" d="M395.742,233.613c-0.13-1.088-0.291-2.168-0.468-3.247c0.018,0.001,0.035,0,0.05,0
							c0.846,0.009,1.651,0.021,2.411,0.036c0.019,0.001,0.038,0.001,0.059,0.001c0.342,0.007,0.678,0.014,1.002,0.022
							c0.055,0,0.107,0.002,0.158,0.004c0.345,0.008,0.682,0.017,1.003,0.027c0.36,1.677,0.685,3.361,0.944,5.052
							c0.58,3.803,0.853,7.54,0.87,11.272c-1.866,0.032-3.703,0.067-5.525,0.101C396.389,242.451,396.269,238.014,395.742,233.613z"
							/>
						<path style="fill:#B12B2C;" d="M270.59,253.758c0.104-5.563,0.559-11.295,2.126-16.659c0.395-1.354,0.823-2.847,1.323-4.365
							c0.857-0.037,1.737-0.073,2.638-0.11c0.028-0.001,0.055-0.002,0.08-0.003c0.907-0.038,1.837-0.075,2.785-0.112
							c-0.832,2.328-1.579,4.689-2.099,7.108c-1.087,5.07-1.825,10.133-1.854,15.33c-0.001,0.162,0,0.327,0.002,0.491
							c-1.73,0.324-3.39,0.657-4.985,0.996C270.585,255.543,270.574,254.652,270.59,253.758z"/>
					</g>
				</g>
				<path style="fill:none;stroke:#723C2B;stroke-linecap:round;stroke-linejoin:round;stroke-miterlimit:10;" d="M406.557,279.066
					c9.07,0.297,16.887-37.43-0.618-48.059c-2.234-1.356-45.161-0.285-74.029,0.088c-28.869,0.373-65.552,1.801-73.563,2.471
					c-4.379,0.366-18.253,32.148,1.483,47.396c1.436,1.11,54.478-0.833,74.669-0.966
					C354.683,279.864,403.736,278.973,406.557,279.066z"/>
				<g>
					
						<rect x="305.669" y="235.849" transform="matrix(0.999 -0.0444 0.0444 0.999 -11.027 15.0565)" style="fill:#FFFFFF;stroke:#723C2B;stroke-width:0.5;stroke-linecap:round;stroke-linejoin:round;stroke-miterlimit:10;" width="55.034" height="39.472"/>
					
						<path style="fill:#E93038;stroke:#723C2B;stroke-width:0.5;stroke-linecap:round;stroke-linejoin:round;stroke-miterlimit:10;" d="
						M359.801,273.874l-21.412-14.983l22.442-1.042l-0.314-7.087l-21.74,1.609l20.906-16.463l0.116-1.263l-2.716,0.122
						l-20.544,17.126l-1.183-16.162l-6.293,0.281l0.403,16.59l-21.268-15.665l-3.378,0.151l0.048,1.105l20.969,14.786l-20.281,0.686
						l0.243,5.438c0,0,22.898-0.697,23.104-0.573c0.205,0.124-22.33,17.991-22.33,17.991l0,0l2.749-0.123
						c0,0,20.392-15.309,20.401-15.109c0.01,0.198,0.399,14.186,0.399,14.186l7.218-0.321l-0.41-14.52l19.489,13.67L359.801,273.874
						z"/>
					
						<polygon style="fill:#355F91;stroke:#723C2B;stroke-width:0.5;stroke-linecap:round;stroke-linejoin:round;stroke-miterlimit:10;" points="
						360.458,249.435 359.988,238.913 345.763,250.357 					"/>
					
						<polygon style="fill:#355F91;stroke:#723C2B;stroke-width:0.5;stroke-linecap:round;stroke-linejoin:round;stroke-miterlimit:10;" points="
						355.03,234.857 337.43,249.531 336.815,235.668 					"/>
					
						<polygon style="fill:#355F91;stroke:#723C2B;stroke-width:0.5;stroke-linecap:round;stroke-linejoin:round;stroke-miterlimit:10;" points="
						327.341,236.09 309.454,236.885 327.958,249.952 					"/>
					
						<polygon style="fill:#355F91;stroke:#723C2B;stroke-width:0.5;stroke-linecap:round;stroke-linejoin:round;stroke-miterlimit:10;" points="
						321.054,251.456 305.489,252.148 304.979,240.687 					"/>
					
						<polygon style="fill:#355F91;stroke:#723C2B;stroke-width:0.5;stroke-linecap:round;stroke-linejoin:round;stroke-miterlimit:10;" points="
						324.158,260.076 305.877,260.89 306.457,273.872 					"/>
					
						<polygon style="fill:#355F91;stroke:#723C2B;stroke-width:0.5;stroke-linecap:round;stroke-linejoin:round;stroke-miterlimit:10;" points="
						328.299,263.61 328.496,275.548 311.211,276.316 					"/>
					
						<polygon style="fill:#355F91;stroke:#723C2B;stroke-width:0.5;stroke-linecap:round;stroke-linejoin:round;stroke-miterlimit:10;" points="
						338.83,275.088 338.277,262.624 354.927,274.374 					"/>
					
						<polygon style="fill:#355F91;stroke:#723C2B;stroke-width:0.5;stroke-linecap:round;stroke-linejoin:round;stroke-miterlimit:10;" points="
						361.496,272.813 342.996,259.772 360.88,258.975 					"/>
				</g>
			</g>
		</g>
		<g>
			<path style="fill:#B12B2C;" d="M361.958,126.019c0,0-25.271,7.284-50.111-1.199c-24.84-8.483-38.392-28.749-38.392-28.749
				s13.215-38,57.17-22.989C374.582,88.091,361.958,126.019,361.958,126.019z"/>
			<path style="fill:#E93038;stroke:#723C2B;stroke-linecap:round;stroke-linejoin:round;stroke-miterlimit:10;" d="
				M314.317,117.586c21.804,7.445,43.936,2.747,49.024,1.485c-0.483,4.247-1.384,6.948-1.384,6.948s-25.271,7.284-50.111-1.199
				c-24.84-8.483-38.392-28.749-38.392-28.749s0.931-2.674,3.117-6.324C279.535,93.778,292.62,110.177,314.317,117.586z"/>
			<path style="fill:none;stroke:#723C2B;stroke-linecap:round;stroke-linejoin:round;stroke-miterlimit:10;" d="M361.958,126.019
				c0,0-25.271,7.284-50.111-1.199c-24.84-8.483-38.392-28.749-38.392-28.749s13.215-38,57.17-22.989
				C374.582,88.091,361.958,126.019,361.958,126.019z"/>
			<path style="fill:#B12B2C;" d="M407.501,99.335c0,0-80.588-9.939-83.396-10.596c-2.808-0.655-70.51-41.664-70.639-42.617
				c-0.016-0.123,0.115-2.288,1.376-2.258c11.431,0.265,77.477,15.354,79.094,15.641c1.857,0.331,74.489,37.566,74.986,37.887
				C409.418,97.713,407.501,99.335,407.501,99.335z"/>
			<path style="fill:#E93038;stroke:#723C2B;stroke-linecap:round;stroke-linejoin:round;stroke-miterlimit:10;" d="M254.842,43.864
				c-1.261-0.029-1.392,2.135-1.376,2.258c0.129,0.953,67.831,41.962,70.639,42.617c2.809,0.656,83.396,10.596,83.396,10.596
				s1.917-1.622,1.421-1.943c0,0-82.61-11.233-84.115-11.596C323.303,85.435,254.842,43.864,254.842,43.864z"/>
			<path style="fill:none;stroke:#723C2B;stroke-linecap:round;stroke-linejoin:round;stroke-miterlimit:10;" d="M407.501,99.335
				c0,0-80.588-9.939-83.396-10.596c-2.808-0.655-70.51-41.664-70.639-42.617c-0.016-0.123,0.115-2.288,1.376-2.258
				c11.431,0.265,77.477,15.354,79.094,15.641c1.857,0.331,74.489,37.566,74.986,37.887
				C409.418,97.713,407.501,99.335,407.501,99.335z"/>
			<g>
				<g>
					<path style="fill:#F9A61A;stroke:#723C2B;stroke-linecap:round;stroke-linejoin:round;stroke-miterlimit:10;" d="
						M368.03,121.697c0.363,0.125,0.776-0.038,0.952-0.393c0.029-0.062,3.079-6.266,5.604-12.911
						c5.258-13.828,3.155-16.102,2.464-16.85c-9.406-10.186-20.995-15.607-29.059-18.362c-8.737-2.984-15.161-3.553-15.43-3.578
						c-0.429-0.036-0.806,0.284-0.844,0.713c-0.036,0.431,0.28,0.808,0.711,0.845c0.259,0.023,25.902,2.415,43.475,21.441
						c2.606,2.822-3.723,18.678-8.323,28.009c-0.191,0.388-0.032,0.857,0.355,1.047C367.966,121.675,367.998,121.687,368.03,121.697
						z"/>
				</g>
				<path style="fill:#F9A61A;stroke:#723C2B;stroke-linecap:round;stroke-linejoin:round;stroke-miterlimit:10;" d="
					M368.959,119.546c-2.27-0.837-12.739,6.265-20.722,32.019c0,0,2.469,3.291,8.176,5.24c5.704,1.949,9.354,0.745,9.354,0.745
					C375.204,132.293,371.229,120.385,368.959,119.546z"/>
				<g>
					<g>
						<g>
							<path style="fill:#723C2B;" d="M368.653,121.234c3.167,12.004-0.398,24.151-4.253,35.567
								c-0.207,0.613,0.76,0.873,0.965,0.266c3.917-11.601,7.47-23.907,4.253-36.099
								C369.453,120.346,368.489,120.61,368.653,121.234L368.653,121.234z"/>
						</g>
					</g>
					<g>
						<g>
							<path style="fill:#723C2B;" d="M368.478,121.048c1.612,12.066-2.296,24.073-6.125,35.385
								c-0.207,0.612,0.759,0.873,0.965,0.266c3.856-11.394,7.784-23.494,6.16-35.65
								C369.394,120.419,368.393,120.411,368.478,121.048L368.478,121.048z"/>
						</g>
					</g>
					<g>
						<g>
							<path style="fill:#723C2B;" d="M368.318,120.994c-0.104,12.036-4.174,23.781-8.014,35.071
								c-0.208,0.612,0.758,0.872,0.965,0.266c3.871-11.381,7.943-23.2,8.049-35.336
								C369.324,120.349,368.324,120.349,368.318,120.994L368.318,120.994z"/>
						</g>
					</g>
					<g>
						<g>
							<path style="fill:#723C2B;" d="M368.178,120.807c-1.999,12.036-6.096,23.666-10.021,35.186
								c-0.208,0.612,0.758,0.873,0.965,0.266c3.924-11.52,8.021-23.149,10.02-35.185
								C369.247,120.442,368.283,120.171,368.178,120.807L368.178,120.807z"/>
						</g>
					</g>
					<g>
						<g>
							<path style="fill:#723C2B;" d="M368.02,120.752c-3.972,11.622-7.939,23.247-11.909,34.871
								c-0.209,0.612,0.758,0.873,0.965,0.266c3.97-11.624,7.937-23.248,11.909-34.871
								C369.193,120.406,368.228,120.146,368.02,120.752L368.02,120.752z"/>
						</g>
					</g>
					<g>
						<g>
							<path style="fill:#723C2B;" d="M367.911,120.579c-5.804,10.782-9.685,22.53-13.646,34.083
								c-0.209,0.612,0.757,0.872,0.965,0.266c3.932-11.471,7.782-23.139,13.544-33.844
								C369.08,120.516,368.217,120.011,367.911,120.579L367.911,120.579z"/>
						</g>
					</g>
					<g>
						<g>
							<path style="fill:#723C2B;" d="M367.753,120.524c-7.342,9.651-11.329,21.524-15.232,32.88
								c-0.21,0.611,0.756,0.872,0.965,0.266c3.878-11.287,7.834-23.05,15.13-32.641
								C369.007,120.516,368.138,120.019,367.753,120.524L367.753,120.524z"/>
						</g>
					</g>
					<g>
						<g>
							<path style="fill:#723C2B;" d="M367.672,120.368c-8.762,8.637-13.064,20.674-16.995,32.077
								c-0.21,0.611,0.756,0.872,0.965,0.266c3.874-11.241,8.1-23.121,16.737-31.636
								C368.839,120.622,368.131,119.915,367.672,120.368L367.672,120.368z"/>
						</g>
					</g>
					<g>
						<g>
							<path style="fill:#723C2B;" d="M367.614,120.237c-10.056,7.69-14.768,19.631-18.782,31.248
								c-0.211,0.611,0.755,0.872,0.965,0.266c3.916-11.333,8.502-23.14,18.321-30.65
								C368.623,120.714,368.126,119.845,367.614,120.237L367.614,120.237z"/>
						</g>
					</g>
				</g>
				<path style="fill:#F9A61A;stroke:#723C2B;stroke-linecap:round;stroke-linejoin:round;stroke-miterlimit:10;" d="
					M365.769,119.627c-0.255,0.75,0.803,1.79,2.368,2.326c1.564,0.533,3.041,0.358,3.296-0.393c0.256-0.749-0.803-1.791-2.367-2.325
					C367.5,118.701,366.023,118.876,365.769,119.627z"/>
			</g>
		</g>
		<g>
			<g>
				<path style="fill:#3879AF;" d="M178.99,434.544c0,4.582-21.146,13.011-47.229,13.011c-26.084,0-47.229-8.429-47.229-13.011
					c0-4.578,21.145-3.576,47.229-3.576C157.845,430.968,178.99,429.966,178.99,434.544z"/>
				<path style="fill:none;stroke:#723C2B;stroke-linecap:round;stroke-linejoin:round;stroke-miterlimit:10;" d="M178.99,434.544
					c0,4.582-21.146,13.011-47.229,13.011c-26.084,0-47.229-8.429-47.229-13.011c0-4.578,21.145-3.576,47.229-3.576
					C157.845,430.968,178.99,429.966,178.99,434.544z"/>
				<path style="fill:#A6E4FF;" d="M182.368,432.349c0,6.475-22.658,11.722-50.606,11.722c-27.95,0-50.606-5.247-50.606-11.722
					c0-6.472,22.656-11.719,50.606-11.719C159.71,420.63,182.368,425.877,182.368,432.349z"/>
				<path style="fill:#A6E4FF;" d="M165.798,430.948c0,3.581-15.239,6.482-34.037,6.482c-18.798,0-34.037-2.901-34.037-6.482
					c0-3.579,15.239-6.48,34.037-6.48C150.56,424.468,165.798,427.369,165.798,430.948z"/>
				<path style="fill:none;stroke:#723C2B;stroke-linecap:round;stroke-linejoin:round;stroke-miterlimit:10;" d="M182.368,432.349
					c0,6.475-22.658,11.722-50.606,11.722c-27.95,0-50.606-5.247-50.606-11.722c0-6.472,22.656-11.719,50.606-11.719
					C159.71,420.63,182.368,425.877,182.368,432.349z"/>
				<path style="fill:none;stroke:#723C2B;stroke-linecap:round;stroke-linejoin:round;stroke-miterlimit:10;" d="M165.798,430.948
					c0,3.581-15.239,6.482-34.037,6.482c-18.798,0-34.037-2.901-34.037-6.482c0-3.579,15.239-6.48,34.037-6.48
					C150.56,424.468,165.798,427.369,165.798,430.948z"/>
			</g>
			<g>
				<g>
					<g>
						<path style="fill:#FFBA9C;" d="M169.95,383.64c0,0,5.311-7.525,22.221-8.672c0,0,8.563,19.781-5.528,30.698
							c-13.395,10.376-23.77,5.067-25.555,10.049c0,0-4.61,0.165-6.179-5.01l3.483-4.347c0,0,4.14,4.161,13.174,2.031
							c9.032-2.129,18.462-10.996,18.688-20.087c0.227-9.092-11.018-10.051-15.611,1.503c0,0-2.093-0.733-6.535,1.059L169.95,383.64
							z"/>
						<g>
							<path style="fill:#DD7057;" d="M167.122,409.969c1.488-0.037,3.06-0.247,4.669-0.626
								c11.384-2.682,19.244-13.033,19.442-21.017c0.063-2.53-0.676-4.639-2.139-6.104c-1.263-1.264-2.999-1.935-4.887-1.889
								c-3.217,0.079-7.508,2.338-10.165,8.374l-0.37,0.959c0.649,0.029,0.971,0.139,0.971,0.139
								c4.594-11.554,15.838-10.595,15.611-1.503c-0.226,9.091-9.655,17.958-18.688,20.087c-9.035,2.13-13.174-2.031-13.174-2.031
								l-0.661,0.825l0.817,0.544C159.849,408.627,162.66,410.076,167.122,409.969z"/>
							<path style="fill:#DD7057;" d="M192.171,374.968c-16.91,1.146-22.221,8.672-22.221,8.672l-0.274,1.069l1.171-0.631
								c0.357-0.438,1.722-1.967,4.496-3.575c2.953-1.714,8.133-3.86,16.179-4.508c1.269,3.417,6.452,19.656-5.48,28.895
								c-7.503,5.814-13.914,6.55-18.595,7.086c-3.202,0.369-5.793,0.666-6.964,2.717l-0.264,0.944
								c0.527,0.087,0.869,0.077,0.869,0.077c1.786-4.982,12.16,0.327,25.555-10.049
								C200.733,394.749,192.171,374.968,192.171,374.968z"/>
						</g>
					</g>
					<path style="fill:none;stroke:#723C2B;stroke-linecap:round;stroke-linejoin:round;stroke-miterlimit:10;" d="M169.95,383.64
						c0,0,5.311-7.525,22.221-8.672c0,0,8.563,19.781-5.528,30.698c-13.395,10.376-23.77,5.067-25.555,10.049
						c0,0-4.61,0.165-6.179-5.01l3.483-4.347c0,0,4.14,4.161,13.174,2.031c9.032-2.129,18.462-10.996,18.688-20.087
						c0.227-9.092-11.018-10.051-15.611,1.503c0,0-2.093-0.733-6.535,1.059L169.95,383.64z"/>
				</g>
				<path style="fill:#FFBA9C;" d="M112.465,425.877h-0.003c3.269-2.602,0.699-5.298-0.707-7.046l18.228-0.446l18.228-0.446
					c-1.319,1.813-3.752,4.633-0.361,7.07h-0.002c4.111,1.854,6.659,4.096,6.699,5.745c-1.316,3.145-12.717,4.943-24.132,5.271
					c-11.417,0.23-22.892-1.005-24.361-4.082C106.014,430.294,108.45,427.932,112.465,425.877z"/>
				<path style="fill:#DD7057;" d="M112.465,425.877c-4.015,2.055-6.451,4.417-6.411,6.065c1.469,3.077,12.944,4.313,24.361,4.082
					c11.415-0.327,22.816-2.126,24.132-5.271c-0.04-1.649-2.588-3.892-6.699-5.745c0,0-3.324,2.126-16.425,2.314
					C117.83,427.52,112.465,425.877,112.465,425.877z"/>
				<path style="fill:none;stroke:#723C2B;stroke-linecap:round;stroke-linejoin:round;stroke-miterlimit:10;" d="M112.465,425.877
					h-0.003c3.269-2.602,0.699-5.298-0.707-7.046l18.228-0.446l18.228-0.446c-1.319,1.813-3.752,4.633-0.361,7.07h-0.002
					c4.111,1.854,6.659,4.096,6.699,5.745c-1.316,3.145-12.717,4.943-24.132,5.271c-11.417,0.23-22.892-1.005-24.361-4.082
					C106.014,430.294,108.45,427.932,112.465,425.877z"/>
				<path style="fill:#723C2B;stroke:#723C2B;stroke-linecap:round;stroke-linejoin:round;stroke-miterlimit:10;" d="
					M130.374,434.323c-10.741,0.217-21.531-0.864-23.995-3.557c-0.217,0.418-0.335,0.814-0.325,1.176
					c1.469,3.077,12.944,4.313,24.361,4.082c11.415-0.327,22.816-2.126,24.132-5.271c-0.009-0.361-0.143-0.751-0.383-1.158
					C151.837,432.404,141.112,434.014,130.374,434.323z"/>
				<path style="fill:#FFBA9C;" d="M85.539,373.604c0.968,39.444,29.624,49.597,44.553,49.23
					c14.93-0.364,43.053-11.908,42.086-51.355L85.539,373.604z"/>
				<path style="fill:#FFCCB6;" d="M144.299,398.302c5.787-7.548,10.144-16.811,12.671-26.449l-71.432,1.751
					c0.715,29.139,16.54,42.289,30.778,47.026C126.91,415.515,136.468,408.252,144.299,398.302z"/>
				<path style="fill:#723C2B;stroke:#723C2B;stroke-linecap:round;stroke-linejoin:round;stroke-miterlimit:10;" d="
					M85.539,373.604c0.033,1.319,0.099,2.602,0.191,3.854c9.913,2.184,25.647,3.467,43.324,3.032
					c17.677-0.434,33.33-2.484,43.123-5.152c0.031-1.257,0.034-2.541,0.001-3.859L85.539,373.604z"/>
				<path style="fill:none;stroke:#723C2B;stroke-linecap:round;stroke-linejoin:round;stroke-miterlimit:10;" d="M85.539,373.604
					c0.968,39.444,29.624,49.597,44.553,49.23c14.93-0.364,43.053-11.908,42.086-51.355L85.539,373.604z"/>
				<path style="fill:#DD7057;stroke:#723C2B;stroke-linecap:round;stroke-linejoin:round;stroke-miterlimit:10;" d="
					M172.179,371.479c0.057,2.305-19.293,4.651-43.217,5.236c-23.924,0.585-43.366-0.806-43.422-3.111
					c-0.056-2.305,19.294-4.648,43.219-5.234C152.683,367.783,172.123,369.174,172.179,371.479z"/>
				<path style="fill:none;stroke:#723C2B;stroke-linecap:round;stroke-linejoin:round;stroke-miterlimit:10;" d="M145.166,425.949
					c0,0-13.247,3.515-32.572-0.036"/>
			</g>
			<g>
				<defs>
					<path id="SVGID_1_" d="M172.179,371.479c0.057,2.305-19.293,4.651-43.217,5.236c-23.924,0.585-43.366-0.806-43.422-3.111
						l-16.604-18.775l-2.796-23.766l49.576-20.244l61.314-5.774c0,0,19.401,14.279,19.669,14.469
						c0.266,0.189-5.123,41.846-5.123,41.846L172.179,371.479z"/>
				</defs>
				<clipPath id="SVGID_00000124153783841026062080000017442824529044408986_">
					<use xlink:href="#SVGID_1_"  style="overflow:visible;"/>
				</clipPath>
				<g style="clip-path:url(#SVGID_00000124153783841026062080000017442824529044408986_);">
					<g>
						<path style="fill:#355F91;" d="M168.373,360.998c-2.587,0.61-5.372,0.992-8.331,1.127c-1.152,0.05-2.127-0.842-2.179-1.994
							c-0.051-1.151,0.841-2.125,1.992-2.177c14.939-0.67,24.428-7.975,24.77-19.066c0.23-7.516-3.337-10.613-6.462-10.981
							c-7.854-0.93-13.547,9.941-13.605,10.05c-0.528,1.025-1.785,1.43-2.811,0.904c-1.025-0.525-1.43-1.783-0.905-2.808
							c0.284-0.555,7.071-13.564,17.811-12.294c6.326,0.75,10.403,6.88,10.145,15.258
							C188.459,349.987,180.691,358.087,168.373,360.998z"/>
						<path style="fill:#3879AF;" d="M186.71,338.952c0.194-6.336-2.446-12.428-8.305-13.119
							c-9.421-1.114-15.706,11.171-15.706,11.171l-1.279,1.644c0.1,0.079,0.207,0.153,0.325,0.213
							c1.026,0.525,2.283,0.121,2.811-0.904c0.058-0.108,5.751-10.979,13.605-10.05c3.125,0.368,6.693,3.466,6.462,10.981
							c-0.341,11.092-9.83,18.397-24.77,19.066c-0.725,0.031-1.346,0.433-1.693,1.01l1.787,1.076
							C175.905,359.325,186.336,351.109,186.71,338.952z"/>
						<path style="fill:none;stroke:#723C2B;stroke-linecap:round;stroke-linejoin:round;stroke-miterlimit:10;" d="
							M168.373,360.998c-2.587,0.61-5.372,0.992-8.331,1.127c-1.152,0.05-2.127-0.842-2.179-1.994
							c-0.051-1.151,0.841-2.125,1.992-2.177c14.939-0.67,24.428-7.975,24.77-19.066c0.23-7.516-3.337-10.613-6.462-10.981
							c-7.854-0.93-13.547,9.941-13.605,10.05c-0.528,1.025-1.785,1.43-2.811,0.904c-1.025-0.525-1.43-1.783-0.905-2.808
							c0.284-0.555,7.071-13.564,17.811-12.294c6.326,0.75,10.403,6.88,10.145,15.258
							C188.459,349.987,180.691,358.087,168.373,360.998z"/>
					</g>
					<g>
						<path style="fill:#A6E4FF;" d="M73.202,342.912c9.682,40.971,41.834,45.27,57.34,41.604
							c15.508-3.666,42.333-21.901,32.65-62.871L73.202,342.912z"/>
						<g>
							<path style="fill:#355F91;" d="M111.923,333.763l15.656,51.32c1.04-0.156,2.034-0.348,2.962-0.566
								c0.931-0.22,1.904-0.494,2.903-0.819l-8.974-52.901L111.923,333.763z"/>
							<path style="fill:#355F91;" d="M129.865,329.522c5.667,18.186,8.366,38.035,9.64,51.667c2.109-1.059,4.257-2.336,6.37-3.848
								c0.639-14.535,0.592-34.522-2.84-50.933L129.865,329.522z"/>
							<path style="fill:#355F91;" d="M158.97,363.001c2.154-13.1,3.592-28.103,2.14-40.863l-12.914,3.052
								c3.724,16.296,3.598,34.313,2.567,48.141C153.813,370.462,156.638,367.036,158.97,363.001z"/>
							<path style="fill:#355F91;" d="M106.532,335.037L93.36,338.15c4.279,16.21,13.185,34.103,20.262,46.817
								c2.565,0.402,5.058,0.585,7.419,0.585C116.076,372.795,109.605,353.834,106.532,335.037z"/>
							<path style="fill:#355F91;" d="M88.201,339.367l-12.913,3.051c4.413,12.065,12.415,24.837,20.207,35.585
								c3.891,2.565,7.95,4.364,11.962,5.562C100.343,371.662,92.167,355.607,88.201,339.367z"/>
						</g>
						<path style="opacity:0.3;fill:#723C2B;" d="M89.921,373.653c13.407,12.258,30.535,13.246,40.621,10.863
							c6.23-1.472,14.289-5.301,21.071-12.008c-6.84,0.794-15.387,1.453-24.672,1.842
							C110.636,375.038,96.523,374.708,89.921,373.653z"/>
						<path style="fill:none;stroke:#723C2B;stroke-linecap:round;stroke-linejoin:round;stroke-miterlimit:10;" d="M73.202,342.912
							c9.682,40.971,41.834,45.27,57.34,41.604c15.508-3.666,42.333-21.901,32.65-62.871L73.202,342.912z"/>
					</g>
					<path style="fill:#3879AF;" d="M73.202,342.912c0.338,1.433,0.708,2.814,1.099,4.159c11.306-0.599,27.769-2.802,45.727-7.047
						c17.958-4.243,33.667-9.644,44.043-14.166c-0.251-1.379-0.54-2.78-0.879-4.213L73.202,342.912z"/>
					<path style="fill:#723C2B;" d="M163.192,321.646c0.565,2.394-19.119,9.096-43.97,14.968
						c-24.85,5.874-45.455,8.693-46.021,6.298c-0.565-2.393,19.122-9.095,43.97-14.967
						C142.023,322.072,162.626,319.251,163.192,321.646z"/>
					<path style="fill:none;stroke:#723C2B;stroke-linecap:round;stroke-linejoin:round;stroke-miterlimit:10;" d="M73.202,342.912
						c0.338,1.433,0.708,2.814,1.099,4.159c11.306-0.599,27.769-2.802,45.727-7.047c17.958-4.243,33.667-9.644,44.043-14.166
						c-0.251-1.379-0.54-2.78-0.879-4.213L73.202,342.912z"/>
					<path style="fill:none;stroke:#723C2B;stroke-linecap:round;stroke-linejoin:round;stroke-miterlimit:10;" d="M163.192,321.646
						c0.565,2.394-19.119,9.096-43.97,14.968c-24.85,5.874-45.455,8.693-46.021,6.298c-0.565-2.393,19.122-9.095,43.97-14.967
						C142.023,322.072,162.626,319.251,163.192,321.646z"/>
				</g>
				<g style="clip-path:url(#SVGID_00000124153783841026062080000017442824529044408986_);">
					<path style="fill:#F9F5E1;stroke:#723C2B;stroke-linecap:round;stroke-linejoin:round;stroke-miterlimit:10;" d="
						M85.078,339.265c0,0-0.637-5.279-0.51-5.877c0.127-0.597,11.995-9.477,13.14-9.931c1.143-0.453,14.021,14.186,14.021,14.186
						s-4.382-0.682-9.906-1.143C93.188,335.779,85.078,339.265,85.078,339.265z"/>
					<g>
						<path style="fill:#723C2B;" d="M91.782,331.016c0.788-0.525,1.456-1.203,2.228-1.748c0.533-0.377-0.094-1.169-0.624-0.794
							c-0.772,0.546-1.441,1.221-2.228,1.746C90.616,330.583,91.243,331.372,91.782,331.016L91.782,331.016z"/>
					</g>
				</g>
				<g style="clip-path:url(#SVGID_00000124153783841026062080000017442824529044408986_);">
					<path style="fill:#F6DC5A;" d="M92.835,334.347c7.442-1.368,15.137-0.518,22.618-1.137c8.58-0.752,15.709-4.591,23.498-7.441
						c4.163-1.488,8.03-3.033,12.368-3.802c2.639-0.426,7-1.094,9.789,0.177c-3.075,3.156-20.284,9.058-41.501,14.058
						c-21.832,5.144-40.312,7.544-43.788,5.825C79.188,337.687,88.177,335.257,92.835,334.347z"/>
					<path style="fill:#FFF7B9;" d="M127.511,332.759c-11.757,3.503-24.721,7.066-36.211,2.25c-0.194-0.083-0.375-0.139-0.563-0.206
						c0.761-0.179,1.471-0.331,2.098-0.456c7.442-1.368,15.137-0.518,22.618-1.137c8.58-0.752,15.709-4.591,23.498-7.441
						c3.757-1.344,7.275-2.727,11.114-3.549c-2.866,1.494-5.59,3.322-7.883,4.599C137.668,329.343,132.506,331.216,127.511,332.759z
						"/>
					<path style="fill:none;stroke:#723C2B;stroke-linecap:round;stroke-linejoin:round;stroke-miterlimit:10;" d="M92.835,334.347
						c7.442-1.368,15.137-0.518,22.618-1.137c8.58-0.752,15.709-4.591,23.498-7.441c4.163-1.488,8.03-3.033,12.368-3.802
						c2.639-0.426,7-1.094,9.789,0.177c-3.075,3.156-20.284,9.058-41.501,14.058c-21.832,5.144-40.312,7.544-43.788,5.825
						C79.188,337.687,88.177,335.257,92.835,334.347z"/>
				</g>
			</g>
			<path style="fill:none;stroke:#723C2B;stroke-linecap:round;stroke-linejoin:round;stroke-miterlimit:10;" d="M172.179,371.479
				c0.057,2.305-19.293,4.651-43.217,5.236c-23.924,0.585-43.366-0.806-43.422-3.111"/>
			<g>
				<path style="fill:#F9F5E1;stroke:#723C2B;stroke-linecap:round;stroke-linejoin:round;stroke-miterlimit:10;" d="
					M117.543,368.444c0,0,6.932,2.336,7.691,3.34c0.758,1,3.623,11.688,2.718,12.657c-0.903,0.971-11.817,2.569-12.774,2.319
					c-0.953-0.25-2.915-11.91-2.6-12.757C112.895,373.158,117.543,368.444,117.543,368.444z"/>
				<path style="fill:#723C2B;" d="M117.06,370.29c-0.141,0.532,0.179,1.075,0.71,1.215c0.532,0.142,1.076-0.179,1.215-0.711
					c0.141-0.53-0.18-1.072-0.709-1.212C117.743,369.442,117.197,369.759,117.06,370.29z"/>
				<g>
					<path style="fill:#F9F5E1;stroke:#723C2B;stroke-linecap:round;stroke-linejoin:round;stroke-miterlimit:10;" d="
						M117.672,370.755c-5.045-10.445-5.88-22.145-9.05-33.173c-1.3-4.523-2.886-9.878-6.329-13.265
						c-2.104-2.072-5.357-2.524-7.929-1.076c-1.753,0.986-2.87,4.47-1.251,6.001c0.409,0.388-0.208,1.003-0.616,0.617
						c-1.407-1.328-1.079-3.583-0.434-5.207c0.809-2.042,2.929-2.924,4.99-3.13c5.544-0.556,8.513,5.205,10.238,9.505
						c5.1,12.702,5.148,26.897,11.134,39.286C118.668,370.819,117.917,371.259,117.672,370.755L117.672,370.755z"/>
				</g>
			</g>
		</g>
	</g>
</g>
<g id="TEXT">
	<g>
		<text transform="matrix(1 0 0 1 109.126 106.6709)" style="fill:#2D386E; font-family:'Neucha'; font-size:39.2319px;">Learn</text>
		<text transform="matrix(1 0 0 1 59.9395 197.1656)" style="fill:#355F91; font-family:'Neucha'; font-size:99.7457px;">English</text>
	</g>
</g>
</svg>
