<?xml version="1.0" encoding="utf-8"?>
<!-- Generator: Adobe Illustrator 27.5.0, SVG Export Plug-In . SVG Version: 6.00 Build 0)  -->
<svg version="1.1" id="Layer_1" xmlns="http://www.w3.org/2000/svg" xmlns:xlink="http://www.w3.org/1999/xlink" x="0px" y="0px"
	 viewBox="0 0 763.864 687.055" style="enable-background:new 0 0 763.864 687.055;" xml:space="preserve">
<g>
	<g>
		<g>
			<path style="fill:#A1DF23;" d="M341.831,481.667c-2.895-4.614-5.764-9.201-8.461-13.772c-5.71-9.667-11.754-18.902-18.369-27.978
				c-3.349-4.595-6.332-9.388-9.94-13.784c-3.208-3.909-7.12-6.86-9.619-11.396c-0.372-0.674-1.339,0.033-1.304,0.613
				c1.001,18.908,14.585,38.363,23.767,54.195c3.775,6.51,7.579,12.998,11.372,19.5
				C334.295,489.728,339.387,488.393,341.831,481.667z"/>
			<path style="fill:#F7D639;" d="M364.433,522.894c-5.618-14.296-14.237-27.894-22.602-41.227
				c-2.444,6.726-7.536,8.061-12.555,7.379c2.688,4.608,5.355,9.222,8.059,13.816c4.941,8.388,10.42,21.358,18.97,26.458
				C360.111,531.586,366.253,527.528,364.433,522.894z"/>
		</g>
		<g>
			<path style="fill:#F7D639;" d="M374.604,452.078c-2.398-4.548-4.81-9.091-7.365-13.566
				c-10.831-18.976-22.093-41.157-38.836-55.773c-0.283-0.249-0.697,0.171-0.605,0.468c6.357,20.689,17.245,40.195,28.342,58.742
				c3.171,5.302,6.354,10.6,9.53,15.904C369.212,457.702,372.518,456.19,374.604,452.078z"/>
			<path style="fill:#A1DF23;" d="M384.813,471.192c-3.529-6.309-6.847-12.722-10.208-19.114c-2.087,4.111-5.392,5.624-8.934,5.775
				c8.078,13.487,16.189,26.95,24.536,40.256c1.747,2.79,5.354-0.194,5.449-2.516C396.009,486.797,388.972,478.617,384.813,471.192z
				"/>
		</g>
		<g>
			<path style="fill:#F7D639;" d="M294.047,499.472c-5.256-8.98-12.691-17.064-19.853-24.551c-0.408-0.428-1.123,0.302-0.957,0.757
				c3.269,9.11,5.985,18.431,9.707,27.367c0.178,0.428,0.358,0.898,0.543,1.39C287.529,504.8,291.529,503.74,294.047,499.472z"/>
			<path style="fill:#A1DF23;" d="M294.251,499.807c-0.065-0.113-0.139-0.224-0.204-0.335c-2.518,4.269-6.518,5.328-10.56,4.963
				c2.268,6.077,5.08,16.448,11.293,17.928c2.114,0.508,4.111-0.471,5.088-2.451C303.488,512.565,297.946,506.199,294.251,499.807z"
				/>
		</g>
		<g>
			<path style="fill:#75008C;" d="M306.073,467.891c-2.258-3.731-4.565-7.432-6.998-11.052
				c-4.297-6.393-10.142-12.291-13.802-18.999c-0.519-0.95-1.901-0.113-2.038,0.678c-1.998,11.449,4.082,24.852,10.164,36.602
				C295.259,470.426,298.937,466.683,306.073,467.891z"/>
			<path style="fill:#1FB2F7;" d="M338.323,527.556c-4.254-6.286-6.533-14.131-10.172-20.871
				c-4.472-8.278-9.146-16.426-13.802-24.607c-2.708-4.754-5.446-9.499-8.276-14.187c-7.137-1.208-10.815,2.535-12.674,7.229
				c2.392,4.623,4.783,8.996,6.683,12.88c7.845,16.036,17.238,34.91,30.419,47.27c0.002-0.027,0.006-0.049,0.012-0.073
				C334.232,538.389,341.554,532.32,338.323,527.556z"/>
		</g>
		<g>
			<path style="fill:#1FB2F7;" d="M343.212,437.089c-9.592-16.236-19.873-32.286-35.03-43.527c-0.572-0.426-1.324,0.309-1.164,0.919
				c5.07,18.702,14.593,35.245,24.416,51.732C332.954,441.126,336.25,436.547,343.212,437.089z"/>
			<path style="fill:#75008C;" d="M372.947,487.485c-6.009-11.482-13.046-22.482-19.781-33.55
				c-3.352-5.506-6.613-11.188-9.954-16.847c-6.962-0.542-10.258,4.037-11.778,9.123c1.826,3.065,3.658,6.132,5.479,9.209
				c11.516,19.437,23.822,39.192,37.444,57.218c2.586,3.422,7.623,0.139,7.517-3.542
				C381.655,501.35,376.463,494.199,372.947,487.485z"/>
		</g>
		<path style="fill:#41986B;" d="M286.67,499.915c0.368,0.685,0.106,1.539-0.581,1.905l0,0c-0.685,0.365-1.538,0.103-1.907-0.582
			l-5.09-10.421c-0.366-0.689-0.104-1.545,0.581-1.91l0,0c0.686-0.362,1.54-0.103,1.907,0.583L286.67,499.915z"/>
		<path style="fill:#75008C;" d="M295.411,467.132c0.369,0.688,0.107,1.539-0.58,1.907l0,0c-0.685,0.364-1.539,0.103-1.907-0.582
			l-6.847-13.194c-0.366-0.688-0.105-1.541,0.583-1.909l0,0c0.685-0.364,1.538-0.104,1.907,0.584L295.411,467.132z"/>
		<path style="fill:#1FB2F7;" d="M332.673,438.222c0.367,0.689,0.105,1.541-0.58,1.905l0,0c-0.688,0.365-1.541,0.107-1.909-0.578
			l-15.466-27.707c-0.366-0.685-0.105-1.541,0.582-1.907l0,0c0.686-0.364,1.539-0.105,1.907,0.584L332.673,438.222z"/>
		<path style="fill:#1FB2F7;" d="M324.824,521.986c0.352,0.693,0.077,1.545-0.614,1.897l0,0c-0.692,0.353-1.544,0.075-1.896-0.614
			l-25.585-48.162c-0.354-0.693-0.077-1.541,0.614-1.894l0,0c0.691-0.354,1.543-0.081,1.896,0.614L324.824,521.986z"/>
		<path style="fill:#75008C;" d="M373.629,504.48c0.39,0.672,0.158,1.535-0.514,1.923l0,0c-0.669,0.395-1.534,0.167-1.925-0.507
			l-36.539-59.75c-0.39-0.672-0.16-1.537,0.51-1.924l0,0c0.671-0.394,1.536-0.166,1.927,0.508L373.629,504.48z"/>
		<path style="fill:#41986B;" d="M352.455,519.933c0.374,0.68,0.132,1.539-0.545,1.919l0,0c-0.678,0.381-1.539,0.135-1.919-0.543
			l-16.479-28.531c-0.378-0.681-0.137-1.541,0.541-1.915l0,0c0.677-0.382,1.539-0.137,1.919,0.541L352.455,519.933z"/>
		<path style="fill:#A1DF23;" d="M291.08,510.634c0.315,0.709,0.002,1.545-0.707,1.862l0,0c-0.705,0.324-1.545,0.008-1.863-0.701
			L286.368,507c-0.318-0.709-0.006-1.547,0.703-1.864l0,0c0.707-0.32,1.547-0.008,1.866,0.705L291.08,510.634z"/>
		<path style="fill:#A1DF23;" d="M388.132,487.133c0.376,0.682,0.133,1.541-0.545,1.917l0,0c-0.677,0.383-1.539,0.139-1.917-0.538
			l-16.48-28.533c-0.379-0.68-0.137-1.539,0.54-1.915l0,0c0.678-0.383,1.541-0.137,1.919,0.54L388.132,487.133z"/>
		<path style="fill:#A1DF23;" d="M331.835,484.468c0.391,0.673,0.161,1.536-0.513,1.925l0,0c-0.671,0.392-1.537,0.162-1.927-0.511
			l-27.308-47.303c-0.39-0.67-0.158-1.537,0.513-1.924l0,0c0.672-0.393,1.537-0.162,1.928,0.514L331.835,484.468z"/>
		<path style="fill:#41986B;" d="M368.012,452.7c0.39,0.673,0.158,1.536-0.513,1.929l0,0c-0.672,0.388-1.537,0.16-1.928-0.511
			l-27.307-47.301c-0.391-0.676-0.161-1.537,0.511-1.932l0,0c0.673-0.386,1.539-0.158,1.927,0.513L368.012,452.7z"/>
		<g>
			<g>
				<path style="fill:#4B1E0A;" d="M341.831,481.667l-11.424-17.296l-5.654-8.688c-1.869-2.903-3.978-5.621-5.955-8.441l-6.037-8.39
					c-1.996-2.816-3.98-5.658-6.063-8.35c-1.035-1.333-2.027-2.805-3.102-4.026c-1.158-1.283-2.316-2.564-3.521-3.765
					c-1.196-1.171-2.371-2.591-3.554-3.91l-1.551-2.26l-0.382-0.568l-0.194-0.285l-0.093-0.142l-0.05-0.075l-0.023-0.033
					c-0.173-0.244,0.21,0.291,0.158,0.224l-0.105-0.121c-0.014-0.014-0.045-0.054-0.043-0.046c0.052,0.076,0.123,0.147,0.206,0.206
					c0.443,0.234,0.58,0.175,0.719,0.159c0.214-0.044,0.22-0.103,0.27-0.131c0.002-0.018,0.062-0.075,0.073-0.143
					c0.052-0.058,0.054-0.337,0.039-0.349l0.09,0.642l0.176,1.283l0.352,2.566l0.353,2.564l0.65,2.408
					c0.448,1.606,0.807,3.221,1.311,4.822l1.788,4.771c0.547,1.612,1.3,3.148,2.017,4.697c0.734,1.541,1.4,3.113,2.187,4.635
					c1.618,3.022,3.157,6.084,4.909,9.051l10.293,17.979c3.371,6.03,6.775,12.041,10.056,18.13l-0.379-0.258
					c1.281,0.189,2.573,0.279,3.858,0.154c0.622-0.137,1.289-0.137,1.886-0.372c0.592-0.237,1.253-0.353,1.78-0.732l0.834-0.491
					c0.301-0.141,0.507-0.402,0.754-0.607l0.732-0.649c0.267-0.2,0.424-0.495,0.632-0.749c0.358-0.544,0.865-1.01,1.112-1.632
					L341.831,481.667z M341.831,481.667l-0.759,1.858c-0.202,0.647-0.673,1.153-1.002,1.741c-0.192,0.275-0.333,0.598-0.592,0.819
					l-0.709,0.735c-0.248,0.233-0.452,0.518-0.757,0.682l-0.853,0.574c-0.547,0.436-1.229,0.602-1.854,0.891
					c-0.632,0.289-1.329,0.335-1.995,0.516c-1.36,0.214-2.738,0.195-4.105,0.075l-0.23-0.017l-0.148-0.237
					c-3.682-5.849-7.237-11.772-10.826-17.674c-3.551-5.922-7.35-11.672-10.811-17.694c-1.8-2.961-3.402-6.057-5.078-9.105
					c-0.817-1.537-1.522-3.139-2.289-4.708c-0.753-1.574-1.537-3.135-2.123-4.795l-1.905-4.909c-0.555-1.68-0.977-3.439-1.464-5.157
					l-0.697-2.599l-0.324-2.57l-0.325-2.571l-0.158-1.283l-0.079-0.642c-0.046-0.222,0.008-0.727,0.112-0.986
					c0.109-0.262,0.252-0.519,0.41-0.69c0.312-0.374,0.711-0.665,1.333-0.819c0.354-0.04,0.709-0.123,1.349,0.229
					c0.135,0.075,0.254,0.17,0.357,0.262l0.065,0.073l0.105,0.124l0.859,1.272l1.349,2.028c1.117,1.262,2.121,2.527,3.377,3.795
					c1.228,1.252,2.368,2.547,3.509,3.842c1.191,1.387,2.109,2.809,3.181,4.209c4.193,5.606,7.898,11.339,11.778,17.138
					c1.888,2.903,3.924,5.728,5.689,8.698l5.298,8.908C335,469.661,338.456,475.632,341.831,481.667z"/>
			</g>
			<g>
				<path style="fill:#4B1E0A;" d="M364.433,522.894c-1.642-3.562-3.2-7.162-4.915-10.693c-1.907-3.432-3.86-6.83-5.843-10.201
					l-6.354-9.891l-6.554-9.776l2.242-0.235l-0.857,1.99c-0.234,0.684-0.757,1.256-1.135,1.888c-0.221,0.299-0.383,0.64-0.674,0.89
					l-0.804,0.81c-0.279,0.254-0.514,0.564-0.857,0.749l-0.97,0.617c-0.624,0.466-1.375,0.648-2.078,0.945
					c-0.705,0.301-1.459,0.341-2.192,0.513c-1.474,0.2-2.935,0.152-4.363-0.012l1.454-2.175c2.585,4.474,5.145,8.966,7.635,13.497
					c2.5,4.571,4.629,9.328,7.126,13.797c0.593,1.148,1.27,2.231,1.941,3.325c0.646,1.111,1.353,2.181,2.133,3.194
					c0.744,1.042,1.491,2.088,2.398,2.988c0.865,0.941,1.691,1.941,2.765,2.652c1.028,0.736,1.973,1.729,3.221,1.977
					c1.23,0.281,2.566,0.052,3.711-0.507c1.15-0.559,2.169-1.446,2.749-2.603C364.812,525.5,364.912,524.106,364.433,522.894z
					 M364.433,522.894c0.495,1.204,0.418,2.606-0.17,3.767c-0.572,1.175-1.589,2.092-2.751,2.672
					c-1.159,0.568-2.495,0.899-3.811,0.643c-1.364-0.226-2.329-1.182-3.41-1.89c-1.121-0.696-2.036-1.624-2.983-2.528
					c-0.994-0.86-1.821-1.868-2.653-2.874c-0.872-0.982-1.662-2.022-2.395-3.098c-0.763-1.062-1.529-2.125-2.206-3.236
					c-1.427-2.179-2.741-4.422-4.065-6.648c-1.281-2.214-2.646-4.44-3.975-6.621c-2.722-4.4-5.369-8.845-7.996-13.303l-1.475-2.508
					l2.929,0.333c1.218,0.141,2.428,0.202,3.599,0.06c0.559-0.139,1.171-0.141,1.691-0.372c0.517-0.228,1.104-0.327,1.551-0.68
					c0.474-0.309,0.994-0.547,1.378-0.982l0.634-0.578c0.238-0.171,0.369-0.452,0.551-0.678c0.314-0.503,0.765-0.899,0.978-1.483
					l0.798-1.649l1.082-2.238l1.158,2l5.9,10.202l5.68,10.343c1.745,3.539,3.47,7.068,5.269,10.554L364.433,522.894z"/>
			</g>
		</g>
		<g>
			<g>
				<path style="fill:#4B1E0A;" d="M374.604,452.078c-3.651-6.011-7.02-12.165-10.721-18.145
					c-3.596-6.039-7.113-12.119-10.837-18.051c-1.913-2.927-3.733-5.926-5.762-8.762l-2.952-4.321l-3.159-4.157
					c-2.036-2.834-4.423-5.357-6.702-7.974c-1.096-1.353-2.431-2.462-3.66-3.674l-1.878-1.791l-0.938-0.891l-0.468-0.452
					l-0.029-0.023c0.097,0.063-0.258-0.187,0.208,0.139l-0.071-0.04l-0.038-0.023c0.026,0.02,0.139,0.085,0.221,0.107
					c0.172,0.069,0.394,0.081,0.536,0.055c0.376-0.045,0.541-0.226,0.647-0.338c0.102-0.137,0.216-0.296,0.212-0.699
					c-0.008-0.108-0.029-0.194-0.071-0.304l0.03,0.082l0.058,0.152l0.23,0.615l0.455,1.234l0.913,2.474l1.774,4.963l1.767,4.964
					c0.593,1.651,1.402,3.183,2.09,4.782l4.308,9.509c1.472,3.153,3.221,6.207,4.814,9.32c1.662,3.078,3.14,6.255,4.916,9.285
					l5.136,9.184l10.369,18.355l-0.346-0.189c0.906-0.027,1.81-0.127,2.691-0.349c0.426-0.147,0.881-0.233,1.287-0.432
					c0.398-0.21,0.848-0.341,1.212-0.614c0.786-0.467,1.501-1.06,2.125-1.736c0.287-0.358,0.628-0.684,0.876-1.076L374.604,452.078z
					 M374.604,452.078l-0.667,1.239c-0.218,0.416-0.535,0.769-0.8,1.159c-0.581,0.738-1.27,1.412-2.053,1.96
					c-0.364,0.315-0.825,0.477-1.235,0.727c-0.42,0.235-0.892,0.353-1.335,0.538c-0.919,0.29-1.869,0.446-2.826,0.531l-0.216,0.023
					l-0.131-0.21c-3.791-5.922-7.605-11.819-11.251-17.836l-5.477-9.023c-1.867-2.982-3.539-6.092-5.227-9.185
					c-1.647-3.122-3.435-6.156-4.967-9.349l-4.504-9.643c-0.717-1.616-1.568-3.197-2.181-4.845l-1.824-4.945l-1.82-4.943
					l-0.885-2.479l-0.441-1.242l-0.222-0.62l-0.054-0.158l-0.03-0.075c-0.053-0.158-0.075-0.309-0.091-0.467
					c-0.023-0.622,0.189-0.997,0.428-1.3c0.239-0.295,0.607-0.586,1.192-0.68c0.351-0.12,1.204,0.252,1.04,0.202l0.071,0.042
					c0.482,0.345,0.15,0.113,0.265,0.198l0.03,0.027l0.479,0.468l0.958,0.935l1.919,1.869c1.252,1.268,2.617,2.433,3.726,3.829
					c2.308,2.703,4.722,5.329,6.76,8.234l3.165,4.27l2.94,4.414c2.011,2.916,3.694,6.021,5.528,9.035
					C361.896,427,368.412,439.446,374.604,452.078z"/>
			</g>
			<g>
				<path style="fill:#4B1E0A;" d="M384.813,471.192c-3.436-6.356-6.926-12.678-10.611-18.893l0.814-0.01l-0.693,1.277
					c-0.229,0.432-0.56,0.8-0.836,1.204c-0.609,0.769-1.332,1.47-2.154,2.044c-0.384,0.331-0.859,0.507-1.293,0.769
					c-0.438,0.249-0.927,0.376-1.392,0.57c-0.957,0.309-1.943,0.479-2.938,0.574l0.722-1.331c3.784,5.698,7.56,11.397,11.13,17.223
					c3.623,5.789,7.078,11.682,10.474,17.619l2.501,4.48c0.428,0.805,0.792,1.414,1.145,1.545c0.396,0.177,1.044,0.079,1.634-0.316
					c0.593-0.367,1.113-0.943,1.42-1.569c0.161-0.307,0.252-0.649,0.252-0.923l-0.029-1.279c0.089-1.759-0.36-3.304-0.664-4.943
					c-0.561-1.58-1.035-3.216-1.806-4.735c-0.688-1.56-1.567-3.024-2.381-4.525C388.388,477.019,386.486,474.173,384.813,471.192z
					 M384.813,471.192c1.743,2.937,3.607,5.801,5.483,8.664c0.883,1.464,1.834,2.892,2.596,4.436
					c0.894,1.474,1.504,3.094,2.205,4.684c0.459,1.691,1.052,3.436,1.087,5.128l0.125,1.277c0.041,0.578-0.077,1.088-0.268,1.561
					c-0.378,0.939-0.99,1.726-1.801,2.335c-0.775,0.599-1.935,1.078-3.19,0.689c-1.307-0.507-1.765-1.566-2.214-2.183l-2.836-4.277
					c-3.72-5.736-7.378-11.521-10.871-17.401c-3.543-5.851-6.883-11.825-10.212-17.805l-0.723-1.297l1.441-0.034
					c0.874-0.02,1.739-0.103,2.581-0.309c0.404-0.135,0.84-0.21,1.227-0.396c0.381-0.198,0.811-0.313,1.159-0.576
					c0.744-0.438,1.426-1.002,2.02-1.649c0.277-0.345,0.604-0.654,0.844-1.032l0.729-1.133l0.469-0.735l0.345,0.726
					C378.126,458.388,381.441,464.805,384.813,471.192z"/>
			</g>
		</g>
		<g>
			<g>
				<path style="fill:#4B1E0A;" d="M294.047,499.472c-1.689-2.067-3.252-4.221-4.882-6.325c-1.801-1.953-3.44-3.997-5.167-5.968
					c-1.82-1.925-3.678-3.801-5.446-5.758l-2.781-2.834l-1.384-1.42l-0.686-0.721l-0.343-0.358l-0.17-0.181
					c0.521,0.42-0.131-0.063,0.193,0.171c0.934,0.305,0.888-0.024,1.034-0.024c0.081-0.075,0.121-0.108,0.183-0.261
					c0.124-0.058-0.071-0.859,0.033-0.435l0.162,0.469l0.658,1.882l1.289,3.768l2.505,7.564c0.848,2.502,1.741,4.987,2.558,7.507
					c0.823,2.524,1.584,5.036,2.464,7.579l-0.705-0.526c0.976,0.118,1.952,0.146,2.929,0.106c0.478-0.063,0.973-0.085,1.452-0.176
					c0.463-0.137,0.958-0.204,1.412-0.391c0.438-0.208,0.931-0.341,1.341-0.618c0.399-0.281,0.873-0.491,1.235-0.84
					c0.354-0.348,0.778-0.646,1.117-1.027L294.047,499.472z M294.047,499.472l-0.772,1.358c-0.268,0.454-0.638,0.836-0.975,1.248
					c-0.332,0.42-0.79,0.711-1.186,1.075c-0.406,0.358-0.907,0.576-1.367,0.872c-0.471,0.273-0.996,0.426-1.499,0.648
					c-0.515,0.178-1.052,0.277-1.582,0.416c-1.08,0.19-2.167,0.218-3.252,0.182l-0.481-0.01l-0.224-0.513
					c-1.068-2.402-2.064-4.902-3.104-7.355c-1.024-2.464-1.967-4.964-2.957-7.443l-2.637-7.518l-1.281-3.775l-0.63-1.892
					l-0.156-0.473c-0.014,0.118-0.285-1.03-0.04-1.406c0.169-0.46,0.41-0.776,0.751-1.054c0.192-0.135,0.36-0.262,0.67-0.354
					c0.17-0.042,0.222-0.081,0.495-0.093c0.259-0.009,0.552,0.051,0.792,0.152c0.326,0.154,0.152,0.085,0.253,0.137l0.052,0.035
					l0.026,0.016l0.283,0.234l0.172,0.182l0.339,0.369l0.679,0.736l1.341,1.479l2.676,2.973c1.749,2.026,3.389,4.143,5.078,6.211
					c1.566,2.198,3.183,4.35,4.664,6.575C291.484,494.802,292.814,497.105,294.047,499.472z"/>
			</g>
			<g>
				<path style="fill:#4B1E0A;" d="M294.251,499.807l-0.21-0.331h0.01l-0.867,1.287c-0.299,0.42-0.691,0.765-1.036,1.153
					c-0.345,0.39-0.806,0.646-1.196,0.994c-0.401,0.337-0.893,0.534-1.341,0.81c-0.457,0.252-0.97,0.387-1.459,0.589
					c-0.501,0.152-1.021,0.263-1.535,0.4c-1.044,0.188-2.108,0.258-3.175,0.25l0.537-0.705c1.684,3.842,3.281,7.714,5.317,11.15
					c1.042,1.676,2.135,3.333,3.557,4.377c0.664,0.598,1.43,0.927,2.2,1.192c-0.008,0.012,0.442,0.075,0.638,0.114
					c0.221,0.019,0.3-0.021,0.46,0.006c0.339-0.01,0.697-0.091,1.032-0.216c0.661-0.257,1.253-0.883,1.638-1.474
					c0.224-0.463,0.495-0.946,0.683-1.386c0.129-0.432,0.339-0.824,0.431-1.295c0.224-0.922,0.37-1.886,0.305-2.864
					c-0.012-0.986-0.212-1.971-0.443-2.955c-0.539-1.961-1.387-3.878-2.4-5.694C296.424,503.365,295.261,501.629,294.251,499.807z
					 M294.251,499.807c2.103,3.603,4.747,6.835,6.508,10.764c0.391,0.999,0.755,2.034,0.925,3.13
					c0.222,1.089,0.222,2.229,0.109,3.357c-0.036,0.566-0.218,1.153-0.335,1.737c-0.15,0.541-0.333,1.002-0.497,1.505
					c-0.515,1.283-1.398,2.281-2.62,2.947c-0.616,0.307-1.264,0.519-1.967,0.602c-0.36,0.03-0.804,0.04-1.104,0.011
					c-0.315-0.054-0.388-0.032-0.9-0.144c-1.212-0.341-2.393-0.872-3.319-1.641c-1.882-1.532-3.128-3.45-4.078-5.408
					c-1.921-3.93-2.787-8.075-3.975-12.044l-0.244-0.818l0.778,0.111c0.994,0.145,1.996,0.216,3.007,0.173
					c0.495-0.067,1.008-0.08,1.501-0.192c0.478-0.154,0.988-0.244,1.452-0.45c0.445-0.228,0.946-0.382,1.366-0.677
					c0.41-0.299,0.873-0.547,1.224-0.923c0.351-0.377,0.751-0.705,1.058-1.117l0.901-1.258h0.01L294.251,499.807z"/>
			</g>
		</g>
		<g>
			<g>
				<path style="fill:#4B1E0A;" d="M306.073,467.891c-1.963-2.599-3.817-5.265-5.712-7.902c-0.994-1.339-1.807-2.643-2.849-3.901
					l-3.021-3.819c-2.079-2.457-4.204-4.888-6.202-7.525c-1.056-1.248-1.909-2.697-2.839-4.078l-1.368-2.098
					c0.314,0.396-0.424-0.42,0.145,0.163c0.231,0.095,0.297,0.091,0.337,0.101c0.073-0.01,0.102-0.02,0.102-0.008
					c0.048-0.031-0.122,0.089-0.081,0.065c0.098-0.4,0,0.279-0.016,0.638l-0.104,1.212c-0.057,0.804-0.154,1.626-0.176,2.416
					c0.142,1.517,0.17,3.005,0.354,4.536c0.303,1.542,0.487,3.102,0.881,4.63c0.439,1.525,0.799,3.066,1.3,4.575
					c0.53,1.505,1.006,3.026,1.578,4.522l1.805,4.462c1.247,2.967,2.572,5.918,3.959,8.844l-1.574,0.081
					c0.318-0.628,0.613-1.266,0.954-1.874c0.408-0.582,0.749-1.202,1.21-1.736c0.516-0.5,0.919-1.088,1.523-1.488
					c0.582-0.403,1.101-0.892,1.776-1.145l0.957-0.443c0.303-0.175,0.671-0.19,1.002-0.289l1.01-0.233
					c0.331-0.111,0.686-0.056,1.024-0.086c0.686,0.008,1.366-0.12,2.035,0.05L306.073,467.891z M306.073,467.891l-1.999-0.03
					c-0.663-0.062-1.309,0.152-1.954,0.204c-0.319,0.069-0.656,0.048-0.955,0.19l-0.911,0.325c-0.289,0.122-0.62,0.162-0.879,0.364
					l-0.81,0.495c-0.572,0.273-0.986,0.78-1.457,1.184c-0.487,0.393-0.787,0.98-1.189,1.45c-0.375,0.499-0.64,1.085-0.967,1.618
					c-0.272,0.568-0.495,1.166-0.747,1.749l-0.705,1.63l-0.869-1.551c-1.59-2.842-3.133-5.72-4.604-8.649
					c-1.418-2.955-2.697-5.987-3.826-9.099c-0.564-1.555-0.951-3.183-1.433-4.771c-0.43-1.604-0.657-3.28-0.994-4.92
					c-0.241-1.68-0.243-3.45-0.351-5.169c0.038-0.824,0.141-1.622,0.208-2.433l0.115-1.212c0.11-0.438-0.115-0.62,0.376-1.746
					c0.44-0.733,0.971-1.138,1.787-1.4c0.189-0.065,0.415-0.109,0.696-0.092c0.246,0,0.512,0.006,0.921,0.216
					c0.183,0.096,0.353,0.21,0.495,0.333c0.157,0.137,0.1,0.107,0.159,0.169l0.097,0.112l0.048,0.064l0.208,0.301l1.233,2.022
					c0.836,1.337,1.579,2.728,2.579,3.999c1.875,2.578,3.761,5.25,5.729,7.866l2.759,4.021c0.961,1.299,1.759,2.824,2.533,4.209
					C302.945,462.185,304.564,465.003,306.073,467.891z"/>
			</g>
			<g>
				<path style="fill:#4B1E0A;" d="M338.323,527.556l-2.143-3.66c-0.765-1.192-1.314-2.499-1.919-3.78
					c-1.216-2.558-2.355-5.148-3.522-7.721l-1.886-3.793c-0.6-1.275-1.295-2.499-2.044-3.705l-4.337-7.294l-8.681-14.593
					c-2.932-4.787-5.96-9.603-8.855-14.454l0.917,0.632l-1.827-0.131c-0.616-0.108-1.185,0.073-1.777,0.098
					c-0.287,0.051-0.6,0.012-0.865,0.13l-0.822,0.25c-0.265,0.099-0.57,0.111-0.804,0.279l-0.744,0.404
					c-0.531,0.216-0.917,0.659-1.371,1.002c-0.465,0.327-0.769,0.865-1.166,1.277c-0.367,0.453-0.636,1.006-0.963,1.501
					c-0.273,0.535-0.507,1.105-0.765,1.656l-0.061-1.2l4.068,7.914c1.36,2.638,2.711,5.266,3.945,7.958l3.826,7.989
					c1.26,2.67,2.63,5.275,3.941,7.924c1.426,2.572,2.751,5.215,4.27,7.742l2.272,3.794c0.724,1.286,1.608,2.464,2.413,3.7
					c0.838,1.212,1.62,2.468,2.503,3.648l2.716,3.493c0.867,1.198,1.869,2.283,2.895,3.345l3.034,3.229l-0.177,0.065l0.014-0.087
					l0.028-0.167l0.143,0.115c0.469,0.368,0.996,0.666,1.588,0.8c0.593,0.115,1.208,0.121,1.803-0.012
					c1.19-0.253,2.285-0.889,3.175-1.723c0.881-0.836,1.578-1.909,1.844-3.109c0.125-0.602,0.141-1.216,0.031-1.822
					C338.904,528.641,338.633,528.091,338.323,527.556z M338.323,527.556c0.315,0.533,0.593,1.081,0.716,1.691
					c0.116,0.602,0.11,1.228-0.013,1.834c-0.253,1.212-0.944,2.299-1.828,3.157c-0.887,0.852-1.99,1.509-3.204,1.778
					c-0.608,0.139-1.235,0.15-1.855,0.052c-0.622-0.121-1.185-0.412-1.695-0.793l0.172-0.055l-0.01,0.06l-0.027,0.223l-0.15-0.161
					c-2.038-2.139-4.311-4.088-6.172-6.396l-2.909-3.379c-0.949-1.141-1.801-2.359-2.705-3.537c-0.874-1.2-1.83-2.35-2.625-3.604
					l-2.481-3.704c-1.659-2.47-3.129-5.052-4.703-7.577c-2.957-5.145-5.857-10.358-8.503-15.646l-8.219-15.713l-0.327-0.628
					l0.268-0.572c0.311-0.654,0.594-1.321,0.933-1.965c0.406-0.62,0.747-1.275,1.216-1.857c0.52-0.552,0.919-1.193,1.543-1.653
					c0.607-0.47,1.147-1.022,1.866-1.331l1.022-0.536c0.329-0.208,0.719-0.248,1.077-0.373l1.104-0.307
					c0.364-0.131,0.738-0.091,1.109-0.143c0.736-0.02,1.501-0.188,2.212-0.058l2.161,0.231l0.592,0.062l0.325,0.568
					c2.798,4.928,5.489,9.871,8.229,14.872l7.926,15.011l3.962,7.504c0.677,1.235,1.313,2.512,1.891,3.809l1.772,3.86
					c1.086,2.616,2.146,5.238,3.352,7.793c0.592,1.285,1.127,2.599,1.88,3.799L338.323,527.556z"/>
			</g>
		</g>
		<g>
			<g>
				<path style="fill:#4B1E0A;" d="M343.212,437.089c-2.696-3.996-5.324-8.032-8.077-11.968l-4.181-5.858
					c-1.464-1.896-2.88-3.826-4.377-5.688c-1.559-1.81-3.042-3.684-4.656-5.437c-1.678-1.691-3.183-3.541-4.91-5.169
					c-1.763-1.588-3.391-3.331-5.256-4.795l-2.774-2.214l-1.391-1.107c-0.391-0.36-0.125,0.087,0.441-0.06
					c0.26-0.108,0.273-0.154,0.345-0.337c0.034-0.033,0.006-0.38,0-0.305l0.135,0.432l0.27,0.859l0.538,1.724l1.076,3.446
					l2.393,6.694l2.723,6.612l3.009,6.508c2.133,4.284,4.339,8.534,6.565,12.791c2.273,4.228,4.608,8.431,6.959,12.634l-1.287,0.158
					l0.778-1.959c0.335-0.626,0.64-1.262,0.998-1.867l0.616-0.864c0.218-0.281,0.378-0.598,0.646-0.838
					c0.521-0.484,0.949-1.064,1.541-1.455c0.608-0.36,1.115-0.884,1.799-1.098c0.665-0.226,1.267-0.63,1.977-0.677
					c0.69-0.079,1.362-0.302,2.052-0.25L343.212,437.089z M343.212,437.089l-2.034,0.133c-0.674,0.02-1.31,0.312-1.953,0.446
					c-0.665,0.103-1.212,0.542-1.813,0.796c-0.617,0.237-1.053,0.782-1.586,1.148c-0.515,0.4-0.867,0.979-1.31,1.45
					c-0.228,0.233-0.353,0.553-0.532,0.823l-0.501,0.84c-0.287,0.589-0.523,1.206-0.788,1.803l-0.583,1.886l-0.453,1.475
					l-0.834-1.316c-2.582-4.064-5.103-8.176-7.602-12.306l-3.644-6.267l-3.379-6.425l-3.157-6.548l-2.88-6.694
					c-0.843-2.289-1.762-4.573-2.538-6.878l-1.022-3.462l-0.513-1.729l-0.256-0.869l-0.129-0.434
					c-0.077-0.206-0.154-0.868-0.025-1.188c0.228-0.761,0.684-1.313,1.509-1.616c1.161-0.366,2.015,0.453,2.05,0.491l1.416,1.166
					l2.831,2.335c1.9,1.543,3.547,3.355,5.331,5.022c1.729,1.721,3.298,3.586,4.906,5.408c1.559,1.868,2.977,3.843,4.468,5.756
					c2.828,3.941,5.531,7.953,7.999,12.104C338.619,428.622,341.007,432.802,343.212,437.089z"/>
			</g>
			<g>
				<path style="fill:#4B1E0A;" d="M372.947,487.485l-7.296-12.681c-1.24-2.098-2.44-4.225-3.77-6.272l-3.934-6.168
					c-2.63-4.103-5.304-8.183-7.854-12.342l-7.728-12.424l0.768,0.475l-1.882,0.071c-0.632-0.002-1.202,0.252-1.801,0.358
					c-0.619,0.071-1.103,0.476-1.655,0.691c-0.572,0.2-0.965,0.703-1.46,1.024c-0.482,0.354-0.812,0.891-1.229,1.318
					c-0.214,0.208-0.339,0.512-0.518,0.761l-0.495,0.776c-0.283,0.553-0.526,1.137-0.796,1.699l-0.611,1.811l-0.129-1.042
					c4.951,8.07,9.839,16.148,14.691,24.277l7.405,12.067c2.46,4.03,5.044,7.981,7.56,11.98c1.289,1.977,2.479,4.026,3.855,5.945
					l4.013,5.839l4.021,5.842c0.672,1.046,1.306,1.894,2.357,2.115c1.016,0.292,2.16-0.091,3.077-0.696
					c0.896-0.652,1.662-1.573,1.967-2.662c0.325-1.073,0.01-2.262-0.046-3.446c-0.116-1.173-0.475-2.289-0.721-3.439
					c-0.406-1.104-0.721-2.246-1.204-3.327C377.69,495.688,375.136,491.677,372.947,487.485z M372.947,487.485
					c2.234,4.167,4.803,8.16,6.724,12.497c0.519,1.067,0.865,2.211,1.304,3.308c0.283,1.153,0.681,2.306,0.829,3.478
					c0.081,1.163,0.452,2.353,0.131,3.601c-0.299,1.209-1.073,2.258-2.044,3.026c-0.988,0.726-2.281,1.254-3.599,0.961
					c-0.655-0.099-1.251-0.47-1.772-0.909c-0.422-0.406-0.83-0.95-1.158-1.396l-4.294-5.662l-4.296-5.668
					c-1.47-1.864-2.753-3.858-4.14-5.781c-2.689-3.899-5.52-7.714-8.1-11.691l-7.707-11.962
					c-4.947-8.059-9.813-16.197-14.515-24.404l-0.314-0.547l0.185-0.499l0.749-2.034c0.33-0.655,0.63-1.324,0.99-1.964l0.621-0.929
					c0.223-0.302,0.381-0.639,0.664-0.901c0.541-0.529,0.99-1.147,1.618-1.587c0.647-0.408,1.194-0.975,1.927-1.224
					c0.713-0.262,1.373-0.701,2.131-0.78c0.737-0.108,1.474-0.364,2.209-0.337l2.198,0.027l0.505,0.003l0.266,0.473l7.153,12.771
					c2.357,4.271,4.841,8.465,7.282,12.691l3.7,6.311c1.273,2.078,2.414,4.236,3.596,6.372L372.947,487.485z"/>
			</g>
		</g>
		<path style="fill:#4B1E0A;" d="M77.861,523.52c0.114,0.039,0.216,0.114,0.33,0.164C78.197,523.656,78.116,523.61,77.861,523.52z"
			/>
		<g>
			<path style="fill:#FF7F9D;" d="M336.61,378.771c-12.339-3.676-24.414,5.063-33.594,12.543
				c-12.133,9.885-18.801,27.391-23.998,41.648c-13.349,36.6-13.832,76.666-23.459,114.189
				c-9.983,38.909-28.549,80.482-65.294,101.315c-15.87,8.999-35.877,12.485-53.783,9.865c-9.935-1.452-19.465-3.968-28.09-9.224
				c-5.714-3.477-14.688-7.59-15.709-14.945c-0.056-0.416-0.603-0.237-0.595,0.119c0.275,9.964,14.476,18.874,21.956,23.469
				c12.06,7.407,27.904,11.757,42.066,10.561c38.51-3.25,66.276-28.694,86.84-59.927c21.683-32.942,27.61-75.984,32.6-114.227
				c2.811-21.526,6.581-44.642,14.351-64.972c7.206-18.858,21.499-45.229,45.131-46.015
				C336.984,383.104,339.248,379.563,336.61,378.771z"/>
			<g>
				<path style="fill:#4B1E0A;" d="M336.61,378.771c0,0-0.84-0.186-2.47-0.561c-1.647-0.231-4.149-0.485-7.344,0.058
					c-3.179,0.543-7.018,1.824-11.091,4.147c-4.096,2.277-8.475,5.47-13.071,9.355c-9.326,7.873-16.195,21.31-21.915,37.036
					c-1.526,3.922-2.763,8.068-4.129,12.327c-0.657,2.131-1.416,4.273-2.013,6.488c-0.546,2.228-1.103,4.485-1.663,6.773
					c-0.555,2.289-1.119,4.606-1.688,6.951c-0.46,2.375-0.919,4.775-1.391,7.203c-0.98,4.85-1.818,9.846-2.599,14.963
					c-3.347,20.4-5.658,42.783-11.605,65.849c-5.964,22.914-14.755,46.914-29.982,68.184c-7.641,10.544-17.06,20.167-28.145,27.844
					l-4.286,2.69l-2.155,1.341c-0.829,0.47-1.513,0.782-2.275,1.183c-1.503,0.751-2.961,1.557-4.506,2.258l-4.783,1.937
					c-6.439,2.306-13.083,4.168-19.945,4.914c-6.827,0.83-13.799,1.083-20.704,0.204l-2.639-0.27l-2.529-0.447l-5.059-0.911
					c-3.377-0.937-6.858-1.574-10.095-2.949c-1.626-0.655-3.333-1.115-4.894-1.935l-4.693-2.437
					c-3.058-1.682-5.976-3.331-8.981-5.296c-2.912-1.971-5.898-4.337-7.635-7.874c-0.418-0.874-0.761-1.81-0.934-2.785l-0.077-0.36
					c0.002,0.008-0.11-0.532-0.012-0.071c-0.285-0.258,0.899,1.21,1.173,0.788c0.436-0.039,0.649-0.189,0.857-0.451
					c0.229-0.111,0.196-1.038,0.202-0.689l0.037,0.325l0.073,0.64c0.046,0.94,0.347,1.487,0.505,2.206
					c0.313,0.699,0.557,1.452,0.977,2.133c3.173,5.606,8.792,9.856,14.361,13.638c5.678,3.839,11.617,7.168,17.928,9.451
					c6.327,2.329,12.958,3.847,19.637,4.344c3.331,0.273,6.704,0.188,9.968-0.093c3.395-0.385,6.785-0.772,10.002-1.51
					c6.521-1.31,12.958-3.323,18.989-6.084c6.078-2.676,11.857-5.97,17.215-9.796c5.404-3.755,10.461-7.966,15.109-12.532
					c4.711-4.5,9.029-9.352,13.056-14.365c4.073-4.965,7.759-10.23,11.243-15.452c3.43-5.385,6.531-10.744,9.132-16.385
					c5.375-11.166,9.166-22.762,12.21-34.18c6.055-22.903,8.819-45.207,11.715-65.694c0.788-5.113,1.426-10.14,2.288-15.02
					c0.891-4.877,1.763-9.638,2.614-14.284c1.099-4.587,2.17-9.059,3.212-13.406c0.264-1.087,0.521-2.164,0.78-3.234
					c0.343-1.047,0.682-2.089,1.017-3.121c0.677-2.064,1.347-4.092,2.002-6.092c5.013-16.054,12.295-29.171,20.29-38.229
					c8-9.145,17.223-13.293,23.63-13.978c1.6-0.206,3.058-0.206,4.236-0.522c1.123-0.526,1.751-1.481,1.965-2.273
					c0.266-0.83-0.19-1.468-0.541-1.662C336.828,378.822,336.601,378.789,336.61,378.771z M336.61,378.771
					c-0.01,0.018,0.218,0.048,0.574,0.273c0.353,0.2,0.815,0.838,0.553,1.676c-0.214,0.79-0.84,1.751-1.967,2.287
					c-1.196,0.325-2.64,0.327-4.24,0.541c-6.395,0.709-15.583,4.882-23.526,14.034c-7.942,9.07-15.159,22.182-20.101,38.233
					c-0.649,1.995-1.307,4.028-1.977,6.091c-0.329,1.029-0.665,2.065-1.002,3.113c-0.254,1.069-0.509,2.148-0.768,3.232
					c-1.022,4.345-2.075,8.813-3.157,13.403c-0.819,4.639-1.661,9.4-2.524,14.272c-0.815,4.88-1.402,9.918-2.142,15.036
					c-2.691,20.498-5.236,42.866-11.093,65.93c-2.943,11.507-6.645,23.217-11.964,34.561c-2.558,5.696-5.72,11.289-9.063,16.65
					c-3.512,5.377-7.146,10.669-11.226,15.753c-4.022,5.108-8.346,10.067-13.089,14.69c-4.681,4.686-9.784,9.027-15.272,12.917
					c-5.44,3.961-11.36,7.34-17.583,10.117c-6.201,2.859-12.756,4.943-19.533,6.333c-3.411,0.788-6.788,1.177-10.166,1.577
					c-3.52,0.32-6.989,0.416-10.479,0.146c-6.964-0.495-13.832-2.038-20.401-4.429c-6.633-2.377-12.802-5.825-18.552-9.677
					c-5.722-3.909-11.615-8.132-15.345-14.62c-0.478-0.794-0.79-1.699-1.158-2.575c-0.254-0.952-0.612-2.027-0.634-2.824
					l-0.071-0.645l-0.038-0.32c-0.021,0.143-0.054-1.023,0.313-1.3c0.335-0.436,0.743-0.725,1.398-0.761
					c0.481-0.436,1.899,1.167,1.646,1.136l0.193,0.825c0.121,0.729,0.375,1.433,0.699,2.107c1.302,2.733,3.874,4.918,6.625,6.769
					c2.753,1.815,5.831,3.581,8.796,5.223l4.458,2.337c1.479,0.79,3.125,1.236,4.68,1.872c3.104,1.337,6.419,1.942,9.642,2.863
					l5.048,0.931l2.527,0.456l2.466,0.253c6.668,0.88,13.441,0.656,20.074-0.122c6.661-0.697,13.155-2.496,19.368-4.69l4.572-1.824
					c1.512-0.679,2.997-1.491,4.494-2.227c0.721-0.374,1.555-0.769,2.179-1.121l2.104-1.304l4.21-2.578
					c10.895-7.392,20.231-16.727,27.86-27.042c7.584-10.37,13.644-21.564,18.591-32.929c4.883-11.411,8.681-22.962,11.775-34.397
					c6.138-22.869,8.675-45.233,12.224-65.618c0.832-5.11,1.718-10.102,2.751-14.947c0.483-2.431,0.965-4.835,1.436-7.205
					c0.582-2.352,1.154-4.672,1.721-6.966c0.57-2.289,1.137-4.551,1.693-6.781c0.608-2.218,1.375-4.353,2.038-6.484
					c1.379-4.242,2.638-8.409,4.181-12.326c2.953-7.867,6.047-15.143,9.693-21.457c3.642-6.287,7.761-11.705,12.415-15.571
					c4.629-3.884,9.016-7.06,13.131-9.328c4.088-2.31,7.936-3.577,11.125-4.109c3.202-0.535,5.706-0.268,7.35-0.028
					C335.771,378.577,336.61,378.771,336.61,378.771z"/>
			</g>
			<path style="fill:#FF7F9D;" d="M190.266,648.467c-15.87,8.999-35.877,12.485-53.783,9.865c-9.935-1.452-19.465-3.968-28.09-9.224
				c-5.714-3.477-14.688-7.59-15.709-14.945c-0.056-0.416-0.603-0.237-0.595,0.119c0.275,9.964,14.476,18.874,21.956,23.469
				c12.06,7.407,27.904,11.757,42.066,10.561c38.51-3.25,66.276-28.694,86.84-59.927c9.545-14.501,16.032-30.962,20.734-48.103
				c-3.597-0.93-7.371-1.759-11.089-2.496C242.032,593.434,223.677,629.521,190.266,648.467z"/>
		</g>
		<g>
			<path style="fill:#A1DF23;" d="M124.812,603.905c-3.945-7.609-7.869-15.227-11.68-22.903
				c-6.89-13.89-14.865-27.148-22.053-40.874c-2.68-5.113-6.506-9.677-10.204-14.075c-0.754-0.899-1.669-1.872-2.747-2.379
				c-0.021,0.062-0.705-0.036-1.542-0.143c-0.038-0.077-0.094-0.16-0.169-0.25c-0.443-0.507-1.101-0.349-1.474,0.09
				c-1.11-0.062-1.723,0.101-0.271,0.94c0.337,25.022,16.821,48.776,27.637,70.574c2.786,5.618,5.779,11.106,8.841,16.557
				C116.553,612.488,122.3,611.454,124.812,603.905z"/>
			<path style="fill:#F7D639;" d="M152.168,656.868c-2.73-3.181-4.308-8.249-6.236-11.903c-3.88-7.334-7.554-14.763-11.337-22.148
				c-3.236-6.319-6.518-12.609-9.783-18.911c-2.512,7.549-8.259,8.583-13.662,7.537c4.554,8.089,9.293,16.066,14.021,24.092
				c4.127,7.005,8.407,13.867,12.788,20.72c1.366,2.139,2.525,4.686,4.169,6.694c0.293,1.445,1.387,2.574,3.684,2.765
				c0.208,0.016,0.414,0.036,0.622,0.052C150.232,666.077,155.191,660.394,152.168,656.868z"/>
		</g>
		<path style="fill:#A1DF23;" d="M112.764,604.194c0.349,0.683,0.077,1.521-0.606,1.867l0,0c-0.679,0.347-1.519,0.077-1.867-0.608
			l-30.053-58.922c-0.347-0.684-0.077-1.52,0.607-1.87l0,0c0.682-0.347,1.521-0.077,1.867,0.606L112.764,604.194z"/>
		<path style="fill:#41986B;" d="M140.192,651.988c0.357,0.679,0.091,1.517-0.585,1.873l0,0c-0.679,0.356-1.522,0.096-1.877-0.586
			l-20.915-37.523c-0.356-0.677-0.091-1.521,0.583-1.873l0,0c0.681-0.36,1.521-0.098,1.875,0.58L140.192,651.988z"/>
		<g>
			<g>
				<path style="fill:#4B1E0A;" d="M124.812,603.905l-11.145-20.481l-11.249-20.405c-3.791-6.785-7.659-13.526-11.383-20.348
					c-0.467-0.82-0.95-1.763-1.4-2.481l-1.491-2.506c-1.035-1.628-2.123-3.091-3.271-4.622c-1.194-1.503-2.373-3.013-3.641-4.479
					l-0.935-1.111l-0.406-0.489l-0.501-0.531c-0.695-0.848-1.297-1.093-1.844-1.536l1.876-0.781
					c-0.109,0.298-0.521,0.757-0.996,0.872c-0.583,0.114-0.487,0.039-0.541,0.058l-0.264-0.021l-0.43-0.045l-0.778-0.096
					l-1.073-0.78c-0.006,0.021,0.002,0.04,0.016,0.052l0.006,0.004l0.004,0.004l0.262,0.231l-0.01-0.002l-0.048-0.037l-0.103-0.071
					l-0.202-0.143c0.045,0.071,0.186,0.174,0.311,0.196c0.129,0.035,0.27-0.022,0.27,0c0.032,0.008,0.063-0.004,0.089-0.024
					c0.04-0.037,0.073-0.01,0.069-0.06l-1.139,0.485c-0.152-0.002-0.331-0.01-0.422-0.002c-0.083,0-0.065,0.012-0.033,0l0.014-0.012
					c0.048-0.012,0.168-0.056,0.243-0.106c0.175-0.151,0.258-0.133,0.514-0.689c0.079-0.252,0.057-0.531-0.015-0.719
					c-0.018-0.077-0.023-0.109-0.047-0.165c-0.036-0.091-0.123-0.197-0.169-0.239l0.071,0.05c0.075,0.055,0.238,0.15,0.354,0.224
					l0.636,0.422l0.062,0.774c0.159,1.933,0.133,3.876,0.43,5.801c0.244,1.925,0.466,3.854,0.89,5.762
					c0.691,3.832,1.822,7.589,3.026,11.313c2.559,7.417,5.892,14.58,9.477,21.629l10.942,21.156
					c1.739,3.593,3.527,7.09,5.365,10.632l5.375,10.627l-0.337-0.245c0.697,0.11,1.393,0.245,2.094,0.334l1.054,0.05
					c0.349-0.004,0.707,0.067,1.056,0.004c0.686-0.106,1.414-0.067,2.077-0.297c0.656-0.231,1.381-0.315,1.967-0.719l0.925-0.507
					c0.335-0.137,0.551-0.435,0.83-0.647l0.803-0.703c0.295-0.208,0.443-0.55,0.675-0.823c0.387-0.595,0.927-1.109,1.173-1.793
					L124.812,603.905z M124.812,603.905l-0.792,2.023c-0.204,0.713-0.712,1.266-1.072,1.903c-0.218,0.291-0.351,0.655-0.642,0.89
					l-0.782,0.784c-0.273,0.245-0.495,0.563-0.834,0.728l-0.95,0.58c-0.606,0.456-1.36,0.589-2.054,0.87
					c-0.699,0.274-1.458,0.275-2.188,0.424c-0.37,0.079-0.743,0.023-1.113,0.043l-1.115,0.004c-0.738-0.055-1.472-0.162-2.21-0.241
					l-0.208-0.023l-0.127-0.227l-5.851-10.38c-1.927-3.449-3.859-6.973-5.684-10.473c-3.753-6.978-7.81-13.811-11.493-20.877
					c-3.68-7.066-7.136-14.303-9.835-21.883c-1.277-3.809-2.482-7.67-3.242-11.648c-0.444-1.973-0.735-3.977-0.959-5.997
					c-0.289-2.008-0.251-4.052-0.388-6.076l0.697,1.192c-0.215-0.139-0.393-0.239-0.628-0.41l-0.385-0.326
					c-0.108-0.115-0.247-0.306-0.339-0.479c-0.049-0.095-0.089-0.168-0.128-0.285c-0.063-0.235-0.078-0.566,0.012-0.861
					c0.237-0.68,0.438-0.688,0.691-0.892c0.116-0.077,0.278-0.152,0.37-0.18l0.158-0.04c0.226-0.052,0.434-0.073,0.547-0.073
					c0.303-0.02,0.513,0,0.752,0.006l-1.137,0.487c0.262-0.241,0.51-0.493,0.858-0.647c0.183-0.073,0.371-0.137,0.558-0.183
					c0.15-0.06,0.46-0.062,0.753-0.01c0.289,0.04,0.596,0.152,0.798,0.262l0.202,0.145l0.1,0.071l0.049,0.037l0.275,0.254
					l0.02,0.027l0.044,0.054c0.105,0.145,0.204,0.305,0.293,0.462l-1.073-0.776l0.761,0.095l0.341,0.044l0.128,0.012
					c0.009,0.025,0.169-0.044-0.351,0.056c-0.409,0.103-0.76,0.556-0.802,0.839l1.878-0.778c1.041,0.666,2.109,1.446,2.636,2.142
					l0.495,0.53l0.525,0.63l0.931,1.129c1.251,1.487,2.453,3.05,3.664,4.599c1.164,1.583,2.372,3.268,3.398,4.922l1.466,2.518
					c0.56,0.939,0.95,1.732,1.436,2.604c3.707,6.826,7.357,13.681,10.933,20.579l5.323,10.362c1.757,3.472,3.595,6.88,5.259,10.413
					L124.812,603.905z"/>
			</g>
			<g>
				<path style="fill:#4B1E0A;" d="M152.168,656.868c-0.688-1.036-1.477-2.007-2.081-3.09c-0.553-1.111-1.171-2.198-1.674-3.335
					c-1.008-2.273-2.063-4.518-3.248-6.702c-2.319-4.396-4.708-8.758-7.096-13.115l-14.373-26.146l2.306-0.181l-0.892,2.173
					c-0.233,0.749-0.8,1.378-1.212,2.064c-0.246,0.321-0.402,0.703-0.727,0.971l-0.892,0.863c-0.313,0.269-0.563,0.614-0.947,0.796
					l-1.077,0.634c-0.693,0.487-1.519,0.634-2.293,0.919c-0.782,0.283-1.595,0.277-2.393,0.416
					c-0.404,0.079-0.794,0.017-1.192,0.028l-1.187-0.019c-0.778-0.073-1.541-0.199-2.315-0.299l1.521-2.107l7.459,13.03l3.661,6.554
					c1.223,2.208,2.354,4.395,3.639,6.552l7.538,13.008l3.765,6.51l1.813,3.29l1.998,3.148l0.018,0.028l0.022,0.051
					c0.13,0.337,0.222,0.697,0.382,1.02c0.246,0.264,0.432,0.592,0.721,0.813l0.965,0.547l1.099,0.246
					c1.488,0.376,3.074,0.004,4.324-0.88c1.27-0.838,2.305-2.059,2.897-3.462c0.293-0.709,0.414-1.481,0.362-2.242
					c-0.064-0.38-0.123-0.756-0.299-1.102C152.65,657.474,152.366,657.192,152.168,656.868z M152.168,656.868
					c0.202,0.324,0.487,0.602,0.605,0.975c0.182,0.347,0.247,0.725,0.313,1.105c0.061,0.769-0.051,1.549-0.339,2.266
					c-0.584,1.423-1.611,2.664-2.889,3.525c-1.256,0.899-2.876,1.343-4.413,1.013l-1.152-0.225l-1.06-0.55
					c-0.319-0.231-0.549-0.583-0.826-0.876c-0.19-0.349-0.307-0.74-0.462-1.117l0.04,0.08l-2.157-3.109l-1.992-3.189l-4.113-6.286
					l-8.247-12.574c-2.765-4.225-5.312-8.518-7.914-12.812l-7.656-12.951l-1.483-2.505l3.002,0.399
					c0.661,0.088,1.327,0.204,1.988,0.277l0.98,0.024c0.325-0.006,0.664,0.055,0.977-0.006c0.618-0.121,1.293-0.086,1.874-0.308
					c0.576-0.222,1.229-0.297,1.725-0.667l0.804-0.456c0.289-0.118,0.476-0.386,0.717-0.58l0.692-0.622
					c0.262-0.174,0.387-0.499,0.591-0.74c0.334-0.547,0.815-0.986,1.031-1.632l0.82-1.818l1.152-2.555l1.153,2.374l6.514,13.418
					l6.454,13.448c2.14,4.488,4.28,8.979,6.492,13.432c1.1,2.231,2.104,4.508,3.104,6.781c0.489,1.146,1.09,2.23,1.63,3.348
					C150.713,654.844,151.493,655.826,152.168,656.868z"/>
			</g>
		</g>
		<g>
			<path style="fill:#F7D639;" d="M182.496,565.217c-1.583-3.042-3.131-6.104-4.725-9.138
				c-8.326-15.848-16.462-31.637-24.168-47.798c-6.806-14.26-14.824-30.136-27.464-40.125c-0.93-1.209-3.425,0.13-3.232,1.73
				c1.736,14.428,10.425,26.583,16.716,39.365c7.229,14.672,13.721,29.553,21.405,44.021c3.458,6.511,6.86,13.046,10.257,19.586
				C175.873,573.171,180.335,571.52,182.496,565.217z"/>
			<path style="fill:#A1DF23;" d="M202.915,605.321c-6.706-13.427-13.509-26.787-20.419-40.104
				c-2.161,6.303-6.623,7.954-11.212,7.642c4.462,8.579,8.918,17.159,13.422,25.715c3.908,7.417,7.893,14.803,11.61,22.316
				c2.867,5.799,7.325,10.557,9.477,16.729c1.737,4.979,8.766,2.604,9.43-1.884C216.71,625.651,207.157,613.81,202.915,605.321z"/>
		</g>
		<g>
			<path style="fill:#A1DF23;" d="M240.028,529.879c-2.446-4.494-4.899-8.985-7.263-13.518
				c-8.671-16.636-16.343-35.309-32.35-46.099c-1.036-0.701-2.337,0.501-2.052,1.624c4.747,18.721,14.481,36.123,23.071,53.363
				c2.133,4.273,4.356,8.501,6.616,12.701C232.956,538.407,237.802,536.777,240.028,529.879z"/>
			<path style="fill:#F7D639;" d="M256.38,563.771c-4.397-11.808-10.349-22.865-16.352-33.892
				c-2.227,6.898-7.072,8.528-11.977,8.072c2.177,4.055,4.393,8.083,6.604,12.115c3.662,6.678,6.93,15.855,13.445,20.253
				C251.998,572.943,258.073,568.315,256.38,563.771z"/>
		</g>
		<g>
			<path style="fill:#75008C;" d="M184.521,648.151c-7.48-11.022-11.859-24.588-17.652-36.574
				c-6.946-14.37-13.818-28.785-20.842-43.116c-1.636-3.341-3.262-6.722-4.892-10.128c-7.268-1.434-11.054,2.152-13.004,6.777
				c1.408,2.896,2.818,5.795,4.23,8.714c6.932,14.315,14.099,28.444,21.554,42.49c6.658,12.543,11.99,26.389,20.047,38.129
				c0.091,0.238,0.168,0.483,0.299,0.718c0.606,1.093,1.454,1.986,2.71,2.316C181.787,658.747,187.75,652.911,184.521,648.151z"/>
			<path style="fill:#1FB2F7;" d="M141.135,558.333c-11.566-24.113-23.534-49.236-43.245-67.33
				c-0.679-0.618-1.763,0.445-1.505,1.192c8.736,25.441,20.074,48.884,31.746,72.915
				C130.081,560.485,133.866,556.899,141.135,558.333z"/>
		</g>
		<g>
			<path style="fill:#75008C;" d="M204.618,527.619c-6.56-12.588-13.62-24.757-20.671-37.088
				c-3.529-6.177-7.238-12.075-11.639-17.666c-3.593-4.566-8.851-7.191-12.87-11.301c-0.767-0.786-1.979,0.416-1.956,1.224
				c0.351,12.774,5.838,22.984,10.985,34.458c5.461,12.16,12.458,23.75,18.804,35.542
				C189.628,527.431,194.529,523.575,204.618,527.619z"/>
			<path style="fill:#1FB2F7;" d="M240.975,602.8c-1.681-10.073-9.648-21.471-13.893-30.789
				c-6.372-13.99-13.779-27.472-20.763-41.159c-0.554-1.086-1.139-2.151-1.701-3.232c-10.089-4.044-14.99-0.188-17.347,5.169
				c0.983,1.826,1.954,3.664,2.899,5.506c12.424,24.235,26.222,47.79,38.767,71.94C232.81,617.682,241.938,608.549,240.975,602.8z"
				/>
		</g>
		<g>
			<path style="fill:#1FB2F7;" d="M258.368,512.404c-0.512-0.719-1.013-1.426-1.487-2.104c-4.169-5.972-6.445-11.905-13.573-14.854
				c-0.825-0.335-1.727,0.695-1.489,1.479c1.947,6.484,2.481,13.22,5.078,19.54c0.006,0.012,0.012,0.023,0.018,0.037
				C249.105,513.323,252.658,511.312,258.368,512.404z"/>
			<path style="fill:#75008C;" d="M246.914,516.502c1.369,3.317,3.356,6.447,4.87,9.715c1.89,4.076,3.165,7.665,7.804,8.667
				c2.595,0.563,5.223-0.951,5.803-3.672c1.41-6.631-3.102-13.262-7.022-18.808C252.658,511.312,249.105,513.323,246.914,516.502z"
				/>
		</g>
		<path style="fill:#1FB2F7;" d="M130.123,557.148c0.353,0.695,0.077,1.545-0.614,1.897l0,0c-0.693,0.353-1.543,0.079-1.897-0.614
			l-22.078-45.229c-0.353-0.691-0.075-1.543,0.615-1.895l0,0c0.691-0.353,1.543-0.077,1.896,0.613L130.123,557.148z"/>
		<path style="fill:#75008C;" d="M189.38,525.433c0.367,0.686,0.105,1.541-0.582,1.907l0,0c-0.686,0.362-1.539,0.101-1.907-0.584
			l-22.869-44.831c-0.368-0.688-0.104-1.541,0.58-1.909l0,0c0.686-0.365,1.541-0.102,1.907,0.584L189.38,525.433z"/>
		<path style="fill:#1FB2F7;" d="M249.939,510.63c0.369,0.686,0.107,1.539-0.58,1.905l0,0c-0.686,0.364-1.539,0.103-1.907-0.582
			l-2.373-4.242c-0.368-0.686-0.107-1.541,0.581-1.905l0,0c0.685-0.364,1.538-0.107,1.907,0.582L249.939,510.63z"/>
		<path style="fill:#75008C;" d="M175.53,648.827c0.353,0.691,0.077,1.543-0.613,1.896l0,0c-0.693,0.354-1.543,0.077-1.897-0.616
			l-41.415-84.981c-0.355-0.695-0.077-1.543,0.614-1.897l0,0c0.69-0.353,1.543-0.079,1.896,0.616L175.53,648.827z"/>
		<path style="fill:#1FB2F7;" d="M230.5,603.204c0.353,0.692,0.077,1.54-0.616,1.895l0,0c-0.691,0.352-1.543,0.08-1.896-0.615
			l-37.293-71.075c-0.355-0.695-0.077-1.543,0.614-1.896l0,0c0.691-0.352,1.543-0.079,1.895,0.614L230.5,603.204z"/>
		<path style="fill:#75008C;" d="M257.526,526.843c0.353,0.693,0.077,1.545-0.614,1.898l0,0c-0.693,0.352-1.545,0.075-1.898-0.614
			l-5.105-10.328c-0.354-0.695-0.077-1.543,0.614-1.896l0,0c0.69-0.352,1.542-0.079,1.895,0.614L257.526,526.843z"/>
		<path style="fill:#A1DF23;" d="M205.672,626.415c0.339,0.682,0.061,1.512-0.616,1.851l0,0c-0.677,0.345-1.511,0.067-1.85-0.61
			l-26.366-50.456c-0.345-0.681-0.067-1.513,0.609-1.853l0,0c0.68-0.341,1.512-0.067,1.853,0.614L205.672,626.415z"/>
		<path style="fill:#41986B;" d="M247.548,563.225c0.347,0.693,0.065,1.543-0.625,1.89l0,0c-0.695,0.351-1.547,0.067-1.894-0.626
			l-12.57-23.73c-0.351-0.693-0.069-1.541,0.624-1.89l0,0c0.692-0.353,1.544-0.071,1.891,0.622L247.548,563.225z"/>
		<path style="fill:#A1DF23;" d="M231.394,533.237c0.352,0.695,0.077,1.543-0.614,1.895l0,0c-0.691,0.353-1.543,0.079-1.895-0.613
			l-24.711-48.707c-0.352-0.695-0.075-1.543,0.616-1.896l0,0c0.691-0.352,1.543-0.079,1.896,0.613L231.394,533.237z"/>
		<path style="fill:#41986B;" d="M173.205,563.827c0.345,0.677,0.073,1.509-0.604,1.857l0,0c-0.676,0.345-1.51,0.073-1.854-0.603
			l-43.348-84.654c-0.344-0.677-0.075-1.509,0.603-1.857l0,0c0.678-0.341,1.509-0.073,1.854,0.604L173.205,563.827z"/>
		<g>
			<g>
				<path style="fill:#4B1E0A;" d="M182.496,565.217c-4.61-8.201-8.958-16.56-13.392-24.857l-13.079-25.012
					c-2.194-4.149-4.346-8.374-6.435-12.576c-1.086-2.067-2.09-4.183-3.238-6.215c-1.129-2.044-2.217-4.117-3.458-6.088
					c-1.179-2.009-2.416-3.98-3.761-5.873c-1.258-1.958-2.702-3.765-4.144-5.575c-1.362-1.881-3.064-3.445-4.599-5.165
					c-1.595-1.663-3.417-3.069-5.11-4.614l-0.239-0.242c0.115,0.147,0.148,0.056-0.137,0.142c-0.249,0.064-0.521,0.339-0.557,0.472
					c-0.079,0.056,0.021,0.139-0.058,0.058l0.169,0.911l0.339,1.822c0.353,2.499,1.133,4.703,1.765,6.993
					c0.819,2.258,1.615,4.561,2.65,6.768c0.984,2.226,2.042,4.432,3.19,6.606c2.236,4.371,4.681,8.675,6.936,13.117
					c2.307,4.45,4.271,8.94,6.427,13.406l6.273,13.441l6.409,13.357l3.205,6.684l3.345,6.625l6.607,13.285l-0.298-0.193
					c0.599,0.012,1.202,0.055,1.801,0.043c0.592-0.079,1.204-0.071,1.782-0.214c0.568-0.178,1.188-0.22,1.715-0.513
					c0.541-0.256,1.119-0.454,1.589-0.838c0.499-0.337,1.008-0.661,1.402-1.133l0.636-0.649c0.231-0.204,0.356-0.491,0.538-0.733
					c0.317-0.519,0.743-0.982,0.957-1.561L182.496,565.217z M182.496,565.217l-0.674,1.724c-0.182,0.598-0.588,1.083-0.881,1.63
					c-0.171,0.26-0.283,0.559-0.505,0.78l-0.618,0.707c-0.38,0.505-0.886,0.875-1.391,1.256c-0.469,0.434-1.063,0.661-1.624,0.952
					c-0.551,0.333-1.194,0.406-1.788,0.62c-0.61,0.177-1.244,0.198-1.868,0.301c-0.625,0.04-1.257,0.024-1.889,0.036l-0.188,0.002
					l-0.111-0.196l-7.157-12.998c-2.408-4.321-4.682-8.704-6.914-13.129l-6.77-13.23c-2.233-4.421-4.408-8.853-6.554-13.313
					c-2.176-4.423-4.224-8.979-6.51-13.293c-2.254-4.355-4.737-8.638-7.043-13.052c-1.178-2.19-2.277-4.439-3.313-6.722
					c-1.081-2.262-1.933-4.642-2.815-7.016c-0.72-2.464-1.565-4.951-1.866-7.371l-0.322-1.826l-0.163-0.915
					c-0.039-0.693,0.021-1.256,0.287-1.735c0.485-0.978,1.234-1.576,2.153-1.901c0.84-0.332,2.325-0.38,3.262,0.787l-0.239-0.24
					c1.768,1.632,3.674,3.138,5.321,4.88c1.584,1.799,3.345,3.458,4.733,5.409c1.476,1.88,2.947,3.763,4.219,5.777
					c1.366,1.961,2.614,3.98,3.799,6.04c1.249,2.022,2.333,4.13,3.46,6.211c1.148,2.076,2.146,4.219,3.226,6.326
					c1.999,4.271,4.005,8.484,6.108,12.709l12.392,25.358L182.496,565.217z"/>
			</g>
			<g>
				<path style="fill:#4B1E0A;" d="M202.915,605.321l-10.394-19.954l-10.659-19.825l1.309-0.091l-0.715,1.794
					c-0.195,0.618-0.623,1.143-0.936,1.72c-0.185,0.268-0.307,0.578-0.547,0.819l-0.659,0.751c-0.41,0.534-0.955,0.933-1.497,1.337
					c-0.513,0.455-1.145,0.713-1.745,1.02c-0.592,0.353-1.27,0.438-1.907,0.66c-0.649,0.189-1.315,0.218-1.973,0.324
					c-0.661,0.048-1.319,0.028-1.979,0.04l1.01-1.549c4.856,8.729,9.432,17.565,14.179,26.385l6.789,13.336l3.395,6.671
					c1.083,2.135,2.295,4.417,3.528,6.527c1.296,2.063,2.581,4.197,3.829,6.43c0.685,1.057,1.119,2.289,1.632,3.462
					c0.534,1.166,0.944,2.439,1.478,3.279c1.095,1.774,3.998,1.604,5.77,0.226c0.91-0.679,1.619-1.644,1.887-2.743
					c0.22-1.112,0.306-2.447,0.242-3.61c-0.268-4.911-2.408-9.586-4.722-13.954C207.898,613.972,205.148,609.787,202.915,605.321z
					 M202.915,605.321c2.315,4.422,5.14,8.55,7.556,12.923c1.227,2.174,2.349,4.42,3.274,6.749c0.904,2.335,1.687,4.746,1.929,7.297
					c0.117,1.326,0.11,2.499-0.085,3.844c-0.26,1.345-1.06,2.545-2.104,3.4c-1.046,0.859-2.361,1.404-3.767,1.478
					c-1.406,0.104-2.939-0.489-3.849-1.742c-0.828-1.24-1.204-2.385-1.77-3.442c-0.543-1.092-0.982-2.215-1.707-3.225
					c-1.294-2.067-2.68-4.144-4.138-6.244c-1.356-2.147-2.657-4.185-3.846-6.49l-3.516-6.606l-7.027-13.22
					c-4.483-8.877-9.144-17.731-13.523-26.695l-0.774-1.583l1.784,0.034c0.57,0.012,1.144,0.058,1.715,0.049
					c0.555-0.071,1.135-0.059,1.676-0.193c0.525-0.169,1.113-0.198,1.595-0.472c0.501-0.233,1.039-0.408,1.469-0.769
					c0.458-0.313,0.932-0.61,1.292-1.054l0.592-0.602c0.214-0.188,0.331-0.464,0.505-0.693c0.293-0.491,0.697-0.919,0.897-1.478
					l0.729-1.599l0.658-1.445l0.651,1.352l9.758,20.28L202.915,605.321z"/>
			</g>
		</g>
		<g>
			<g>
				<path style="fill:#4B1E0A;" d="M240.028,529.879c-3.161-5.317-6.284-10.636-9.283-16.057
					c-2.973-5.414-5.797-10.912-8.849-16.242c-1.642-2.584-3.073-5.317-4.89-7.766l-2.565-3.786l-2.852-3.55
					c-0.925-1.204-1.901-2.362-3.013-3.387l-3.202-3.204c-1.139-0.978-2.371-1.85-3.549-2.78l-1.783-1.375l-0.226-0.174l-0.11-0.088
					l-0.054-0.039c-0.204-0.119,0.245,0.131,0.188,0.103l-0.034-0.02c-0.137-0.071-0.505-0.206-0.198-0.062
					c0.362,0.012,0.163-0.018,0.183,0.034c-0.048,0.241-0.145-0.317,0.156,0.774l0.655,2.224l1.321,4.429
					c1.024,2.861,1.874,5.766,3.068,8.6c1.097,2.859,2.268,5.693,3.533,8.492c1.196,2.828,2.559,5.589,3.854,8.378l8.051,16.668
					l8.122,16.641l-0.449-0.302c0.634,0.034,1.271,0.105,1.907,0.115c0.626-0.06,1.277-0.029,1.895-0.162
					c0.604-0.171,1.268-0.19,1.83-0.487c0.58-0.25,1.198-0.444,1.699-0.848c0.534-0.345,1.073-0.697,1.491-1.196
					c0.455-0.456,0.931-0.899,1.256-1.47c0.343-0.551,0.798-1.046,1.021-1.666L240.028,529.879z M240.028,529.879l-0.668,1.867
					c-0.176,0.65-0.592,1.187-0.893,1.785c-0.287,0.611-0.73,1.118-1.181,1.626c-0.41,0.548-0.952,0.958-1.501,1.366
					c-0.515,0.46-1.153,0.717-1.765,1.024c-0.601,0.358-1.296,0.434-1.945,0.655c-0.663,0.185-1.353,0.198-2.029,0.305
					c-0.68,0.036-1.363,0.004-2.046,0.008h-0.279l-0.171-0.301c-3.04-5.387-6.001-10.79-8.891-16.273
					c-2.878-5.454-5.845-10.885-8.565-16.45c-1.341-2.792-2.747-5.549-3.997-8.397c-1.314-2.811-2.539-5.668-3.689-8.561
					c-1.244-2.842-2.181-5.868-3.268-8.802c-0.503-1.479-0.859-2.973-1.296-4.458l-0.626-2.226
					c-0.077-0.416-0.253-0.563-0.299-1.555c0.05-0.778,0.353-1.491,0.874-1.98c0.544-0.489,1.104-0.917,2.241-0.82
					c0.705,0.109,0.678,0.2,0.894,0.273l0.034,0.014c-0.038-0.023,0.434,0.238,0.247,0.139l0.06,0.048l0.117,0.091l0.233,0.185
					l1.865,1.472c1.232,0.996,2.514,1.937,3.698,2.983c2.137,2.315,4.576,4.379,6.393,6.951l2.901,3.712l2.571,3.923
					c1.765,2.591,3.102,5.403,4.664,8.095c2.855,5.518,5.537,11.075,8.182,16.656C234.503,518.817,237.395,524.292,240.028,529.879z
					"/>
			</g>
			<g>
				<path style="fill:#4B1E0A;" d="M256.38,563.771c-1.225-2.892-2.395-5.805-3.664-8.677c-1.393-2.815-2.818-5.608-4.282-8.376
					l-4.648-8.175l-4.803-8.097l2.179-0.204l-0.738,1.994c-0.204,0.682-0.666,1.279-1.011,1.917
					c-0.326,0.654-0.826,1.209-1.331,1.765c-0.459,0.597-1.06,1.06-1.684,1.498c-0.586,0.495-1.297,0.771-1.986,1.093
					c-0.675,0.372-1.426,0.445-2.143,0.666c-0.725,0.182-1.458,0.182-2.186,0.273c-0.727,0.023-1.443-0.018-2.165-0.049l1.412-2.135
					c2.05,3.794,4.061,7.612,6.009,11.465c1.965,3.884,3.542,7.96,5.473,11.748l1.537,2.803l1.757,2.666
					c0.688,0.796,1.343,1.642,2.071,2.412c0.814,0.661,1.555,1.493,2.452,2.017c1.817,1.041,4.262,0.503,5.878-0.864
					C256.163,568.192,257.164,565.856,256.38,563.771z M256.38,563.771c0.821,2.065-0.141,4.456-1.803,5.822
					c-0.828,0.695-1.805,1.248-2.884,1.488c-1.06,0.243-2.26,0.15-3.256-0.357c-0.982-0.533-1.776-1.276-2.688-1.903
					c-0.813-0.73-1.557-1.537-2.343-2.315l-2.03-2.589l-1.811-2.737c-1.131-1.867-2.2-3.771-3.233-5.662
					c-1.011-1.871-2.096-3.773-3.171-5.599c-2.185-3.729-4.308-7.494-6.39-11.279l-1.172-2.129l2.584-0.006
					c0.599,0,1.2,0.061,1.791,0.054c0.576-0.074,1.182-0.054,1.736-0.186c0.539-0.175,1.145-0.194,1.632-0.479
					c0.507-0.237,1.054-0.41,1.48-0.784c0.466-0.313,0.943-0.608,1.308-1.063c0.403-0.402,0.819-0.798,1.106-1.325
					c0.3-0.515,0.709-0.946,0.905-1.537l0.753-1.669l1.089-2.435l1.088,2.231l4.133,8.477l3.978,8.563
					c1.21,2.913,2.457,5.797,3.737,8.661C254.025,557.953,255.229,560.851,256.38,563.771z"/>
			</g>
		</g>
		<g>
			<g>
				<path style="fill:#4B1E0A;" d="M184.521,648.151l-3.197-5.351c-1.069-1.785-2.175-3.552-3.006-5.461l-2.704-5.631
					c-0.936-1.861-1.697-3.796-2.551-5.693c-1.634-3.826-3.364-7.605-5.167-11.345c-1.719-3.774-3.703-7.442-5.552-11.166
					c-7.462-14.866-15.137-29.625-22.403-44.594l0.936,0.721l-1.838-0.206c-0.619-0.124-1.204,0.019-1.804,0.019
					c-0.61-0.019-1.169,0.15-1.729,0.303c-0.58,0.095-1.089,0.364-1.594,0.626c-0.25,0.135-0.535,0.21-0.743,0.418l-0.677,0.526
					c-0.493,0.299-0.803,0.838-1.219,1.238c-0.39,0.436-0.663,0.988-1.008,1.472c-0.291,0.528-0.535,1.099-0.808,1.642l-0.032-1.188
					l2.733,5.656c0.905,1.913,1.786,3.745,2.735,5.619l5.599,11.239c3.769,7.471,7.381,15.024,11.037,22.557
					c3.639,7.537,7.318,15.056,10.759,22.698c1.695,3.838,3.626,7.534,5.448,11.301c0.869,1.909,2.063,3.631,3.107,5.439
					l3.234,5.375l0.012,0.021l0.002,0.008c0.258,0.736,0.707,1.453,1.256,2.004c0.57,0.539,1.281,0.939,2.075,1.05
					c1.584,0.311,3.23-0.156,4.595-1.006c1.383-0.83,2.487-2.127,3.063-3.637c0.251-0.765,0.409-1.584,0.278-2.385
					C185.299,649.6,184.928,648.853,184.521,648.151z M184.521,648.151c0.415,0.695,0.8,1.44,0.873,2.26
					c0.146,0.809-0.002,1.641-0.243,2.417c-0.561,1.536-1.664,2.867-3.055,3.732c-1.372,0.882-3.063,1.393-4.705,1.094
					c-0.83-0.101-1.605-0.517-2.217-1.081c-0.607-0.601-1.048-1.288-1.343-2.082l0.014,0.032l-3.319-5.34
					c-1.079-1.794-2.287-3.519-3.204-5.403c-1.963-3.701-4.042-7.355-5.872-11.114c-3.708-7.492-7.667-14.874-11.582-22.273
					c-3.92-7.394-7.879-14.774-11.682-22.228l-5.763-11.154c-0.967-1.851-1.928-3.772-2.839-5.627l-2.749-5.643l-0.311-0.638
					l0.279-0.551c0.331-0.655,0.63-1.319,0.996-1.961c0.43-0.607,0.78-1.264,1.289-1.826c0.539-0.534,0.963-1.176,1.62-1.6
					l0.925-0.693c0.294-0.254,0.67-0.38,1.009-0.559c0.695-0.349,1.392-0.678,2.149-0.806c0.741-0.194,1.481-0.379,2.226-0.363
					c0.74-0.004,1.503-0.13,2.212,0.013l2.161,0.279l0.625,0.081l0.311,0.638c7.207,14.986,14.012,30.175,21.025,45.261
					c1.709,3.793,3.553,7.518,5.143,11.374l4.894,11.483c0.826,1.905,1.563,3.855,2.466,5.724l2.618,5.656
					c0.804,1.921,1.88,3.703,2.927,5.502L184.521,648.151z"/>
			</g>
			<g>
				<path style="fill:#4B1E0A;" d="M141.135,558.333l-9.503-17.961l-4.894-8.879l-5.169-8.703l-5.563-8.433l-5.957-8.124
					c-2.181-2.541-4.292-5.151-6.528-7.641l-3.555-3.541l-1.776-1.771l-0.886-0.881l-0.222-0.222l-0.111-0.111l-0.027-0.029
					c0.497,0.364,0.115,0.089,0.218,0.168l-0.067-0.039c-0.085-0.069-0.279-0.131,0.06,0.033c0.113,0.04,0.235,0.048,0.339,0.023
					c0.053-0.004,0.067,0.002,0.103-0.006c0.204-0.108,0.091,0.006,0.171-0.162c0.059,0.02-0.1-0.578,0.02-0.168l0.228,0.594
					l0.903,2.377l1.784,4.755l3.498,9.536c1.194,3.165,2.576,6.235,3.854,9.356l3.91,9.336l8.229,18.546
					c2.811,6.159,5.69,12.289,8.418,18.492l-0.967,0.025c0.328-0.612,0.626-1.24,0.982-1.83c0.418-0.563,0.756-1.17,1.237-1.678
					c0.509-0.475,0.905-1.063,1.516-1.428l0.848-0.609c0.266-0.228,0.607-0.325,0.919-0.479c0.626-0.297,1.256-0.583,1.944-0.68
					c0.672-0.156,1.337-0.305,2.026-0.264c0.682,0.021,1.36-0.087,2.028,0.079L141.135,558.333z M141.135,558.333l-2.004-0.162
					c-0.666-0.107-1.333,0.055-1.991,0.083c-0.669,0.008-1.301,0.21-1.929,0.4c-0.649,0.13-1.228,0.438-1.796,0.75
					c-0.283,0.162-0.599,0.264-0.834,0.495l-0.755,0.616c-0.541,0.356-0.879,0.946-1.325,1.406
					c-0.418,0.491-0.703,1.093-1.062,1.628c-0.299,0.574-0.542,1.181-0.819,1.767l-0.464,0.988l-0.503-0.963
					c-3.153-6.001-6.169-12.069-9.222-18.121c-2.931-6.114-5.982-12.173-8.785-18.356l-4.052-9.362
					c-1.325-3.129-2.764-6.227-3.993-9.386l-3.612-9.497l-1.771-4.761l-0.874-2.385l-0.218-0.598
					c-0.025,0.031-0.318-1.015-0.135-1.398c0.271-0.983,0.786-1.591,1.789-1.961c0.137-0.039,0.253-0.073,0.405-0.093
					c0.208-0.014,0.44,0.002,0.658,0.05c0.56,0.14,0.544,0.209,0.642,0.249l0.067,0.04l0.287,0.206l0.029,0.029l0.111,0.113
					l0.228,0.231l0.899,0.917l1.802,1.838l3.597,3.672c2.258,2.574,4.383,5.26,6.577,7.883c2.026,2.748,3.972,5.557,5.956,8.336
					l5.321,8.724l4.892,8.954l4.54,9.116C135.641,545.944,138.484,552.095,141.135,558.333z"/>
			</g>
		</g>
		<g>
			<g>
				<path style="fill:#4B1E0A;" d="M204.618,527.619c-3.505-5.696-6.878-11.461-10.311-17.195l-10.095-17.313
					c-1.582-2.828-3.509-5.648-5.25-8.473c-1.693-2.907-3.745-5.452-5.641-8.151l-1.448-2.001c-0.218-0.289-0.524-0.773-0.673-0.898
					l-0.869-0.904l-1.735-1.803c-0.59-0.574-1.233-1.01-1.846-1.524c-2.41-1.985-5.3-3.976-7.808-6.37l-0.487-0.428
					c-0.22-0.182,0.262,0.212,0.202,0.167l-0.033-0.024l-0.065-0.041l-0.129-0.09l-0.065-0.039c0.032,0.031,0.065,0.063,0.105,0.089
					c0.079,0.054,0.176,0.089,0.271,0.097c0.489-0.006,0.232-0.047,0.204,0.065c-0.045,0.054-0.047,0.086-0.058,0.092
					c0.044-0.04-0.008-0.264,0.03,0.079l0.105,1.245c0.139,1.664,0.23,3.359,0.579,4.893c0.247,1.564,0.53,3.142,0.99,4.722
					c0.358,1.588,0.861,3.147,1.392,4.697c1.025,3.111,2.314,6.157,3.629,9.204l4.071,9.092c3.009,5.962,5.936,11.963,8.836,17.98
					l9.326,17.69l-1.173,0.047c0.458-0.764,0.814-1.584,1.356-2.293c0.572-0.689,1.046-1.456,1.787-1.99l1.023-0.87l1.19-0.621
					c0.41-0.183,0.77-0.474,1.22-0.531l1.294-0.313c0.848-0.296,1.744-0.133,2.612-0.187c0.881-0.081,1.723,0.174,2.57,0.325
					c0.857,0.141,1.691,0.336,2.483,0.681L204.618,527.619z M204.618,527.619l-2.464-0.701c-0.808-0.279-1.643-0.41-2.489-0.481
					c-0.84-0.071-1.672-0.293-2.509-0.16l-1.246,0.083c-0.422-0.008-0.82,0.103-1.21,0.239l-1.181,0.354
					c-0.41,0.071-0.727,0.369-1.085,0.551l-1.046,0.624l-0.882,0.846c-0.642,0.507-1.027,1.252-1.515,1.896
					c-0.458,0.671-0.743,1.464-1.125,2.181l-0.574,1.081l-0.599-1.036l-10.037-17.387c-3.145-5.894-6.244-11.808-9.271-17.761
					l-4.229-9.143c-1.366-3.065-2.722-6.163-3.824-9.384c-0.57-1.603-1.111-3.212-1.514-4.882c-0.485-1.634-0.84-3.329-1.101-5.064
					c-0.357-1.742-0.418-3.391-0.541-5.054l-0.089-1.252c-0.021-0.073-0.048-0.713,0.102-1.157c0.137-0.392,0.329-0.727,0.553-0.994
					c0.495-0.513,0.982-1.11,2.317-1.089c0.196,0.023,0.396,0.075,0.578,0.142l0.26,0.111l0.067,0.047l0.129,0.087l0.066,0.046
					l0.295,0.235l0.447,0.402c2.31,2.252,4.92,4.082,7.641,6.371c0.658,0.566,1.387,1.105,1.98,1.699l1.718,1.826l0.857,0.909
					c0.434,0.474,0.54,0.729,0.828,1.104l1.463,2.075c1.897,2.795,4.051,5.471,5.625,8.399c1.659,2.924,3.416,5.683,4.995,8.742
					l9.411,17.686C198.493,515.744,201.62,521.646,204.618,527.619z"/>
			</g>
			<g>
				<path style="fill:#4B1E0A;" d="M240.975,602.8c-0.471-1.678-0.697-3.429-1.374-5.038c-0.566-1.648-1.179-3.276-1.934-4.847
					c-1.399-3.19-3.079-6.245-4.737-9.309l-2.522-4.583c-0.811-1.543-1.697-3.046-2.476-4.614l-4.791-9.299
					c-3.232-6.18-6.311-12.441-9.709-18.527l-9.95-18.378l0.662,0.599l-2.327-0.737c-0.769-0.295-1.549-0.436-2.333-0.525
					c-0.778-0.094-1.569-0.319-2.323-0.204l-1.142,0.048c-0.394-0.021-0.75,0.075-1.099,0.193l-1.065,0.295
					c-0.377,0.05-0.651,0.319-0.977,0.474l-0.95,0.529l-0.807,0.75c-0.592,0.434-0.963,1.129-1.428,1.712
					c-0.441,0.611-0.723,1.36-1.102,2.029l-0.051-1.264l12.49,23.753l12.266,23.873l12.289,23.853l3.144,5.928
					c0.493,0.961,1.107,1.963,1.921,2.636c0.886,0.632,1.998,0.872,3.084,0.684c2.166-0.478,3.963-2.03,5.26-3.809
					C240.31,607.248,241.229,605.046,240.975,602.8z M240.975,602.8c0.291,2.242-0.598,4.475-1.893,6.284
					c-1.286,1.816-3.063,3.422-5.309,3.957c-1.127,0.216-2.325-0.01-3.285-0.678c-0.925-0.762-1.497-1.693-2.046-2.703l-3.238-5.876
					l-13.23-23.354c-4.41-7.781-8.837-15.56-13.162-23.392l-6.442-11.768c-2.14-3.914-4.336-7.853-6.367-11.798l-0.365-0.709
					l0.313-0.557c0.461-0.816,0.819-1.676,1.376-2.448c0.597-0.744,1.086-1.57,1.878-2.175l1.095-0.962l1.288-0.717
					c0.443-0.206,0.844-0.523,1.329-0.606l1.407-0.372c0.938-0.337,1.888-0.194,2.831-0.267c0.962-0.102,1.844,0.152,2.755,0.279
					c0.917,0.125,1.808,0.307,2.64,0.638l2.545,0.854l0.418,0.141l0.241,0.464c3.242,6.183,6.233,12.488,9.345,18.729
					c3.15,6.229,5.963,12.606,8.943,18.912l4.403,9.48c1.449,3.163,3.165,6.203,4.779,9.291c1.609,3.094,3.245,6.181,4.595,9.4
					c0.732,1.588,1.32,3.228,1.861,4.892C240.331,599.361,240.529,601.112,240.975,602.8z"/>
			</g>
		</g>
		<g>
			<g>
				<path style="fill:#4B1E0A;" d="M258.368,512.404c-1.317-1.402-2.516-2.907-3.694-4.416c-1.202-1.516-2.266-3.104-3.456-4.54
					c-1.125-1.499-2.396-2.811-3.767-3.946c-0.646-0.618-1.451-1.013-2.161-1.535c-0.758-0.443-1.594-0.761-2.376-1.157
					l-0.073-0.039l-0.038-0.016l-0.018-0.013l-0.01-0.002c-0.058-0.02,0.457,0.141,0.235,0.071l-0.176-0.033
					c-0.234-0.064,0.014,0.061,0.176,0.016c0.227-0.054,0.156-0.047,0.175-0.056c0.006,0.017-0.006,0.024,0.01-0.012
					c0.021-0.027-0.002-0.039,0.012-0.118c0-0.03-0.008-0.063-0.025-0.092l0.057,0.214l0.732,2.77
					c0.517,1.825,0.85,3.745,1.245,5.636l1.159,5.556c0.158,0.933,0.521,1.776,0.742,2.684l0.759,2.69l-0.029-0.071l0.033,0.079
					l-1.834-0.17c0.391-0.443,0.737-0.919,1.169-1.323c0.463-0.372,0.855-0.812,1.374-1.115c0.503-0.311,0.973-0.663,1.531-0.865
					c0.532-0.247,1.075-0.459,1.651-0.555c0.561-0.147,1.119-0.247,1.689-0.253c0.564-0.044,1.123-0.079,1.68,0
					c0.553,0.071,1.109,0.039,1.64,0.21L258.368,512.404z M258.368,512.404c-1.096-0.004-2.163-0.062-3.213,0.079
					c-0.526,0.021-1.04,0.151-1.541,0.281c-0.509,0.092-0.988,0.275-1.449,0.489c-0.48,0.165-0.901,0.444-1.325,0.699
					c-0.445,0.22-0.8,0.583-1.183,0.884c-0.736,0.649-1.32,1.451-1.873,2.266l-1.836-0.171l0.004,0.005l0.002,0.029l-0.036-0.097
					l-1.063-2.741c-0.334-0.915-0.744-1.836-0.966-2.777c-0.48-1.853-1.06-3.767-1.431-5.595c-0.405-1.84-0.8-3.674-1.291-5.525
					l-0.684-2.783c-0.01-0.039-0.039-0.152-0.031-0.13c-0.032-0.147-0.054-0.296-0.071-0.446c-0.044-0.314,0.014-0.56,0.067-0.829
					c0.127-0.5,0.38-0.899,0.693-1.246c0.364-0.335,0.691-0.618,1.388-0.767c0.398-0.073,0.886-0.012,0.884,0.01l0.176,0.04
					l0.256,0.077l0.008,0.004l0.023,0.012l0.044,0.02l0.085,0.048c0.901,0.491,1.836,0.931,2.691,1.489
					c0.801,0.646,1.697,1.175,2.398,1.913c1.46,1.418,2.71,3.013,3.72,4.674c1.036,1.67,1.939,3.352,2.805,5.047L258.368,512.404z"
					/>
			</g>
			<g>
				<path style="fill:#4B1E0A;" d="M246.914,516.502c1.181,1.809,2.217,3.686,3.359,5.514c1.141,1.822,2.262,3.679,3.238,5.567
					c0.487,0.939,0.98,1.858,1.547,2.666c0.563,0.802,1.17,1.541,1.903,2.044c0.699,0.563,1.522,0.915,2.418,1.133
					c0.179,0.036,0.529,0.177,0.566,0.137l0.788,0.067c0.308-0.067,0.612-0.073,1.004-0.212c0.724-0.241,1.341-0.719,1.755-1.333
					c0.202-0.316,0.349-0.657,0.436-1.034l0.047-0.13c-0.037,0.233,0-0.052,0-0.052l0.034-0.398l0.079-0.796
					c0.214-1.141,0.004-1.949-0.036-2.856c-0.129-0.911-0.397-1.905-0.671-2.845c-0.395-0.929-0.642-1.901-1.131-2.818
					c-0.422-0.931-0.88-1.856-1.414-2.755c-1.009-1.819-2.14-3.622-3.29-5.414l0.63,0.405c-0.996-0.18-2-0.434-3.015-0.438
					c-0.509-0.065-1.008-0.016-1.511,0.032c-0.515,0-1.01,0.093-1.503,0.222c-0.51,0.075-0.98,0.268-1.456,0.469
					c-0.497,0.161-0.919,0.466-1.37,0.729C248.441,514.979,247.653,515.702,246.914,516.502z M246.914,516.502
					c0.543-0.931,1.163-1.863,2.009-2.604c0.43-0.352,0.838-0.76,1.345-1.022c0.482-0.305,0.973-0.602,1.517-0.784
					c1.048-0.472,2.209-0.705,3.346-0.771c1.154-0.123,2.281,0.008,3.426,0.099l0.349,0.03l0.283,0.376
					c1.296,1.72,2.647,3.41,3.811,5.282c0.606,0.913,1.149,1.88,1.664,2.872c0.566,0.954,0.946,2.044,1.376,3.089
					c0.345,1.096,0.666,2.183,0.854,3.377c0.113,1.225,0.288,2.551,0.094,3.537c-0.081,0.903-0.26,2.616-1.113,3.685
					c-0.79,1.156-1.975,2.016-3.288,2.422c-0.629,0.216-1.388,0.291-2.15,0.273l-0.806-0.109c-0.508-0.054-0.645-0.178-0.982-0.266
					c-1.159-0.342-2.329-0.923-3.254-1.746c-1.001-0.765-1.668-1.814-2.252-2.793c-0.579-1.002-1.015-2.02-1.433-3.021
					c-0.74-2.029-1.693-3.925-2.482-5.92C248.414,520.526,247.626,518.532,246.914,516.502z"/>
			</g>
		</g>
		<path style="fill:#05CEFC;" d="M394.175,490.611c-15.436,15.445-30.374,32.009-53.07,35.229
			c-20.322,2.888-41.696-6.871-59.231-16.066c-30.887-16.19-58.054-39.123-91.69-49.834c-33.38-10.623-67.507-3.506-92.794,20.815
			c-12.829,12.343-22.322,27.898-29.448,44.107c-7.635,17.359-6.966,37.115-8.415,55.607c-0.012,0.154,0.228,0.108,0.241-0.019
			c5.585-40.506,24.422-83.56,61.105-105.086c33.567-19.698,73.127-3.918,103.55,13.903c29.311,17.175,56.896,38.64,90.664,46.265
			c37.616,8.492,64.664-12.031,83.925-42.161C401.221,489.91,396.478,488.306,394.175,490.611z"/>
		<g>
			<path style="fill:#4B1E0A;" d="M394.175,490.611c0,0-2.444,2.466-7.033,7.088c-4.658,4.525-11.258,11.564-21.34,18.425
				c-5.06,3.343-11.079,6.6-18.201,8.463c-3.517,1.062-7.353,1.527-11.295,1.709c-0.988,0.062-1.984,0.154-2.989,0.19
				c-1.008-0.067-2.023-0.131-3.05-0.2c-2.044-0.196-4.161-0.109-6.234-0.598c-8.432-1.127-17.051-4.094-25.786-7.802
				c-8.746-3.739-17.619-8.397-26.708-13.491c-18.159-10.287-36.677-23.37-57.979-34.085c-5.444-2.389-10.802-5.213-16.614-7.09
				c-5.675-2.13-11.593-4.167-17.698-5.237c-12.166-2.472-25.123-2.557-37.719,0.145c-6.282,1.417-12.46,3.504-18.39,6.243
				c-5.938,2.739-11.519,6.3-16.773,10.311c-5.273,3.995-10.063,8.689-14.476,13.751c-4.412,4.986-8.365,10.524-11.914,16.281
				c-3.599,5.746-6.77,11.79-9.582,18.025l-1.071,2.329c-0.296,0.653-0.604,1.57-0.905,2.345c-0.589,1.614-1.242,3.229-1.782,4.849
				c-0.848,3.254-1.832,6.452-2.35,9.858c-1.299,6.702-1.84,13.581-2.256,20.487l-0.576,10.393l-0.328,5.221l-0.084,1.303
				l-0.043,0.653l-0.022,0.325c0.731-0.468-1.156-1.422-2.093-1.16c-1.038,1.465-0.321,0.563-0.511,0.661l0.051-0.323l0.1-0.644
				l0.197-1.287c0.947-6.851,2.569-13.792,4.241-20.542c1.915-6.726,3.913-13.432,6.577-19.889
				c5.044-13.016,11.944-25.262,20.405-36.195c8.563-10.871,18.914-20.147,30.749-27.034c5.793-3.203,12.335-5.791,18.865-7.245
				c6.597-1.295,13.281-1.876,19.87-1.478c13.177,0.804,25.78,4.367,37.396,9.19c11.671,4.773,22.493,10.73,32.663,17.011
				c10.217,6.184,19.938,12.588,29.51,18.446c4.816,2.882,9.498,5.81,14.287,8.337c2.383,1.279,4.696,2.646,7.072,3.826
				c2.395,1.143,4.766,2.277,7.114,3.398c1.173,0.559,2.343,1.115,3.506,1.668c1.198,0.467,2.391,0.931,3.576,1.39
				c2.375,0.921,4.72,1.834,7.041,2.737c4.714,1.574,9.447,2.789,13.996,4.042c9.281,2.078,18.388,2.377,26.737,1.002
				c8.348-1.349,15.818-4.319,22.158-7.953c6.381-3.603,11.566-7.987,15.961-12.154c8.756-8.449,14.248-16.379,17.795-21.817
				c0.445-0.678,0.925-1.292,1.165-1.969c0.253-0.668,0.191-1.402-0.175-1.905c-0.767-1.022-1.99-1.125-2.784-1.05
				C394.741,489.789,394.19,490.681,394.175,490.611z M394.175,490.611c0.016,0.069,0.561-0.824,2.27-1.054
				c0.796-0.079,2.025,0.017,2.804,1.045c0.373,0.51,0.439,1.252,0.183,1.928c-0.237,0.683-0.715,1.301-1.158,1.982
				c-3.527,5.454-8.99,13.4-17.724,21.898c-4.388,4.192-9.563,8.605-15.953,12.244c-6.346,3.67-13.832,6.678-22.218,8.066
				c-8.358,1.422-17.593,1.145-26.862-0.899c-4.603-1.239-9.328-2.46-14.085-3.981c-2.337-0.882-4.7-1.774-7.091-2.674
				c-1.196-0.452-2.398-0.907-3.608-1.362c-1.168-0.547-2.347-1.094-3.531-1.641c-2.366-1.103-4.757-2.216-7.171-3.341
				c-2.396-1.163-4.728-2.506-7.13-3.769c-4.833-2.488-9.549-5.376-14.404-8.212c-9.657-5.783-19.407-12.073-29.683-18.157
				c-10.204-6.163-21.012-11.971-32.615-16.581c-11.547-4.67-24.004-8.041-36.869-8.7c-6.437-0.327-12.919,0.311-19.287,1.62
				c-6.383,1.517-12.307,3.892-18.233,7.223c-11.293,6.683-21.524,15.826-29.816,26.481c-8.239,10.734-14.973,22.778-19.887,35.601
				c-2.597,6.357-4.537,12.976-6.399,19.604c-1.638,6.725-3.156,13.347-4.111,20.269l-0.204,1.286l-0.103,0.646l-0.052,0.32
				c-0.245,0.3,0.507-0.351-0.695,1.268c-1.148,0.456-3.287-0.74-2.456-1.445l0.022-0.323l0.045-0.647l0.09-1.295l0.347-5.178
				l0.615-10.405c0.444-6.943,1.017-13.933,2.377-20.819c0.535-3.454,1.586-6.874,2.512-10.291c0.556-1.651,1.206-3.24,1.806-4.86
				c0.329-0.829,0.559-1.553,0.969-2.472l1.093-2.364c2.878-6.306,6.126-12.437,9.81-18.28c3.652-5.862,7.661-11.443,12.252-16.6
				c4.516-5.118,9.405-9.935,14.88-13.973c5.429-4.066,11.189-7.659,17.306-10.408c6.105-2.749,12.453-4.828,18.897-6.211
				c12.923-2.642,26.114-2.42,38.487,0.216c6.258,1.175,12.097,3.255,17.868,5.477c5.853,1.957,11.218,4.849,16.678,7.313
				c21.318,10.982,39.704,24.253,57.711,34.683c9.047,5.181,17.832,9.923,26.561,13.668c8.7,3.731,17.282,6.72,25.67,7.876
				c2.067,0.495,4.163,0.412,6.192,0.62c1.018,0.069,2.026,0.137,3.028,0.208c1.002-0.032,1.999-0.123,2.987-0.179
				c3.957-0.168,7.733-0.613,11.257-1.657c7.101-1.828,13.115-5.051,18.18-8.372c10.088-6.807,16.719-13.819,21.394-18.323
				C391.719,493.065,394.175,490.611,394.175,490.611z"/>
		</g>
		<g>
			<path style="fill:#0781B2;" d="M394.175,490.611c-15.436,15.445-30.374,32.009-53.07,35.229
				c-14.223,2.02-28.951-2.157-42.526-7.998c-1.253,3.273-3.246,6.746-6.302,10.264c7.336,3.069,14.896,5.639,22.81,7.427
				c37.616,8.492,64.664-12.031,83.925-42.161C401.221,489.91,396.478,488.306,394.175,490.611z"/>
			<path style="fill:#0781B2;" d="M196.013,461.945c-1.925-0.701-3.863-1.379-5.83-2.005c-33.38-10.623-67.507-3.506-92.794,20.815
				c-12.829,12.343-22.322,27.898-29.448,44.107c-7.635,17.359-6.966,37.115-8.415,55.607c-0.012,0.154,0.228,0.108,0.241-0.019
				c5.585-40.506,24.422-83.56,61.105-105.086c20.997-12.327,44.34-10.761,66.323-3.502
				C191.086,468.75,193.934,465.355,196.013,461.945z"/>
		</g>
		<g>
			<path style="fill:#FF7F9D;" d="M336.61,378.771c-12.339-3.676-24.414,5.063-33.594,12.543
				c-12.133,9.885-18.801,27.391-23.998,41.648c-4.707,12.909-7.803,26.254-10.276,39.761c2.68,0.917,5.898,1.874,9.54,2.708
				c2.574-15.775,6.068-31.721,11.619-46.244c7.206-18.858,21.499-45.229,45.131-46.015
				C336.984,383.104,339.248,379.563,336.61,378.771z"/>
		</g>
		<path style="fill:#05CEFC;" d="M203.181,466.057c0,0,29.292,17.262,79.488,46.685C282.669,512.741,250.941,489.03,203.181,466.057
			z"/>
	</g>
	<g>
		<path style="fill:#9ABEF9;" d="M117.507,18.984C86.811,34.092,97.771,119.16,141.984,208.988
			c44.217,89.829,104.944,150.401,135.641,135.29c30.697-15.108,19.737-100.18-24.477-190.004
			C208.932,64.445,148.203,3.873,117.507,18.984z M273.349,335.588c-27.1,13.341-85.19-49.228-124.225-128.528
			c-39.034-79.301-54.238-165.64-27.139-178.98c27.1-13.337,86.241,51.371,125.275,130.671
			C286.295,238.055,300.448,322.251,273.349,335.588z"/>
		<path style="fill:none;stroke:#4B1E0A;stroke-width:2.0281;stroke-miterlimit:10;" d="M117.507,18.984
			C86.811,34.092,97.771,119.16,141.984,208.988c44.217,89.829,104.944,150.401,135.641,135.29
			c30.697-15.108,19.737-100.18-24.477-190.004C208.932,64.445,148.203,3.873,117.507,18.984z M273.349,335.588
			c-27.1,13.341-85.19-49.228-124.225-128.528c-39.034-79.301-54.238-165.64-27.139-178.98
			c27.1-13.337,86.241,51.371,125.275,130.671C286.295,238.055,300.448,322.251,273.349,335.588z"/>
		<path style="fill:#FFFFFF;" d="M109.236,111.048c0,0,0.299,1.112,0.861,3.2c0.557,2.088,1.466,5.126,2.606,8.995
			c0.589,1.928,1.242,4.063,1.953,6.386c0.753,2.313,1.568,4.813,2.438,7.482c0.844,2.678,1.878,5.482,2.904,8.461
			c1.025,2.979,2.103,6.109,3.331,9.34c1.216,3.234,2.396,6.635,3.778,10.095c1.377,3.46,2.799,7.037,4.263,10.717
			c3.108,7.28,6.292,14.996,9.976,22.804c3.491,7.898,7.615,15.813,11.663,23.917c4.391,7.926,8.653,16.09,13.564,23.877
			c4.565,7.997,9.852,15.531,14.824,23.101c2.631,3.684,5.361,7.253,7.994,10.826c1.322,1.778,2.638,3.549,3.944,5.308
			c1.408,1.675,2.807,3.339,4.193,4.988c2.77,3.304,5.494,6.554,8.162,9.732c2.798,3.013,5.614,6.005,8.387,8.796
			c5.552,5.625,11.004,10.75,16.284,15.183c5.278,4.437,10.399,8.164,15.208,11.02c4.806,2.864,9.318,4.801,13.185,5.878
			c3.864,1.165,7.063,1.217,9.21,1.277c2.152-0.184,3.299-0.283,3.299-0.283s-1.147,0.139-3.293,0.395
			c-2.151,0.002-5.39,0.085-9.316-1.008c-3.93-0.99-8.54-2.832-13.462-5.605c-4.928-2.757-10.189-6.389-15.555-10.79
			c-5.386-4.385-10.939-9.45-16.607-15.021c-2.855-2.791-5.664-5.687-8.577-8.727c-2.705-3.177-5.468-6.423-8.278-9.723
			c-1.402-1.653-2.818-3.319-4.242-4.998c-1.323-1.761-2.654-3.534-3.995-5.316c-2.662-3.576-5.427-7.151-8.089-10.841
			c-5.034-7.582-10.392-15.132-15.012-23.145c-4.895-7.851-9.135-16.07-13.504-24.05c-4.022-8.157-8.122-16.119-11.586-24.061
			c-3.689-7.837-6.735-15.642-9.744-22.983c-1.41-3.71-2.782-7.316-4.109-10.806c-1.335-3.488-2.466-6.914-3.636-10.173
			c-1.173-3.258-2.229-6.402-3.181-9.411c-0.953-3.008-1.918-5.841-2.698-8.546c-0.806-2.693-1.559-5.215-2.256-7.546
			c-0.653-2.345-1.255-4.496-1.798-6.441C110.217,115.556,109.236,111.048,109.236,111.048z"/>
		<g>
			<path style="fill:#7FA5DD;" d="M253.735,163.27C217.23,85.697,172.423,41.418,149.486,28.994
				c-22.937-12.426-30.583,0.955-30.583,0.955l0.004,0.164c0.965-0.782,1.973-1.489,3.078-2.034
				c27.1-13.337,86.241,51.371,125.275,130.671c39.034,79.305,53.188,163.501,26.088,176.838
				c-5.912,2.911-13.301,2.206-21.645-1.498c0.002,0.017,0.004,0.028,0.004,0.044C315.591,365.062,290.24,240.843,253.735,163.27z"
				/>
		</g>
		<path style="fill:#F460BF;" d="M200.081,119.73c-100.038-4.064-182.26,20.352-183.65,54.539
			c-1.386,34.184,78.584,65.191,178.62,69.259c100.036,4.064,182.26-20.352,183.649-54.539
			C380.089,154.806,300.117,123.798,200.081,119.73z M198.368,126.928c88.314,3.588,171.426,31.474,170.2,61.653
			c-1.228,30.18-86.327,51.229-174.641,47.636c-88.317-3.585-169.046-31.376-167.82-61.555
			C27.338,144.482,110.053,123.339,198.368,126.928z M200.081,119.73c-100.038-4.064-182.26,20.352-183.65,54.539
			c-1.386,34.184,78.584,65.191,178.62,69.259c100.036,4.064,182.26-20.352,183.649-54.539
			C380.089,154.806,300.117,123.798,200.081,119.73z M198.368,126.928c88.314,3.588,171.426,31.474,170.2,61.653
			c-1.228,30.18-86.327,51.229-174.641,47.636c-88.317-3.585-169.046-31.376-167.82-61.555
			C27.338,144.482,110.053,123.339,198.368,126.928z M200.081,119.73c-100.038-4.064-182.26,20.352-183.65,54.539
			c-1.386,34.184,78.584,65.191,178.62,69.259c100.036,4.064,182.26-20.352,183.649-54.539
			C380.089,154.806,300.117,123.798,200.081,119.73z M198.368,126.928c88.314,3.588,171.426,31.474,170.2,61.653
			c-1.228,30.18-86.327,51.229-174.641,47.636c-88.317-3.585-169.046-31.376-167.82-61.555
			C27.338,144.482,110.053,123.339,198.368,126.928z"/>
		<path style="fill:#4B1E0A;" d="M216.693,244.982c-0.006,0-0.008,0-0.014,0c-7.151,0-14.441-0.146-21.671-0.441
			c-100.716-4.096-179.609-34.578-179.609-69.396c0-0.306,0.006-0.612,0.017-0.917c1.297-31.9,71.384-55.954,163.025-55.954
			c7.15,0,14.444,0.148,21.682,0.443c100.717,4.094,179.611,34.576,179.609,69.396c0,0.306-0.006,0.612-0.018,0.919
			C378.417,220.931,308.333,244.982,216.693,244.982z M17.428,175.146c0,33.163,79.7,63.385,177.664,67.369
			c7.201,0.293,14.464,0.439,21.588,0.439c90.538,0.004,159.755-23.216,161.007-54.005c0.012-0.279,0.017-0.559,0.017-0.836
			c0.002-33.165-79.698-63.389-177.665-67.369c-7.209-0.293-14.476-0.441-21.598-0.441c-90.531,0-159.744,23.218-160.996,54.007
			C17.434,174.589,17.428,174.868,17.428,175.146z M213.61,237.631c-6.567,0-13.204-0.135-19.725-0.4
			c-91.492-3.715-168.796-32.057-168.806-61.883c0-0.242,0.004-0.485,0.014-0.73c1.254-30.735,79.138-49.102,153.713-49.102
			c6.516,0,13.11,0.132,19.602,0.397c42.598,1.731,85.707,9.265,118.274,20.667c34.118,11.944,52.909,26.626,52.913,41.338
			c0,0.233-0.006,0.469-0.014,0.703c-0.559,13.695-17.714,26.274-48.307,35.421C291.97,232.804,253.732,237.631,213.61,237.631z
			 M27.108,175.346c0.01,28.277,77.98,56.248,166.86,59.858c6.492,0.264,13.1,0.398,19.642,0.398
			c83.829,0,152.889-21.112,153.943-47.065c0.011-0.206,0.015-0.411,0.015-0.619c-0.006-28.286-79.091-56.313-169.242-59.979
			c-6.464-0.264-13.031-0.396-19.52-0.396c-82.58,0-150.625,21.156-151.685,47.158C27.112,174.915,27.108,175.131,27.108,175.346z"
			/>
		<path style="fill:#FFFFFF;" d="M24.396,188.789c0,0,0.715,0.909,2.258,2.412c0.774,0.751,1.722,1.686,2.932,2.676
			c0.592,0.507,1.229,1.052,1.911,1.632c0.711,0.545,1.468,1.121,2.266,1.731c1.566,1.262,3.416,2.503,5.433,3.842
			c1.973,1.408,4.264,2.685,6.666,4.115c2.371,1.492,5.072,2.759,7.85,4.215c2.753,1.509,5.811,2.768,8.938,4.203
			c3.105,1.489,6.482,2.709,9.942,4.048c1.737,0.653,3.481,1.374,5.292,2c1.824,0.591,3.674,1.191,5.552,1.799
			c1.875,0.609,3.776,1.225,5.701,1.85c1.924,0.63,3.926,1.083,5.92,1.643c4.019,1.007,8.047,2.321,12.264,3.197
			c4.205,0.929,8.477,1.871,12.802,2.828c4.348,0.848,8.784,1.532,13.234,2.321c2.23,0.37,4.46,0.79,6.712,1.124
			c2.258,0.285,4.523,0.569,6.793,0.855c4.541,0.56,9.101,1.122,13.658,1.685c4.576,0.4,9.155,0.801,13.715,1.198
			c2.279,0.2,4.555,0.398,6.823,0.597c2.154,0.214,4.521,0.095,6.757,0.156c9.061,0.058,17.983,0.2,26.608,0.184
			c8.613-0.202,16.941-0.4,24.838-0.587c7.889-0.471,15.345-0.919,22.229-1.33c6.856-0.725,13.171-1.169,18.73-1.872
			c5.546-0.778,10.416-1.285,14.363-2.075c1.982-0.347,3.753-0.656,5.294-0.926c1.526-0.328,2.828-0.609,3.882-0.837
			c1.056-0.22,1.861-0.408,2.398-0.559c0.538-0.141,0.817-0.212,0.817-0.212s-0.275,0.079-0.81,0.237
			c-0.533,0.17-1.331,0.385-2.381,0.64c-1.048,0.264-2.339,0.586-3.858,0.969c-1.532,0.313-3.295,0.671-5.27,1.073
			c-3.938,0.892-8.794,1.518-14.337,2.438c-5.552,0.85-11.861,1.455-18.728,2.26c-6.894,0.518-14.36,1.079-22.259,1.671
			c-7.922,0.277-16.273,0.568-24.913,0.868c-8.635,0.059-17.552-0.038-26.614-0.052c-2.289-0.052-4.485,0.085-6.876-0.125
			c-2.278-0.188-4.561-0.374-6.851-0.564c-4.577-0.378-9.174-0.757-13.77-1.137c-4.575-0.588-9.15-1.177-13.708-1.763
			c-2.277-0.297-4.551-0.594-6.816-0.892c-2.26-0.347-4.5-0.78-6.738-1.164c-4.468-0.813-8.918-1.525-13.283-2.398
			c-4.343-0.98-8.633-1.951-12.854-2.905c-2.119-0.436-4.185-1.021-6.23-1.601c-2.046-0.576-4.072-1.146-6.076-1.711
			c-1.997-0.595-4.001-1.081-5.926-1.743c-1.927-0.657-3.83-1.305-5.708-1.944c-1.878-0.642-3.729-1.271-5.554-1.894
			c-1.81-0.655-3.555-1.41-5.292-2.092c-3.462-1.402-6.837-2.678-9.939-4.223c-6.315-2.844-11.909-5.87-16.704-8.809
			c-2.381-1.498-4.646-2.837-6.598-4.302c-1.992-1.395-3.814-2.686-5.358-3.993c-0.787-0.63-1.531-1.228-2.232-1.79
			c-0.664-0.606-1.285-1.175-1.866-1.703c-1.178-1.032-2.095-2.001-2.846-2.777C25.08,189.718,24.396,188.789,24.396,188.789z"/>
		<g>
			<path style="fill:#CE41A2;" d="M316.101,143.158c-74.7-26.704-184.892-24.676-238.975-9.127
				c-54.082,15.55-51.019,40.631-51.019,40.631c1.23-30.18,83.945-51.323,172.261-47.734c88.314,3.588,171.426,31.474,170.2,61.653
				c-0.216,5.304-3.032,10.322-7.989,14.977c0.273-0.168,0.546-0.349,0.814-0.572C371.533,194.534,390.8,169.861,316.101,143.158z"
				/>
		</g>
		<path style="fill:#4B1E0A;" d="M197.567,141.527c-19.601,0-35.49,15.889-35.49,35.491c0,19.6,15.89,35.491,35.49,35.491
			c19.602,0,35.491-15.892,35.491-35.491C233.059,157.416,217.169,141.527,197.567,141.527z"/>
		<path style="fill:#DE1E0A;" d="M191.892,208.109c-17.019-3.138-28.274-19.473-25.139-36.489
			c3.133-17.017,19.475-28.274,36.491-25.137c17.018,3.133,28.273,19.472,25.139,36.489
			C225.248,199.993,208.908,211.242,191.892,208.109z"/>
		<path style="opacity:0.3;fill:#FFFFFF;" d="M191.531,195.168c-13.125-2.42-21.806-15.018-19.388-28.143
			c2.416-13.123,15.019-21.806,28.144-19.386c13.125,2.416,21.806,15.019,19.388,28.14
			C217.256,188.908,204.656,197.585,191.531,195.168z"/>
		<path style="fill:#A1DF23;" d="M246.64,219.441c61.11-79.308,88.68-160.525,61.578-181.412
			c-27.104-20.878-98.61,26.483-159.722,105.788c-61.106,79.308-88.68,160.525-61.578,181.412
			C114.02,346.108,185.528,298.746,246.64,219.441z M241.755,213.884C187.806,283.9,117.034,335.631,93.107,317.196
			c-23.925-18.438,8.057-100.059,62.006-170.071C209.063,77.109,278.381,27.268,302.308,45.702
			C326.23,64.141,295.705,143.873,241.755,213.884z"/>
		<path style="fill:#F9D532;" d="M125.235,85.626c0,10.453-8.475,18.93-18.928,18.93c-10.456,0-18.931-8.477-18.931-18.93
			c0-10.454,8.475-18.931,18.931-18.931C116.761,66.695,125.235,75.172,125.235,85.626z"/>
		<path style="fill:#F9ED32;" d="M118.811,82.77c0,7.756-6.286,14.044-14.042,14.044c-7.758,0-14.046-6.288-14.046-14.044
			c0-7.756,6.288-14.046,14.046-14.046C112.524,68.724,118.811,75.014,118.811,82.77z"/>
		<g>
			<path style="fill:#FFFFFF;" d="M109.124,76.198c0,3.502-2.839,6.34-6.338,6.34c-3.504,0-6.342-2.838-6.342-6.34
				c0-3.502,2.838-6.34,6.342-6.34C106.285,69.858,109.124,72.696,109.124,76.198z"/>
			<path style="fill:#FFFFFF;" d="M99.635,85.465c0,1.589-1.287,2.876-2.876,2.876c-1.588,0-2.875-1.287-2.875-2.876
				c0-1.59,1.287-2.878,2.875-2.878C98.348,82.587,99.635,83.875,99.635,85.465z"/>
		</g>
		<path style="fill:#4B1E0A;" d="M103.091,331.173c-0.002,0-0.002,0-0.006,0c-6.712-0.002-12.36-1.731-16.785-5.142
			c-27.499-21.19,0.042-103.209,61.393-182.834C198.107,77.776,257.467,32.086,292.049,32.086c6.712,0,12.36,1.729,16.787,5.142
			c27.501,21.191-0.04,103.211-61.393,182.832C197.029,285.483,137.671,331.173,103.091,331.173z M292.049,34.114
			c-33.994,0-92.694,45.365-142.748,110.321c-60.67,78.737-88.377,159.481-61.763,179.989c4.062,3.13,9.294,4.718,15.549,4.72
			c33.989,0.006,92.692-45.361,142.748-110.323c60.672-78.735,88.379-159.478,61.763-179.987
			C303.534,35.702,298.301,34.114,292.049,34.114z M105.57,321.97c-5.262,0-9.663-1.335-13.081-3.972
			c-11.767-9.068-11.245-32.811,1.468-66.853c12.118-32.452,34.116-70.594,60.353-104.641
			C200.732,86.26,258.865,40.826,289.531,40.826c5.381,0,9.889,1.37,13.395,4.072c23.915,18.435-3.73,96.103-60.366,169.605
			C195.35,275.768,136.459,321.97,105.57,321.97z M289.531,42.854c-30.098,0-87.539,45.092-133.614,104.888
			c-55.779,72.385-84.839,151.193-62.19,168.65c3.057,2.354,7.041,3.549,11.844,3.549c30.32,0,88.52-45.861,135.381-106.675
			c55.003-71.378,83.384-149.304,60.736-166.763C298.545,44.082,294.455,42.854,289.531,42.854z"/>
		<path style="fill:#F9D532;" d="M347.644,220.935c0,10.83-8.777,19.607-19.604,19.607c-10.826,0-19.603-8.777-19.603-19.607
			c0-10.825,8.777-19.602,19.603-19.602C338.866,201.332,347.644,210.109,347.644,220.935z"/>
		<path style="fill:#F9ED32;" d="M341.962,218.412c0,8.036-6.516,14.553-14.555,14.553c-8.037,0-14.553-6.517-14.553-14.553
			c0-8.039,6.516-14.558,14.553-14.558C335.446,203.855,341.962,210.373,341.962,218.412z"/>
		<path style="fill:#F9D532;" d="M164.443,306.791c0,10.829-8.777,19.606-19.605,19.606c-10.825,0-19.603-8.777-19.603-19.606
			c0-10.826,8.777-19.604,19.603-19.604C155.666,287.188,164.443,295.965,164.443,306.791z"/>
		<path style="fill:#F9ED32;" d="M159.292,303.79c0,8.355-6.775,15.133-15.133,15.133c-8.356,0-15.13-6.777-15.13-15.133
			s6.773-15.133,15.13-15.133C152.517,288.657,159.292,295.435,159.292,303.79z"/>
		<path style="fill:#4B1E0A;" d="M328.039,241.556c-11.368,0-20.617-9.251-20.617-20.621c0-11.368,9.249-20.617,20.617-20.617
			c11.37,0,20.619,9.249,20.619,20.617C348.658,232.305,339.409,241.556,328.039,241.556z M328.039,202.346
			c-10.25,0-18.59,8.338-18.59,18.589c0,10.252,8.34,18.594,18.59,18.594c10.251,0,18.591-8.342,18.591-18.594
			C346.63,210.684,338.29,202.346,328.039,202.346z"/>
		<path style="fill:#4B1E0A;" d="M106.308,105.569c-10.998,0-19.944-8.948-19.944-19.943c0-10.996,8.946-19.944,19.944-19.944
			c10.995,0,19.941,8.948,19.941,19.944C126.249,96.621,117.303,105.569,106.308,105.569z M106.308,67.71
			c-9.879,0-17.916,8.037-17.916,17.916c0,9.878,8.037,17.915,17.916,17.915c9.877,0,17.913-8.037,17.913-17.915
			C124.221,75.747,116.185,67.71,106.308,67.71z"/>
		<path style="fill:#4B1E0A;" d="M144.838,327.412c-11.368,0-20.617-9.251-20.617-20.621c0-11.368,9.249-20.617,20.617-20.617
			c11.371,0,20.62,9.249,20.62,20.617C165.458,318.161,156.209,327.412,144.838,327.412z M144.838,288.201
			c-10.249,0-18.589,8.338-18.589,18.59c0,10.251,8.34,18.593,18.589,18.593c10.252,0,18.592-8.342,18.592-18.593
			C163.43,296.539,155.09,288.201,144.838,288.201z"/>
		<g>
			<path style="fill:#FFFFFF;" d="M148.532,297.122c0,3.501-2.838,6.337-6.338,6.337c-3.504,0-6.342-2.836-6.342-6.337
				c0-3.502,2.838-6.342,6.342-6.342C145.694,290.78,148.532,293.62,148.532,297.122z"/>
			<path style="fill:#FFFFFF;" d="M139.043,306.387c0,1.588-1.287,2.876-2.875,2.876c-1.589,0-2.876-1.288-2.876-2.876
				c0-1.589,1.287-2.876,2.876-2.876C137.756,303.511,139.043,304.798,139.043,306.387z"/>
		</g>
		<g>
			<path style="fill:#FFFFFF;" d="M333.085,211.437c0,3.501-2.838,6.338-6.338,6.338c-3.503,0-6.341-2.837-6.341-6.338
				c0-3.502,2.838-6.342,6.341-6.342C330.247,205.095,333.085,207.935,333.085,211.437z"/>
			<path style="fill:#FFFFFF;" d="M323.597,220.701c0,1.589-1.287,2.876-2.876,2.876c-1.588,0-2.876-1.287-2.876-2.876
				c0-1.588,1.288-2.876,2.876-2.876C322.31,217.825,323.597,219.113,323.597,220.701z"/>
		</g>
		<g>
			<path style="fill:#FFFFFF;" d="M199.946,157.186c0,5.015-4.065,9.081-9.078,9.081c-5.02,0-9.085-4.066-9.085-9.081
				c0-5.017,4.065-9.082,9.085-9.082C195.881,148.104,199.946,152.169,199.946,157.186z"/>
			<path style="fill:#FFFFFF;" d="M186.355,170.459c0,2.276-1.845,4.12-4.12,4.12c-2.275,0-4.119-1.844-4.119-4.12
				c0-2.277,1.844-4.119,4.119-4.119C184.51,166.34,186.355,168.182,186.355,170.459z"/>
		</g>
		<g>
			<path style="fill:#89B718;" d="M93.107,317.196c-23.925-18.438,8.057-100.059,62.006-170.071
				C209.063,77.109,278.381,27.268,302.308,45.702c0,0-17.647-18.482-65.643,14.644C188.669,93.471,100.11,189.635,80.844,285.46
				c-5.448,35.662,14.271,45.18,43.074,31.42C110.781,321.968,99.995,322.504,93.107,317.196z"/>
		</g>
		<path style="fill:#FFFFFF;" d="M311.705,48.515c0,0,0.159,0.218,0.385,0.677c0.235,0.458,0.59,1.138,0.929,2.076
			c0.78,1.838,1.525,4.682,2.145,8.357c0.183,1.85,0.441,3.906,0.541,6.147c0.008,1.125,0.016,2.294,0.023,3.506
			c0.014,1.216,0.04,2.476-0.103,3.767c-0.287,5.186-1.052,11.014-2.438,17.253c-0.37,1.555-0.748,3.141-1.133,4.759
			c-0.38,1.616-0.75,3.271-1.307,4.904c-1.038,3.279-2.036,6.702-3.205,10.172c-1.299,3.42-2.636,6.936-4,10.526
			c-1.375,3.589-3.14,7.1-4.739,10.756c-0.834,1.813-1.633,3.66-2.512,5.486c-0.929,1.798-1.865,3.612-2.807,5.435
			c-1.909,3.634-3.731,7.373-5.77,11.031c-2.093,3.625-4.204,7.28-6.321,10.948c-1.069,1.828-2.098,3.688-3.204,5.498l-3.421,5.381
			c-2.302,3.575-4.601,7.152-6.893,10.713c-2.287,3.604-4.792,6.96-7.153,10.414c-2.341,3.458-4.901,6.743-7.336,10.047
			c-2.439,3.306-4.874,6.546-7.369,9.651c-2.477,3.119-4.858,6.232-7.291,9.197c-2.463,2.939-4.874,5.813-7.219,8.611
			c-4.666,5.617-9.355,10.69-13.539,15.495c-4.37,4.643-8.311,8.952-11.974,12.612c-3.71,3.616-6.877,6.831-9.594,9.364
			c-5.565,4.924-8.746,7.737-8.746,7.737s3.082-2.917,8.473-8.022c2.643-2.603,5.722-5.898,9.322-9.602
			c3.549-3.755,7.367-8.168,11.667-12.85c4.098-4.864,8.69-10.002,13.256-15.682c2.294-2.831,4.648-5.738,7.057-8.711
			c2.353-3.015,4.755-6.096,7.197-9.229c2.474-3.113,4.878-6.354,7.286-9.648c2.404-3.304,4.926-6.571,7.253-10.05
			c2.333-3.454,4.852-6.868,7.074-10.417c2.266-3.562,4.54-7.134,6.814-10.709l3.435-5.342c1.113-1.798,2.146-3.644,3.221-5.458
			c2.129-3.64,4.248-7.268,6.352-10.867c2.05-3.63,3.882-7.338,5.801-10.942c0.947-1.81,1.888-3.608,2.822-5.393
			c0.884-1.809,1.688-3.643,2.523-5.44c1.62-3.619,3.363-7.118,4.805-10.647c1.414-3.545,2.797-7.016,4.144-10.39
			c1.214-3.425,2.26-6.802,3.345-10.046c0.58-1.611,0.973-3.244,1.377-4.844c0.407-1.597,0.808-3.165,1.2-4.702
			c1.451-6.167,2.37-11.917,2.798-17.05c0.177-1.28,0.185-2.525,0.202-3.729c0.023-1.202,0.048-2.361,0.069-3.476
			c-0.042-2.227-0.241-4.269-0.374-6.114c-0.531-3.656-1.137-6.516-1.857-8.37c-0.305-0.948-0.631-1.636-0.852-2.099
			C311.855,48.736,311.705,48.515,311.705,48.515z"/>
	</g>
	<g>
		<path style="fill:#4B1E0A;" d="M567.315,136.967c-19.601,0-35.49,15.89-35.49,35.491c0,19.6,15.89,35.49,35.49,35.49
			c19.602,0,35.491-15.89,35.491-35.49C602.807,152.857,586.917,136.967,567.315,136.967z"/>
		<path style="fill:#FFFFFF;" d="M561.64,203.548c-17.019-3.135-28.274-19.471-25.139-36.489
			c3.133-17.017,19.475-28.271,36.491-25.137c17.019,3.135,28.273,19.475,25.139,36.489
			C594.995,195.432,578.656,206.683,561.64,203.548z"/>
		<path style="fill:#4B1E0A;" d="M487.255,14.424c-30.696,15.109-19.735,100.177,24.478,190.003
			c44.217,89.829,104.944,150.401,135.64,135.29c30.698-15.107,19.738-100.179-24.476-190.004
			C578.68,59.885,517.951-0.688,487.255,14.424z M643.097,331.028c-27.1,13.339-85.19-49.23-124.225-128.53
			c-39.034-79.3-54.238-165.639-27.139-178.977c27.099-13.339,86.241,51.37,125.275,130.669
			C656.043,233.493,670.196,317.69,643.097,331.028z"/>
		<path style="fill:#4B1E0A;" d="M569.829,115.171c-100.038-4.066-182.26,20.35-183.65,54.538
			c-1.386,34.186,78.584,65.191,178.62,69.259c100.036,4.063,182.259-20.353,183.648-54.538
			C749.838,150.246,669.865,119.237,569.829,115.171z M568.116,122.366c88.313,3.591,171.427,31.475,170.199,61.653
			c-1.229,30.18-86.326,51.228-174.64,47.638c-88.317-3.587-169.046-31.377-167.82-61.557
			C397.086,139.922,479.801,118.777,568.116,122.366z"/>
		<path style="fill:#4B1E0A;" d="M616.387,214.881c61.111-79.309,88.681-160.525,61.579-181.41
			c-27.104-20.881-98.61,26.481-159.722,105.785c-61.107,79.309-88.68,160.527-61.578,181.412
			C483.768,341.549,555.276,294.187,616.387,214.881z M611.503,209.325c-53.949,70.014-124.722,121.745-148.647,103.31
			c-23.925-18.439,8.057-100.06,62.006-170.071C578.811,72.548,648.129,22.706,672.056,41.141
			C695.979,59.582,665.453,139.312,611.503,209.325z"/>
		<path style="fill:#4B1E0A;" d="M494.983,81.064c0,10.455-8.475,18.93-18.928,18.93c-10.456,0-18.931-8.475-18.931-18.93
			c0-10.453,8.475-18.928,18.931-18.928C486.509,62.137,494.983,70.611,494.983,81.064z"/>
		<path style="fill:#4B1E0A;" d="M534.192,302.232c0,10.827-8.777,19.605-19.606,19.605c-10.825,0-19.603-8.778-19.603-19.605
			c0-10.827,8.777-19.605,19.603-19.605C525.414,282.626,534.192,291.404,534.192,302.232z"/>
		<path style="fill:#4B1E0A;" d="M717.393,216.376c0,10.827-8.778,19.604-19.605,19.604c-10.826,0-19.604-8.777-19.604-19.604
			c0-10.828,8.777-19.605,19.604-19.605C708.614,196.771,717.393,205.548,717.393,216.376z"/>
	</g>
	<g>
		<path style="fill:#4B1E0A;" d="M734.141,497.044c-15.437,15.448-30.373,32.009-53.069,35.231
			c-20.322,2.886-41.696-6.87-59.231-16.066c-30.887-16.192-58.056-39.125-91.69-49.834c-33.38-10.625-67.506-3.507-92.794,20.814
			c-12.829,12.345-22.324,27.897-29.448,44.106c-7.635,17.363-6.966,37.115-8.415,55.609c-0.012,0.152,0.228,0.107,0.241-0.018
			c5.585-40.507,24.422-83.558,61.105-105.088c33.567-19.698,73.127-3.918,103.55,13.907c29.312,17.173,56.897,38.64,90.664,46.261
			c37.616,8.494,64.665-12.029,83.924-42.159C741.187,496.347,736.445,494.738,734.141,497.044z"/>
		<path style="fill:#4B1E0A;" d="M676.575,385.207c-12.337-3.68-24.412,5.063-33.594,12.541
			c-12.133,9.883-18.799,27.391-23.996,41.646c-13.349,36.603-13.832,76.666-23.459,114.191
			c-9.983,38.911-28.549,80.482-65.296,101.313c-15.87,8.999-35.875,12.485-53.781,9.867c-9.935-1.454-19.467-3.965-28.092-9.226
			c-5.712-3.478-14.686-7.589-15.707-14.945c-0.058-0.412-0.604-0.237-0.595,0.121c0.275,9.964,14.476,18.872,21.956,23.467
			c12.058,7.407,27.904,11.757,42.064,10.563c38.512-3.25,66.276-28.691,86.842-59.929c21.684-32.942,27.608-75.984,32.6-114.223
			c2.811-21.53,6.581-44.643,14.351-64.975c7.203-18.858,21.497-45.226,45.131-46.014
			C676.951,389.537,679.216,385.996,676.575,385.207z"/>
		<g>
			<path style="fill:#4B1E0A;" d="M417.828,529.952c0.112,0.039,0.216,0.115,0.33,0.166
				C418.162,530.091,418.083,530.043,417.828,529.952z"/>
			<path style="fill:#4B1E0A;" d="M493.284,665.27c-2.77-3.229-4.369-8.374-6.328-12.077c-3.938-7.443-7.663-14.98-11.503-22.474
				c-7.249-14.154-14.711-28.189-21.778-42.429c-6.991-14.093-15.083-27.549-22.378-41.474c-2.717-5.192-6.597-9.821-10.352-14.286
				c-0.767-0.91-1.693-1.896-2.787-2.412c-0.023,0.063-0.715-0.035-1.566-0.143c-0.037-0.079-0.093-0.166-0.17-0.253
				c-0.45-0.516-1.117-0.356-1.495,0.087c-1.127-0.063-1.747,0.103-0.275,0.958c0.34,25.387,17.067,49.492,28.042,71.61
				c7.024,14.171,15.173,27.618,23.198,41.242c4.187,7.112,8.527,14.074,12.974,21.025c1.387,2.169,2.564,4.755,4.23,6.791
				c0.299,1.47,1.41,2.614,3.737,2.809c0.212,0.016,0.422,0.033,0.632,0.052C491.321,674.613,496.354,668.847,493.284,665.27z"/>
		</g>
		<path style="fill:#4B1E0A;" d="M524.487,654.589c-7.48-11.026-11.859-24.593-17.652-36.579
			c-6.946-14.368-13.818-28.784-20.842-43.113c-13.235-27.009-25.646-56.808-48.137-77.459c-0.681-0.619-1.763,0.446-1.505,1.19
			c9.79,28.508,22.842,54.502,35.977,81.632c6.932,14.313,14.099,28.441,21.554,42.487c6.658,12.545,11.99,26.389,20.047,38.13
			c0.091,0.241,0.168,0.482,0.299,0.717c0.606,1.097,1.454,1.99,2.71,2.317C521.754,665.183,527.717,659.346,524.487,654.589z"/>
		<path style="fill:#4B1E0A;" d="M544.635,614.771c-8.419-16.852-16.932-33.642-25.695-50.318
			c-8.511-16.197-16.822-32.334-24.699-48.848c-6.953-14.573-15.148-30.796-28.064-41.005c-0.949-1.234-3.5,0.133-3.304,1.771
			c1.774,14.743,10.653,27.165,17.084,40.225c7.383,14.996,14.02,30.203,21.873,44.989c8.167,15.377,16.083,30.887,24.195,46.293
			c3.995,7.577,8.069,15.127,11.865,22.804c2.93,5.928,7.487,10.786,9.685,17.096c1.776,5.09,8.958,2.664,9.635-1.925
			C558.732,635.546,548.97,623.448,544.635,614.771z"/>
		<path style="fill:#4B1E0A;" d="M580.942,609.232c-1.681-10.069-9.648-21.469-13.895-30.789
			c-6.37-13.99-13.777-27.47-20.761-41.157c-7.019-13.759-14.715-26.928-22.372-40.321c-3.529-6.174-7.238-12.075-11.639-17.667
			c-3.593-4.565-8.852-7.187-12.87-11.301c-0.767-0.782-1.979,0.416-1.956,1.225c0.35,12.776,5.838,22.985,10.985,34.457
			c6.309,14.05,14.668,27.335,21.703,41.052c12.424,24.234,26.22,47.79,38.767,71.936
			C572.774,624.114,581.904,614.983,580.942,609.232z"/>
		<path style="fill:#4B1E0A;" d="M596.347,570.204c-6.188-16.616-15.452-31.746-23.614-47.407
			c-8.671-16.635-16.343-35.311-32.35-46.101c-1.036-0.698-2.337,0.504-2.052,1.624c4.747,18.723,14.479,36.125,23.071,53.363
			c4.188,8.393,8.71,16.598,13.22,24.82c3.662,6.677,6.93,15.856,13.445,20.249C591.963,579.378,598.04,574.752,596.347,570.204z"/>
		<path style="fill:#4B1E0A;" d="M596.846,516.732c-4.167-5.972-6.445-11.905-13.573-14.853c-0.825-0.337-1.725,0.693-1.487,1.478
			c1.947,6.486,2.481,13.222,5.078,19.544c1.369,3.331,3.367,6.471,4.888,9.75c1.89,4.076,3.165,7.663,7.802,8.669
			c2.597,0.559,5.225-0.951,5.805-3.676C606.95,530.152,600.977,522.654,596.846,516.732z"/>
		<path style="fill:#4B1E0A;" d="M634.218,506.239c-5.267-9.116-12.808-17.304-20.059-24.886c-0.406-0.424-1.121,0.302-0.957,0.757
			c3.268,9.11,5.987,18.431,9.709,27.369c2.377,5.722,5.119,17.72,11.836,19.32c2.115,0.503,4.111-0.476,5.088-2.456
			C643.455,519.002,637.911,512.635,634.218,506.239z"/>
		<path style="fill:#4B1E0A;" d="M678.29,533.992c-4.254-6.29-6.533-14.133-10.172-20.871c-4.472-8.282-9.146-16.43-13.804-24.607
			c-4.862-8.546-9.79-17.074-15.273-25.238c-4.297-6.392-10.142-12.295-13.804-19.001c-0.517-0.95-1.901-0.114-2.038,0.68
			c-2.782,15.949,10.114,35.711,16.847,49.479c7.847,16.036,17.24,34.908,30.421,47.271c0.002-0.027,0.006-0.051,0.012-0.075
			C674.198,544.824,681.521,538.758,678.29,533.992z"/>
		<path style="fill:#4B1E0A;" d="M704.399,529.33c-7.567-19.251-20.567-37.224-31.063-55.003
			c-5.712-9.665-11.754-18.9-18.369-27.977c-3.349-4.591-6.332-9.388-9.942-13.783c-3.208-3.907-7.118-6.86-9.617-11.397
			c-0.374-0.674-1.339,0.033-1.306,0.614c1.003,18.907,14.587,38.362,23.768,54.194c6.451,11.127,12.905,22.239,19.431,33.318
			c4.941,8.388,10.418,21.356,18.97,26.458C700.078,538.023,706.218,533.961,704.399,529.33z"/>
		<path style="fill:#4B1E0A;" d="M712.914,493.918c-6.009-11.482-13.046-22.478-19.781-33.546
			c-12.967-21.309-24.547-45.219-44.984-60.376c-0.572-0.426-1.326,0.307-1.164,0.921c6.013,22.178,18.282,41.325,29.896,60.937
			c11.516,19.438,23.822,39.194,37.442,57.218c2.587,3.422,7.626,0.139,7.519-3.537C721.623,507.782,716.43,500.633,712.914,493.918
			z"/>
		<path style="fill:#4B1E0A;" d="M724.78,477.625c-6.049-10.8-11.44-21.925-17.574-32.681
			c-10.831-18.974-22.093-41.155-38.838-55.771c-0.281-0.25-0.697,0.174-0.603,0.471c6.355,20.689,17.245,40.193,28.342,58.74
			c11.241,18.798,22.438,37.628,34.063,56.158c1.751,2.79,5.356-0.192,5.451-2.516C735.975,493.229,728.94,485.05,724.78,477.625z"
			/>
	</g>
</g>
</svg>
